<?xml version="1.0" encoding="UTF-8" standalone="no"?>
<svg width="30px" height="31px" viewBox="0 0 30 31" version="1.1" xmlns="http://www.w3.org/2000/svg" xmlns:xlink="http://www.w3.org/1999/xlink">
    <!-- Generator: Sketch 3.7.2 (28276) - http://www.bohemiancoding.com/sketch -->
    <title>Search_White</title>
    <desc>Created with Sketch.</desc>
    <defs></defs>
    <g id="Style-Guide" stroke="none" stroke-width="1" fill="none" fill-rule="evenodd">
        <g id="Icons" transform="translate(-608.000000, -331.000000)" fill="#FFFFFF">
            <g id="Search_White" transform="translate(601.000000, 324.000000)">
                <path d="M37,34.8493687 L26.8948696,24.7442382 C27.2288024,24.3177832 27.5252814,23.8542451 27.7850481,23.390707 C28.6748558,21.7775944 29.1383939,19.923442 29.1383939,18.0692897 C29.1383939,11.9691284 24.169451,7 18.0692897,7 C11.9691284,7 7,11.9691284 7,18.0692897 C7,24.169451 11.9691284,29.1385793 18.0692897,29.1385793 C20.0903158,29.1385793 22.0742588,28.5823336 23.7984351,27.5440083 C23.9284112,27.4698422 24.0582018,27.3771346 24.1879925,27.3029685 L34.3858306,37.5008066 L37,34.8493687 M18.0876458,25.4117331 C14.0270521,25.4117331 10.7266609,22.1113419 10.7266609,18.0507482 C10.7266609,13.9901545 14.0270521,10.6897632 18.0876458,10.6897632 C22.1482395,10.6897632 25.4486307,13.9901545 25.4486307,18.0507482 C25.4486307,19.2930302 25.1334248,20.5167708 24.540096,21.5921792 C23.9096842,22.7232121 23.0011496,23.6873714 21.8886581,24.3548662 C20.7390837,25.0409026 19.4226355,25.4117331 18.0876458,25.4117331 L18.0876458,25.4117331" id="Search"></path>
            </g>
        </g>
    </g>
</svg>