<?xml version="1.0" encoding="UTF-8" standalone="no"?>
<svg width="30px" height="30px" viewBox="0 0 30 30" version="1.1" xmlns="http://www.w3.org/2000/svg" xmlns:xlink="http://www.w3.org/1999/xlink">
    <!-- Generator: Sketch 3.7.2 (28276) - http://www.bohemiancoding.com/sketch -->
    <title>Quickview_Black</title>
    <desc>Created with Sketch.</desc>
    <defs></defs>
    <g id="Style-Guide" stroke="none" stroke-width="1" fill="none" fill-rule="evenodd">
        <g id="Icons" transform="translate(-754.000000, -156.000000)" fill="#000000">
            <g id="Quickview_Black" transform="translate(747.000000, 149.000000)">
                <g transform="translate(7.000000, 7.000000)" id="Layer_1">
                    <g>
                        <polygon id="Shape" points="22.7027027 14.3243243 15.8108108 14.3243243 15.8108108 7.2972973 14.1891892 7.2972973 14.1891892 14.3243243 7.2972973 14.3243243 7.2972973 16.0810811 14.1891892 16.0810811 14.1891892 22.7027027 15.8108108 22.7027027 15.8108108 16.0810811 22.7027027 16.0810811"></polygon>
                        <g id="Group">
                            <path d="M15,29.5135135 C7,29.5135135 0.486486486,23 0.486486486,15 C0.486486486,7 7,0.486486486 15,0.486486486 C23,0.486486486 29.5135135,7 29.5135135,15 C29.5135135,23 23,29.5135135 15,29.5135135 L15,29.5135135 Z M15,1.16216216 C7.36486486,1.16216216 1.16216216,7.36486486 1.16216216,15 C1.16216216,22.6351351 7.36486486,28.8378378 15,28.8378378 C22.6351351,28.8378378 28.8378378,22.6351351 28.8378378,15 C28.8378378,7.36486486 22.6351351,1.16216216 15,1.16216216 L15,1.16216216 Z" id="Shape"></path>
                            <path d="M15,29.9864865 C6.72972973,29.9864865 0.0135135135,23.2567568 0.0135135135,15 C0.0135135135,6.74324324 6.72972973,0.0135135135 15,0.0135135135 C23.2702703,0.0135135135 29.9864865,6.72972973 29.9864865,15 C29.9864865,23.2702703 23.2702703,29.9864865 15,29.9864865 L15,29.9864865 Z M15,1.63513514 C7.63513514,1.63513514 1.63513514,7.63513514 1.63513514,15 C1.63513514,22.3648649 7.63513514,28.3648649 15,28.3648649 C22.3648649,28.3648649 28.3648649,22.3648649 28.3648649,15 C28.3648649,7.63513514 22.3648649,1.63513514 15,1.63513514 L15,1.63513514 Z" id="Shape"></path>
                        </g>
                    </g>
                </g>
            </g>
        </g>
    </g>
</svg>