<?xml version="1.0" standalone="no"?>
<!DOCTYPE svg PUBLIC "-//W3C//DTD SVG 1.1//EN" "http://www.w3.org/Graphics/SVG/1.1/DTD/svg11.dtd" >
<svg xmlns="http://www.w3.org/2000/svg" xmlns:xlink="http://www.w3.org/1999/xlink" version="1.1">
<metadata>
Created by Christoph Koeberlin (http://christoph.koe.berlin)
Copyright (c) 2016 Swiss Typefaces Sa`rl. All rights reserved.
</metadata>
<defs>
<font id="Font" horiz-adv-x="510" >
  <font-face 
    font-family="Font"
    font-weight="400"
    font-style="italic"
    font-stretch="normal"
    units-per-em="1000"
    panose-1="2 11 5 4 0 0 0 0 0 0"
    ascent="800"
    descent="-200"
    x-height="415"
    cap-height="628"
    bbox="-63 -546 1853 1174"
    underline-thickness="50"
    underline-position="-120"
    slope="-7"
    unicode-range="U+000D-FB02"
  />
<missing-glyph horiz-adv-x="592" 
d="M152 628h442l-77 -628h-442zM561 611h-381l156 -283zM326 315l-160 290l-72 -582zM575 603l-231 -289l160 -289zM490 17l-156 284l-227 -284h383z" />
    <glyph glyph-name=".notdef" horiz-adv-x="592" 
d="M152 628h442l-77 -628h-442zM561 611h-381l156 -283zM326 315l-160 290l-72 -582zM575 603l-231 -289l160 -289zM490 17l-156 284l-227 -284h383z" />
    <glyph glyph-name="glyph1" horiz-adv-x="0" 
 />
    <glyph glyph-name="uni000D" unicode="&#xd;" horiz-adv-x="200" 
 />
    <glyph glyph-name="space" unicode=" " horiz-adv-x="200" 
 />
    <glyph glyph-name="exclam" unicode="!" horiz-adv-x="292" 
d="M187 628h72l-53 -433h-72zM94 50q0 25 17.5 42t41.5 17q25 0 42 -17t17 -42q0 -24 -17 -41.5t-42 -17.5q-24 0 -41.5 17.5t-17.5 41.5z" />
    <glyph glyph-name="quotedbl" unicode="&#x22;" horiz-adv-x="355" 
d="M152 628h70l-32 -263h-70zM287 628h70l-32 -263h-70z" />
    <glyph glyph-name="numbersign" unicode="#" horiz-adv-x="617" 
d="M502 378l-39 -127h79v-65h-99l-58 -186h-68l58 186h-136l-58 -186h-68l58 186h-78v65h98l39 127h-77v65h98l57 185h69l-58 -185h136l57 185h68l-57 -185h79v-65h-100zM434 378h-135l-40 -127h136z" />
    <glyph glyph-name="dollar" unicode="$" horiz-adv-x="548" 
d="M475 170q0 -79 -50 -128t-134 -51l-8 -70h-50l9 74q-61 13 -105 55t-57 93l67 28q17 -54 54.5 -84.5t88.5 -30.5q36 0 62 16.5t39.5 41t13.5 49.5q0 72 -86 114l-66 32q-110 53 -110 157q0 47 22 85.5t62.5 61.5t93.5 24l9 70h50l-10 -75q46 -11 79 -41.5t46 -75.5
l-65 -23q-11 38 -40 58.5t-67 20.5q-42 0 -76 -27.5t-34 -72.5q0 -63 74 -99l79 -38q56 -29 82.5 -69.5t26.5 -94.5z" />
    <glyph glyph-name="percent" unicode="%" horiz-adv-x="753" 
d="M116 498q0 40 19 71.5t51 49.5t68 18t68 -18t51.5 -49.5t19.5 -71.5q0 -39 -19.5 -71t-51.5 -50t-68 -18t-68 18t-51 50t-19 71zM171 19l450 618l38 -28l-450 -618zM333 498q0 36 -23 59t-56 23t-55.5 -23t-22.5 -59q0 -35 22.5 -57.5t55.5 -22.5t56 22.5t23 57.5z
M437 130q0 40 19 71.5t51 49.5t68 18t68 -18t51.5 -49.5t19.5 -71.5q0 -39 -19.5 -71t-51.5 -50t-68 -18t-68 18t-51 50t-19 71zM654 130q0 36 -23 59t-56 23t-55.5 -23t-22.5 -59q0 -35 22.5 -57.5t55.5 -22.5t56 22.5t23 57.5z" />
    <glyph glyph-name="ampersand" unicode="&#x26;" horiz-adv-x="502" 
d="M438 110l64 -110h-77l-33 57q-69 -66 -165 -66q-52 0 -94.5 21t-67.5 60t-25 92q0 73 42 124t129 85q-16 28 -24.5 54t-8.5 61q0 68 40 108.5t109 40.5q56 0 92 -31.5t36 -87.5q0 -63 -40 -103t-112 -70l100 -174q27 41 61 123l58 -21q-40 -101 -84 -163zM248 487
q0 -25 6 -45.5t19 -44.5q115 46 115 113q0 28 -16.5 45t-47.5 17q-36 0 -56 -24t-20 -61zM360 115l-118 206l-2 -1q-63 -25 -96.5 -64.5t-33.5 -85.5q0 -52 34 -83t87 -31q72 0 129 59z" />
    <glyph glyph-name="quotesingle" unicode="'" horiz-adv-x="220" 
d="M152 628h70l-32 -263h-70z" />
    <glyph glyph-name="parenleft" unicode="(" horiz-adv-x="298" 
d="M122 183q0 149 43 278t124 233l48 -31q-70 -101 -109 -223.5t-39 -256.5q0 -85 12.5 -163.5t37.5 -137.5l-52 -25q-31 62 -48 146t-17 180z" />
    <glyph glyph-name="parenright" unicode=")" horiz-adv-x="297" 
d="M243 368q0 -149 -43 -278t-124 -233l-48 31q70 101 109 223.5t39 256.5q0 85 -12.5 163.5t-37.5 137.5l52 25q31 -62 48 -146t17 -180z" />
    <glyph glyph-name="asterisk" unicode="*" horiz-adv-x="363" 
d="M284 457l59 -96l-48 -32l-60 95l-83 -96l-46 34l84 96l-108 39l23 53l108 -38l14 116h61l-14 -115l119 38l11 -57z" />
    <glyph glyph-name="plus" unicode="+" horiz-adv-x="458" 
d="M221 201h-146l8 67h146l18 147h67l-18 -147h146l-8 -67h-146l-18 -147h-67z" />
    <glyph glyph-name="comma" unicode="," horiz-adv-x="229" 
d="M95 106h99l-142 -233h-31z" />
    <glyph glyph-name="hyphen" unicode="-" horiz-adv-x="290" 
d="M69 277h220l-8 -67h-220z" />
    <glyph glyph-name="period" unicode="." horiz-adv-x="239" 
d="M67 50q0 25 17.5 42t41.5 17q25 0 42 -17t17 -42q0 -24 -17 -41.5t-42 -17.5q-24 0 -41.5 17.5t-17.5 41.5z" />
    <glyph glyph-name="slash" unicode="/" horiz-adv-x="457" 
d="M419 628h77l-380 -628h-77z" />
    <glyph glyph-name="zero" unicode="0" horiz-adv-x="553" 
d="M78 266q0 94 31 179t91 138.5t143 53.5q65 0 112.5 -36t72 -98.5t24.5 -141.5q0 -94 -31 -179t-91 -138t-144 -53q-65 0 -112 35.5t-71.5 98t-24.5 141.5zM477 363q0 91 -34 147t-105 56q-56 0 -98 -45t-64.5 -115t-22.5 -142q0 -91 34 -146.5t105 -55.5q56 0 98 44.5
t64.5 114.5t22.5 142z" />
    <glyph glyph-name="one" unicode="1" horiz-adv-x="303" 
d="M208 0h-75l68 557h-107l80 71h111z" />
    <glyph glyph-name="two" unicode="2" horiz-adv-x="470" 
d="M269 266q43 44 66.5 71t43.5 62.5t20 68.5q0 43 -25 70.5t-70 27.5q-41 0 -76 -27.5t-53 -75.5l-73 21q23 69 79.5 111t126.5 42q49 0 87 -21.5t59 -58.5t21 -81q0 -45 -19 -86t-47 -75t-77 -86l-149 -158h254l-9 -71h-410z" />
    <glyph glyph-name="three" unicode="3" horiz-adv-x="458" 
d="M440 187q0 -92 -54 -144t-149 -52q-70 0 -125 39.5t-67 106.5l70 25q12 -46 48 -73t81 -27q54 0 87.5 33.5t33.5 87.5q0 49 -29.5 82t-79.5 33h-28l9 71h38q44 0 75.5 31.5t31.5 73.5t-27.5 67t-63.5 25q-70 0 -111 -72l-67 31q23 50 71.5 81t112.5 31q39 0 76 -19
t60.5 -55.5t23.5 -84.5q0 -50 -23.5 -88.5t-63.5 -61.5q33 -25 51.5 -61.5t18.5 -79.5z" />
    <glyph glyph-name="four" unicode="4" horiz-adv-x="490" 
d="M342 135h-325l461 502l-53 -433h66l-8 -69h-66l-17 -135h-75zM350 204l28 226l-208 -226h180z" />
    <glyph glyph-name="five" unicode="5" horiz-adv-x="457" 
d="M448 202q1 -57 -25.5 -105t-75.5 -77t-115 -29q-65 0 -113.5 39t-66.5 98l70 29q11 -43 42 -69t74 -26q40 0 70.5 18t47.5 48.5t17 66.5q0 59 -34 96t-87 37q-36 0 -65 -15.5t-47 -42.5l-53 27l102 331h262l-9 -71h-199l-54 -174q14 7 34 11.5t36 4.5q54 0 97 -27.5
t67.5 -72.5t24.5 -97z" />
    <glyph glyph-name="six" unicode="6" horiz-adv-x="486" 
d="M258 -9q-54 0 -97.5 27.5t-67.5 72.5t-24 96q0 81 45 136l250 305h93l-193 -235q14 2 21 2q54 0 97 -26.5t67.5 -71t24.5 -95.5q1 -57 -25.5 -105t-75.5 -77t-115 -29zM399 195q0 59 -34 96t-87 37q-59 0 -96.5 -39t-37.5 -95q0 -57 34 -94.5t86 -37.5q40 0 70.5 18
t47.5 48.5t17 66.5z" />
    <glyph glyph-name="seven" unicode="7" horiz-adv-x="402" 
d="M484 628l-357 -628h-82l317 557h-270l9 71h383z" />
    <glyph glyph-name="eight" unicode="8" horiz-adv-x="499" 
d="M264 -9q-55 0 -99 27t-68.5 72.5t-25.5 98.5q0 61 31 110t86 73q-21 21 -32.5 47.5t-11.5 53.5q0 44 22 81t62.5 59.5t92.5 22.5q44 0 78.5 -20.5t54 -54.5t19.5 -72q0 -41 -19.5 -76.5t-54.5 -57.5q36 -26 56.5 -66.5t20.5 -86.5q1 -57 -25.5 -105t-75 -77t-111.5 -29z
M218 480q0 -39 25 -64t62 -25q40 0 67 28.5t27 62.5q0 38 -24.5 60.5t-62.5 22.5q-41 0 -67.5 -25.5t-26.5 -59.5zM401 195q0 59 -34 95t-88 36q-39 0 -69 -18t-46.5 -48t-17.5 -64q1 -60 34.5 -97t87.5 -37q39 0 69.5 18.5t47 49t16.5 65.5z" />
    <glyph glyph-name="nine" unicode="9" horiz-adv-x="486" 
d="M494 441q0 -80 -45 -136l-250 -305h-93l193 235q-14 -2 -21 -2q-54 0 -97.5 26.5t-67.5 71.5t-24 97q0 57 26 104.5t75.5 76t114.5 28.5q54 0 97.5 -27.5t67.5 -72.5t24 -96zM419 434q0 57 -34 94.5t-86 37.5q-40 0 -70.5 -18t-47.5 -48.5t-17 -66.5q0 -59 34 -96t87 -37
q59 0 96.5 39t37.5 95z" />
    <glyph glyph-name="colon" unicode=":" horiz-adv-x="239" 
d="M67 50q0 25 17.5 42t41.5 17q25 0 42 -17t17 -42q0 -24 -17 -41.5t-42 -17.5q-24 0 -41.5 17.5t-17.5 41.5zM106 368q0 25 17.5 42t41.5 17q25 0 42 -17t17 -42q0 -24 -17 -41.5t-42 -17.5q-24 0 -41.5 17.5t-17.5 41.5z" />
    <glyph glyph-name="semicolon" unicode=";" horiz-adv-x="246" 
d="M123 368q0 25 17.5 42t41.5 17q25 0 42 -17t17 -42q0 -24 -17 -41.5t-42 -17.5q-24 0 -41.5 17.5t-17.5 41.5zM95 106h99l-142 -233h-31z" />
    <glyph glyph-name="less" unicode="&#x3c;" horiz-adv-x="855" 
d="M409 225l156 -191l-52 -43l-196 240l255 240l46 -49z" />
    <glyph glyph-name="equal" unicode="=" horiz-adv-x="458" 
d="M93 348h358l-8 -67h-358zM73 188h358l-8 -67h-358z" />
    <glyph glyph-name="greater" unicode="&#x3e;" horiz-adv-x="855" 
d="M595 231l-255 -240l-46 49l209 197l-156 191l52 43z" />
    <glyph glyph-name="question" unicode="?" horiz-adv-x="440" 
d="M169 334h40q57 0 96 20t57.5 51t18.5 66q0 50 -33.5 74.5t-77.5 24.5q-72 0 -124 -76l-54 42q28 45 73.5 73t108.5 28q53 0 94 -21t63 -58.5t22 -83.5q0 -58 -25.5 -103.5t-75.5 -72.5t-119 -29l-9 -74h-73zM112 50q0 25 17.5 42t41.5 17q25 0 42 -17t17 -42
q0 -24 -17 -41.5t-42 -17.5q-24 0 -41.5 17.5t-17.5 41.5z" />
    <glyph glyph-name="at" unicode="@" horiz-adv-x="745" 
d="M87 314q0 88 43.5 162t119 117.5t166.5 43.5q93 0 167 -41t115 -109t41 -143q0 -70 -24 -114t-59.5 -63t-72.5 -19q-66 0 -103 39q-42 -37 -104 -37q-53 0 -90.5 38.5t-37.5 104.5q0 50 23 92.5t61.5 67.5t81.5 25t75 -24l3 15h66l-38 -180q-3 -13 -3 -25q0 -58 70 -58
q37 0 64.5 34.5t27.5 103.5q0 61 -32 116t-91.5 88.5t-137.5 33.5q-77 0 -139 -35.5t-97 -96.5t-35 -136t34 -136t94.5 -96.5t137.5 -35.5q94 0 165 53l31 -46q-40 -30 -90.5 -46t-105.5 -16q-92 0 -166.5 43t-117 117t-42.5 163zM445 242l33 151q-27 25 -54 25
q-30 0 -55.5 -17t-41 -46t-15.5 -65q0 -34 20.5 -57t49.5 -23q43 0 63 32z" />
    <glyph glyph-name="A" unicode="A" horiz-adv-x="608" 
d="M463 178h-267l-103 -178h-83l372 637l216 -637h-75zM440 247l-75 221l-128 -221h203z" />
    <glyph glyph-name="B" unicode="B" horiz-adv-x="546" 
d="M532 204q0 -58 -26 -104.5t-76 -73t-117 -26.5h-238l77 628h189q70 0 120.5 -37t50.5 -105q0 -53 -22.5 -90t-61.5 -54q46 -13 75 -51t29 -87zM218 557l-23 -188h112q48 0 77.5 17.5t41 42t11.5 47.5q0 37 -27 59t-80 22h-112zM457 202q0 44 -32 70t-94 26h-144l-28 -227
h144q80 0 117 37t37 94z" />
    <glyph glyph-name="C" unicode="C" horiz-adv-x="651" 
d="M79 283q0 103 47.5 184t126.5 125.5t170 44.5q73 0 139.5 -29t109.5 -85l-60 -47q-30 43 -79 66.5t-113 23.5q-72 0 -133 -38t-97 -100.5t-36 -134.5q0 -105 62.5 -168t169.5 -63q55 0 104.5 22.5t86.5 62.5l54 -51q-48 -50 -112.5 -77.5t-135.5 -27.5q-78 0 -147.5 32.5
t-113 98.5t-43.5 161z" />
    <glyph glyph-name="D" unicode="D" horiz-adv-x="635" 
d="M633 345q0 -103 -47.5 -181.5t-126.5 -121t-170 -42.5h-214l77 628h177q78 0 147.5 -30.5t113 -94t43.5 -158.5zM558 335q0 104 -62 163t-170 59h-108l-59 -486h133q72 0 133 35.5t97 96.5t36 132z" />
    <glyph glyph-name="E" unicode="E" horiz-adv-x="483" 
d="M218 557l-23 -188h197l-8 -71h-197l-28 -227h287l-9 -71h-362l77 628h362l-9 -71h-287z" />
    <glyph glyph-name="F" unicode="F" horiz-adv-x="474" 
d="M218 557l-23 -188h211l-9 -71h-210l-37 -298h-75l77 628h326l-9 -71h-251z" />
    <glyph glyph-name="G" unicode="G" horiz-adv-x="679" 
d="M408 369h248l-35 -285q-47 -44 -109.5 -68.5t-128.5 -24.5q-78 0 -147.5 32.5t-113 98.5t-43.5 161q0 103 47.5 184t126.5 125.5t170 44.5q68 0 131 -25.5t107 -74.5l-59 -48q-30 37 -76.5 57t-105.5 20q-72 0 -133 -38t-97 -100.5t-36 -134.5q0 -105 62.5 -168
t169.5 -63q45 0 87.5 15.5t77.5 43.5l21 177h-172z" />
    <glyph glyph-name="H" unicode="H" horiz-adv-x="646" 
d="M648 628l-77 -628h-75l37 298h-346l-37 -298h-75l77 628h75l-32 -259h346l32 259h75z" />
    <glyph glyph-name="I" unicode="I" horiz-adv-x="225" 
d="M152 628h75l-77 -628h-75z" />
    <glyph glyph-name="J" unicode="J" horiz-adv-x="298" 
d="M47 -1l22 69q17 -6 37 -6q29 0 44.5 18t18.5 47l61 501h75l-61 -501q-8 -69 -43 -101.5t-102 -34.5q-33 0 -52 8z" />
    <glyph glyph-name="K" unicode="K" horiz-adv-x="558" 
d="M480 0l-291 320l-39 -320h-75l77 628h75l-35 -282l370 287l-12 -95l-273 -212l296 -326h-93z" />
    <glyph glyph-name="L" unicode="L" horiz-adv-x="425" 
d="M406 71l-9 -71h-322l77 628h75l-68 -557h247z" />
    <glyph glyph-name="M" unicode="M" horiz-adv-x="758" 
d="M153 637l255 -365l353 365l-78 -637h-75l54 436l-263 -271l-194 279l-55 -444h-75z" />
    <glyph glyph-name="N" unicode="N" horiz-adv-x="671" 
d="M207 462l-57 -462h-75l78 637l388 -471l57 462h75l-78 -637z" />
    <glyph glyph-name="O" unicode="O" horiz-adv-x="729" 
d="M79 283q0 103 47.5 184t126.5 125.5t170 44.5q78 0 147.5 -32.5t113 -98.5t43.5 -161q0 -103 -47.5 -184t-126.5 -125.5t-170 -44.5q-78 0 -147.5 32.5t-113 98.5t-43.5 161zM652 335q0 105 -62.5 168t-169.5 63q-72 0 -133 -38t-97 -100.5t-36 -134.5q0 -105 62.5 -168
t169.5 -63q72 0 133 38t97 100.5t36 134.5z" />
    <glyph glyph-name="P" unicode="P" horiz-adv-x="512" 
d="M546 471q0 -96 -60 -152t-170 -56h-134l-32 -263h-75l77 628h206q87 0 137.5 -43.5t50.5 -113.5zM470 457q0 51 -30.5 75.5t-86.5 24.5h-135l-28 -235l1 12h135q42 0 75 17t51 45t18 61z" />
    <glyph glyph-name="Q" unicode="Q" horiz-adv-x="729" 
d="M626 91l59 -63l-11 -86l-100 106q-86 -57 -191 -57q-78 0 -147.5 32.5t-113 98.5t-43.5 161q0 103 47.5 184t126.5 125.5t170 44.5q78 0 147.5 -32.5t113 -98.5t43.5 -161q0 -76 -27 -141t-74 -113zM523 102l-172 182l50 45l174 -184q36 38 56.5 87.5t20.5 102.5
q0 105 -62.5 168t-169.5 63q-72 0 -133 -38t-97 -100.5t-36 -134.5q0 -105 62.5 -168t169.5 -63q73 0 137 40z" />
    <glyph glyph-name="R" unicode="R" horiz-adv-x="566" 
d="M251 298h-64l-37 -298h-75l77 628h199q46 0 83 -19t58 -53t21 -75q0 -74 -47.5 -124t-123.5 -58l234 -299h-92zM195 369h112q65 0 97.5 30t32.5 72q0 38 -27 62t-80 24h-112z" />
    <glyph glyph-name="S" unicode="S" horiz-adv-x="488" 
d="M66 143l72 30q17 -54 52 -83t86 -29q54 0 83.5 31t29.5 71q0 69 -86 111l-75 36q-103 48 -103 156q0 47 22.5 86t65 62t99.5 23q62 0 107.5 -33t61.5 -89l-69 -30q-9 39 -37 60t-66 21q-43 0 -75.5 -25t-32.5 -70q0 -31 17.5 -54t56.5 -42l79 -38q111 -56 111 -167
q0 -83 -52.5 -131t-141.5 -48q-82 0 -135 44.5t-70 107.5z" />
    <glyph glyph-name="T" unicode="T" horiz-adv-x="479" 
d="M522 557h-177l-68 -557h-75l68 557h-177l9 71h429z" />
    <glyph glyph-name="U" unicode="U" horiz-adv-x="642" 
d="M92 227q0 20 3 41l44 360h75l-43 -354q-3 -22 -3 -42q0 -80 41.5 -125t119.5 -45q87 0 142.5 58.5t67.5 153.5l43 354h75l-45 -365q-16 -129 -92.5 -200.5t-197.5 -71.5q-69 0 -121.5 30t-80.5 83.5t-28 122.5z" />
    <glyph glyph-name="V" unicode="V" horiz-adv-x="608" 
d="M675 628l-372 -637l-216 637h75l158 -468l272 468h83z" />
    <glyph glyph-name="W" unicode="W" horiz-adv-x="792" 
d="M566 -9l-112 459l-230 -459l-133 637h75l89 -429l219 438l107 -438l194 429h80z" />
    <glyph glyph-name="X" unicode="X" horiz-adv-x="586" 
d="M375 311l178 -311h-83l-144 251l-202 -251h-91l255 317l-178 311h83l144 -251l202 251h91z" />
    <glyph glyph-name="Y" unicode="Y" horiz-adv-x="525" 
d="M336 290l-36 -290h-75l36 289h-1l-173 339h80l136 -267l202 267h87z" />
    <glyph glyph-name="Z" unicode="Z" horiz-adv-x="528" 
d="M433 557h-299l9 71h431l-402 -557h315l-9 -71h-447z" />
    <glyph glyph-name="bracketleft" unicode="[" horiz-adv-x="247" 
d="M163 676h141l-7 -60h-73l-85 -690h73l-7 -60h-141z" />
    <glyph glyph-name="backslash" unicode="\" horiz-adv-x="484" 
d="M432 0l-380 628h77l380 -628h-77z" />
    <glyph glyph-name="bracketright" unicode="]" horiz-adv-x="247" 
d="M151 -134h-141l7 60h73l85 690h-73l7 60h141z" />
    <glyph glyph-name="asciicircum" unicode="^" horiz-adv-x="600" 
d="M54 348l289 289l289 -289l-49 -49l-240 239l-240 -239z" />
    <glyph glyph-name="underscore" unicode="_" horiz-adv-x="371" 
d="M1 1h371l-8 -67h-371z" />
    <glyph glyph-name="grave" unicode="`" horiz-adv-x="542" 
d="M77 628h107l87 -131h-72z" />
    <glyph glyph-name="a" unicode="a" horiz-adv-x="456" 
d="M426 273q0 -9 -2 -29l-30 -244h-70l5 42q-22 -21 -58.5 -36t-79.5 -15q-58 0 -96 36.5t-38 92.5q0 42 22 76t63.5 53.5t96.5 19.5q59 0 114 -33l2 14q1 7 1 20q0 42 -22.5 68t-65.5 26q-35 0 -65.5 -15t-51.5 -38l-46 41q28 33 73 54t99 21q69 0 109 -43t40 -111z
M338 116l8 58q-44 34 -112 34q-30 0 -54 -12t-38 -31t-14 -39q0 -33 21.5 -51.5t59.5 -18.5q35 0 70.5 17t58.5 43z" />
    <glyph glyph-name="b" unicode="b" horiz-adv-x="529" 
d="M515 230q0 -68 -29 -122.5t-79.5 -85.5t-112.5 -31q-44 0 -85.5 20t-61.5 49l-7 -60h-70l80 648h70l-34 -275q24 23 62 38.5t79 15.5q45 0 88 -22t71.5 -66.5t28.5 -108.5zM445 222q0 70 -37.5 105t-92.5 35q-41 0 -80 -20.5t-60 -58.5l-17 -134q15 -47 54 -70t76 -23
q43 0 79 21t57 58.5t21 86.5z" />
    <glyph glyph-name="c" unicode="c" horiz-adv-x="463" 
d="M64 194q0 64 29.5 117t82.5 84.5t120 31.5q50 0 96 -24.5t75 -67.5l-57 -42q-18 34 -50 51.5t-69 17.5q-43 0 -79 -22t-56.5 -59t-20.5 -80q0 -47 19.5 -79.5t50 -49t64.5 -16.5q37 0 69.5 17.5t55.5 46.5l51 -45q-32 -39 -78 -61.5t-101 -22.5q-50 0 -97 25t-76 71.5
t-29 106.5z" />
    <glyph glyph-name="d" unicode="d" horiz-adv-x="529" 
d="M539 648l-80 -648h-70l6 46q-25 -24 -62.5 -39.5t-79.5 -15.5q-45 0 -88 22t-71.5 66.5t-28.5 108.5q0 68 29 122.5t79.5 85.5t112.5 31q44 0 86 -20t61 -50l-7 -60l43 351h70zM406 137l16 130q-14 48 -53 71.5t-77 23.5q-43 0 -79 -21t-57 -58.5t-21 -86.5
q0 -70 37.5 -105t92.5 -35q41 0 80.5 21t60.5 60z" />
    <glyph glyph-name="e" unicode="e" horiz-adv-x="486" 
d="M480 228q0 -10 -2 -32h-343q1 -67 41.5 -103.5t94.5 -36.5q37 0 68.5 17.5t54.5 46.5l51 -45q-32 -39 -78 -61.5t-101 -22.5q-50 0 -97 25t-76 71.5t-29 106.5q0 65 28 118t80.5 84t123.5 31q47 0 89.5 -24t68.5 -69.5t26 -105.5zM143 255h264q-7 50 -41 78.5t-81 28.5
q-54 0 -91 -29.5t-51 -77.5z" />
    <glyph glyph-name="f" unicode="f" horiz-adv-x="345" 
d="M220 480l-8 -65h155l-8 -66h-155l-43 -349h-70l43 349h-56l8 66h56l8 68q22 169 175 169q45 0 77 -16l-23 -64q-28 15 -61 15q-85 0 -98 -107z" />
    <glyph glyph-name="g" unicode="g" horiz-adv-x="529" 
d="M510 415l-48 -392q-12 -97 -71 -153.5t-156 -56.5q-66 0 -121 28.5t-77 71.5l57 45q46 -80 146 -80q62 0 102.5 35.5t48.5 101.5l4 31q-24 -24 -62 -39.5t-80 -15.5q-45 0 -88 22t-71.5 66.5t-28.5 108.5q0 68 29 122.5t79.5 85.5t112.5 31q44 0 86 -20t61 -50l7 58h70z
M406 137l16 130q-14 48 -53 71.5t-77 23.5q-43 0 -79 -21t-57 -58.5t-21 -86.5q0 -70 37.5 -105t92.5 -35q41 0 80.5 21t60.5 60z" />
    <glyph glyph-name="h" unicode="h" horiz-adv-x="503" 
d="M473 275q0 -9 -2 -29l-30 -246h-70l30 245q1 8 1 23q0 46 -24 70t-68 24q-36 0 -76.5 -23t-59.5 -64l-34 -275h-70l80 648h70l-35 -282q22 26 59.5 43.5t77.5 17.5q69 0 110 -41t41 -111z" />
    <glyph glyph-name="i" unicode="i" horiz-adv-x="210" 
d="M121 415h70l-51 -415h-70zM118 559q0 23 16.5 39.5t39.5 16.5t39.5 -16.5t16.5 -39.5t-16.5 -39.5t-39.5 -16.5q-22 0 -39 17t-17 39z" />
    <glyph glyph-name="j" unicode="j" horiz-adv-x="210" 
d="M118 559q0 23 16.5 39.5t39.5 16.5t39.5 -16.5t16.5 -39.5t-16.5 -39.5t-39.5 -16.5q-22 0 -39 17t-17 39zM-63 -173l23 63q15 -7 40 -7q19 0 39.5 14.5t24.5 46.5l57 471h70l-57 -463q-8 -70 -49 -102t-97 -32q-27 0 -51 9z" />
    <glyph glyph-name="k" unicode="k" horiz-adv-x="437" 
d="M362 0l-196 212l-26 -212h-70l80 648h70l-51 -416l274 190l-11 -85l-178 -124l197 -213h-89z" />
    <glyph glyph-name="l" unicode="l" horiz-adv-x="210" 
d="M150 648h70l-80 -648h-70z" />
    <glyph glyph-name="m" unicode="m" horiz-adv-x="783" 
d="M753 276q0 -10 -2 -30l-30 -246h-70l30 245q2 18 2 25q0 45 -22.5 68.5t-65.5 23.5q-37 0 -76 -25t-57 -68q0 -7 -2 -23l-30 -246h-70l30 245q2 18 2 25q0 44 -22 68t-65 24q-37 0 -75 -23t-56 -64l-34 -275h-70l51 415h70l-6 -49q21 26 56.5 43.5t75.5 17.5
q46 0 79 -19.5t50 -55.5q64 75 161 75q68 0 107 -41t39 -110z" />
    <glyph glyph-name="n" unicode="n" horiz-adv-x="503" 
d="M473 275q0 -9 -2 -29l-30 -246h-70l30 245q1 8 1 23q0 46 -24 70t-68 24q-36 0 -76.5 -23t-59.5 -64l-34 -275h-70l51 415h70l-6 -49q21 26 59 43.5t78 17.5q69 0 110 -41t41 -111z" />
    <glyph glyph-name="o" unicode="o" 
d="M64 194q0 64 30 117.5t82.5 84.5t119.5 31q50 0 96.5 -25t76 -71t29.5 -106q0 -64 -30 -117.5t-83 -85t-119 -31.5q-50 0 -97 25t-76 71.5t-29 106.5zM427 218q0 47 -20 79.5t-51.5 48.5t-65.5 16q-43 0 -78.5 -22t-56 -59t-20.5 -80q0 -47 19.5 -79.5t50.5 -48.5t66 -16
q43 0 78.5 22.5t56.5 59.5t21 79z" />
    <glyph glyph-name="p" unicode="p" horiz-adv-x="529" 
d="M515 230q0 -68 -29 -122.5t-79.5 -85.5t-112.5 -31q-44 0 -85.5 20t-61.5 49l-29 -238h-70l73 593h70l-5 -42q24 23 62 38.5t79 15.5q45 0 88 -22t71.5 -66.5t28.5 -108.5zM445 222q0 70 -37.5 105t-92.5 35q-40 0 -79 -21t-61 -59l-17 -132q15 -48 54 -71t76 -23
q43 0 79 21t57 58.5t21 86.5z" />
    <glyph glyph-name="q" unicode="q" horiz-adv-x="529" 
d="M510 415l-73 -593h-70l28 224q-25 -24 -62.5 -39.5t-79.5 -15.5q-45 0 -88 22t-71.5 66.5t-28.5 108.5q0 68 29 122.5t79.5 85.5t112.5 31q44 0 86 -20t61 -50l7 58h70zM406 136l16 132q-14 47 -53 70.5t-77 23.5q-43 0 -79 -21t-57 -58.5t-21 -86.5q0 -70 37.5 -105
t92.5 -35q41 0 80.5 21t60.5 59z" />
    <glyph glyph-name="r" unicode="r" horiz-adv-x="311" 
d="M335 418l-16 -65q-12 4 -31 4q-31 0 -63.5 -25t-52.5 -68l-32 -264h-70l51 415h70l-6 -48q17 25 48.5 40t65.5 15q22 0 36 -4z" />
    <glyph glyph-name="s" unicode="s" horiz-adv-x="381" 
d="M44 103l62 30q27 -77 101 -77q38 0 56.5 15t18.5 39q0 20 -11 34t-36 26l-61 29q-81 38 -81 111q0 51 39.5 84t99.5 33q47 0 83.5 -26.5t48.5 -69.5l-64 -25q-19 56 -74 56q-29 0 -46.5 -14t-17.5 -33q0 -20 13 -34.5t39 -26.5l57 -27q42 -20 62 -47t20 -62
q0 -59 -41 -93t-107 -34q-57 0 -102 31.5t-59 80.5z" />
    <glyph glyph-name="t" unicode="t" horiz-adv-x="282" 
d="M304 349h-100l-43 -349h-70l43 349h-56l8 66h56l18 147h70l-18 -147h100z" />
    <glyph glyph-name="u" unicode="u" horiz-adv-x="482" 
d="M80 150q0 9 2 27l29 238h70l-28 -231q-2 -16 -2 -24q0 -49 26 -76.5t71 -27.5q55 0 87 33.5t40 94.5l28 231h70l-29 -238q-23 -186 -202 -186q-74 0 -118 43.5t-44 115.5z" />
    <glyph glyph-name="v" unicode="v" horiz-adv-x="426" 
d="M483 415l-271 -424l-167 424h78l104 -274l172 274h84z" />
    <glyph glyph-name="w" unicode="w" horiz-adv-x="601" 
d="M431 -9l-94 287l-169 -287l-116 424h75l66 -259l160 271l89 -272l131 260h78z" />
    <glyph glyph-name="x" unicode="x" horiz-adv-x="438" 
d="M285 207l132 -207h-78l-99 155l-135 -155h-84l183 211l-130 204h78l97 -152l133 152h84z" />
    <glyph glyph-name="y" unicode="y" horiz-adv-x="426" 
d="M483 415l-379 -593h-81l158 247l-136 346h75l107 -273l175 273h81z" />
    <glyph glyph-name="z" unicode="z" horiz-adv-x="419" 
d="M162 66h219l-8 -66h-352l281 349h-209l8 66h342z" />
    <glyph glyph-name="braceleft" unicode="{" horiz-adv-x="262" 
d="M92 -41q0 15 1 23l24 195l1 12q0 35 -28 35h-5l12 95h5q33 0 38 47l24 194q8 61 32 88.5t84 27.5h39l-7 -60h-38q-35 0 -40 -40l-27 -218q-4 -37 -18 -61t-33 -30q31 -14 31 -61q0 -14 -1 -21l-27 -219q-2 -20 5 -30t25 -10h38l-7 -60h-39q-42 0 -65.5 24t-23.5 69z" />
    <glyph glyph-name="bar" unicode="|" horiz-adv-x="246" 
d="M121 628h65v-762h-65v762z" />
    <glyph glyph-name="braceright" unicode="}" horiz-adv-x="262" 
d="M237 583q0 -15 -1 -23l-24 -195l-1 -12q0 -35 28 -35h5l-12 -95h-5q-33 0 -38 -47l-24 -194q-8 -61 -32 -88.5t-84 -27.5h-39l7 60h38q35 0 40 40l27 218q4 37 18 61t33 30q-31 14 -31 61q0 14 1 21l27 219q2 20 -5 30t-25 10h-38l7 60h39q42 0 65.5 -24t23.5 -69z" />
    <glyph glyph-name="asciitilde" unicode="~" horiz-adv-x="600" 
d="M251 260l-137 -83v80l137 84l162 -94l137 83v-80l-137 -84z" />
    <glyph glyph-name="uni00A0" unicode="&#xa0;" horiz-adv-x="200" 
 />
    <glyph glyph-name="exclamdown" unicode="&#xa1;" horiz-adv-x="292" 
d="M133 368q0 25 17.5 42t41.5 17q25 0 42 -17t17 -42q0 -24 -17 -41.5t-42 -17.5q-24 0 -41.5 17.5t-17.5 41.5zM139 223h72l-49 -401h-72z" />
    <glyph glyph-name="cent" unicode="&#xa2;" horiz-adv-x="463" 
d="M391 120l51 -45q-29 -36 -70.5 -57.5t-90.5 -25.5l-8 -71h-50l9 73q-46 7 -85 33.5t-62.5 69.5t-23.5 97q0 63 28.5 115.5t79.5 84t116 33.5l9 70h50l-9 -75q39 -8 72.5 -30.5t56.5 -56.5l-57 -42q-18 34 -50 51.5t-69 17.5q-43 0 -79 -22t-56.5 -59t-20.5 -80
q0 -47 19.5 -79.5t50 -49t64.5 -16.5q37 0 69.5 17.5t55.5 46.5z" />
    <glyph glyph-name="sterling" unicode="&#xa3;" horiz-adv-x="626" 
d="M259 66h278l-8 -66h-419l8 66h71l29 239h-71l7 56h71l9 73q12 97 64 150t140 53q65 0 110.5 -44t51.5 -114l-70 -14q-5 50 -30.5 78.5t-69.5 28.5q-51 0 -84.5 -36t-41.5 -102l-9 -73h199l-7 -56h-199z" />
    <glyph glyph-name="currency" unicode="&#xa4;" horiz-adv-x="523" 
d="M422 147l72 -72l-45 -45l-72 72q-41 -26 -87 -26t-87 26l-72 -72l-45 45l72 72q-27 40 -27 88t27 88l-72 72l45 45l72 -72q41 26 87 26q48 0 88 -27l72 73l45 -45l-72 -72q26 -41 26 -88t-27 -88zM290 138q40 0 67.5 28t27.5 69t-27.5 69t-67.5 28q-39 0 -67 -28t-28 -69
q0 -40 28 -68.5t67 -28.5z" />
    <glyph glyph-name="yen" unicode="&#xa5;" horiz-adv-x="588" 
d="M454 412h76l-7 -56h-110l-48 -66v-1h149l-6 -56h-150l-29 -233h-70l29 233h-150l6 56h150l-32 67h-109l7 56h75l-104 216h73l130 -273l197 273h80z" />
    <glyph glyph-name="brokenbar" unicode="&#xa6;" horiz-adv-x="246" 
d="M121 628h65v-331h-65v331zM121 197h65v-331h-65v331z" />
    <glyph glyph-name="section" unicode="&#xa7;" horiz-adv-x="498" 
d="M81 -84l55 31q17 -34 40 -54t64 -20q46 0 72 27t26 64t-22 62.5t-71 42.5q-130 45 -130 147q0 51 23.5 88.5t70.5 59.5q-31 25 -47.5 55t-16.5 71t22 74.5t60.5 53t85.5 19.5q57 0 98.5 -28t60.5 -75l-55 -31q-17 34 -40 54t-64 20q-46 0 -72 -26t-26 -63t22 -62.5
t71 -42.5q130 -45 130 -147q0 -51 -23.5 -88.5t-70.5 -59.5q31 -25 47.5 -55t16.5 -71t-22 -75t-60.5 -54t-85.5 -20q-56 0 -98 28t-61 75zM373 226q0 43 -26.5 69t-66.5 26q-41 0 -70.5 -26.5t-29.5 -68.5q0 -43 26.5 -69t66.5 -26q41 0 70.5 26.5t29.5 68.5z" />
    <glyph glyph-name="dieresis" unicode="&#xa8;" 
d="M175 555q0 21 14.5 35.5t34.5 14.5q21 0 35.5 -14.5t14.5 -35.5q0 -20 -14.5 -35t-35.5 -15q-20 0 -34.5 15t-14.5 35zM374 555q0 21 15 35.5t35 14.5q21 0 35 -14.5t14 -35.5t-14 -35.5t-35 -14.5q-20 0 -35 15t-15 35z" />
    <glyph glyph-name="copyright" unicode="&#xa9;" horiz-adv-x="749" 
d="M87 314q0 89 42.5 163t117 117t166.5 43t166.5 -43t117 -117t42.5 -163t-42.5 -163t-117 -117t-166.5 -43t-166.5 43t-117 117t-42.5 163zM679 314q0 75 -34 136t-94.5 96.5t-137.5 35.5t-137.5 -35.5t-94.5 -96.5t-34 -136t34 -136t94.5 -96.5t137.5 -35.5t137.5 35.5
t94.5 96.5t34 136zM255 314q0 46 22 83.5t60.5 59t85.5 21.5q40 0 74 -15.5t57 -43.5l-48 -39q-33 38 -83 38q-46 0 -75 -29t-29 -75t29 -75t75 -29q50 0 83 38l48 -39q-23 -28 -57 -43.5t-74 -15.5q-47 0 -85.5 21.5t-60.5 59t-22 83.5z" />
    <glyph glyph-name="ordfeminine" unicode="&#xaa;" horiz-adv-x="301" 
d="M342 513q0 -13 -1 -20l-22 -181h-63l3 26q-15 -13 -38 -22.5t-48 -9.5q-47 0 -78.5 27t-31.5 72q0 51 35.5 78.5t94.5 27.5q22 0 46 -6.5t40 -14.5l1 12q1 4 1 12q0 30 -18 46.5t-47 16.5q-21 0 -38 -7t-34 -21l-32 44q48 40 111 40q52 0 85.5 -33t33.5 -87zM267 397
l5 43q-32 20 -70 20q-35 0 -55.5 -13t-20.5 -37t16.5 -35.5t41.5 -11.5q52 0 83 34z" />
    <glyph glyph-name="guillemotleft" unicode="&#xab;" horiz-adv-x="447" 
d="M153 202l88 -177l-57 -34l-108 218l162 218l55 -38zM305 202l88 -177l-57 -34l-108 218l162 218l55 -38z" />
    <glyph glyph-name="logicalnot" unicode="&#xac;" horiz-adv-x="458" 
d="M433 201l-18 -147h-64l18 147h-294l8 67h358z" />
    <glyph glyph-name="uni00AD" unicode="&#xad;" horiz-adv-x="290" 
d="M69 277h220l-8 -67h-220z" />
    <glyph glyph-name="registered" unicode="&#xae;" horiz-adv-x="749" 
d="M739 314q0 -89 -42.5 -163t-117 -117t-166.5 -43t-166.5 43t-117 117t-42.5 163t42.5 163t117 117t166.5 43t166.5 -43t117 -117t42.5 -163zM679 314q0 75 -34 136t-94.5 96.5t-137.5 35.5t-137.5 -35.5t-94.5 -96.5t-34 -136t34 -136t94.5 -96.5t137.5 -35.5t137.5 35.5
t94.5 96.5t34 136zM472 295l110 -136h-75l-105 129h-31v-129h-64v310h124q43 0 68 -24t25 -66q0 -30 -14 -52t-38 -32zM371 350h51q38 0 38 29q0 30 -38 30h-51v-59z" />
    <glyph glyph-name="macron" unicode="&#xaf;" 
d="M187 586h280l-8 -62h-280z" />
    <glyph glyph-name="degree" unicode="&#xb0;" horiz-adv-x="423" 
d="M111 478q0 43 21.5 79.5t58 58t79.5 21.5t79.5 -21.5t58 -58t21.5 -79.5t-21.5 -79.5t-58 -58t-79.5 -21.5t-79.5 21.5t-58 58t-21.5 79.5zM365 478q0 41 -27.5 69t-67.5 28q-39 0 -67 -28t-28 -69q0 -40 28 -68.5t67 -28.5q40 0 67.5 28t27.5 69z" />
    <glyph glyph-name="plusminus" unicode="&#xb1;" horiz-adv-x="458" 
d="M451 348l-8 -67h-148l-8 -67h-64l8 67h-146l8 67h147l8 67h64l-8 -67h147zM73 188h358l-8 -67h-358z" />
    <glyph glyph-name="uni00B2" unicode="&#xb2;" horiz-adv-x="256" 
d="M193 469q4 4 18 20t21 29.5t7 26.5q0 16 -9 25t-26 9q-39 0 -59 -48l-55 17q16 40 46 62.5t72 22.5q39 0 63.5 -23.5t24.5 -59.5q0 -30 -13.5 -55t-45.5 -60l-61 -66h100l-7 -55h-219z" />
    <glyph glyph-name="uni00B3" unicode="&#xb3;" horiz-adv-x="251" 
d="M67 384l52 23q7 -21 22.5 -32t35.5 -11q21 0 34 13t13 31t-12.5 31t-35.5 13h-17l6 54h17q24 0 36.5 12.5t12.5 29.5q0 14 -10 22.5t-25 8.5q-16 0 -31 -8.5t-25 -25.5l-47 27q17 30 45 45.5t60 15.5q37 0 63 -22.5t26 -56.5q0 -29 -12.5 -50t-33.5 -31q19 -12 29 -27.5
t10 -39.5q0 -40 -27 -68t-78 -28q-41 0 -70.5 22.5t-37.5 51.5z" />
    <glyph glyph-name="acute" unicode="&#xb4;" 
d="M365 628h107l-149 -131h-77z" />
    <glyph glyph-name="paragraph" unicode="&#xb6;" horiz-adv-x="498" 
d="M260 262q-45 0 -80.5 23.5t-55 62.5t-19.5 84q0 53 26.5 97.5t74 71.5t107.5 27h182l-94 -762h-65l86 701h-60l-86 -701h-65z" />
    <glyph glyph-name="periodcentered" unicode="&#xb7;" horiz-adv-x="238" 
d="M90 244q0 25 17.5 42t41.5 17q25 0 42 -17t17 -42q0 -24 -17 -41.5t-42 -17.5q-24 0 -41.5 17.5t-17.5 41.5z" />
    <glyph glyph-name="cedilla" unicode="&#xb8;" horiz-adv-x="500" 
d="M138 -174l21 42q25 -10 61 -10q25 0 44.5 7.5t19.5 24.5t-28 17h-98l78 93h57l-45 -50l20 2q39 4 59.5 -13.5t20.5 -47.5q0 -38 -33.5 -58t-94.5 -20q-49 0 -82 13z" />
    <glyph glyph-name="uni00B9" unicode="&#xb9;" horiz-adv-x="178" 
d="M176 314h-57l32 259h-61l54 55h71z" />
    <glyph glyph-name="ordmasculine" unicode="&#xba;" horiz-adv-x="357" 
d="M70 457q0 50 22.5 90.5t62.5 63t89 22.5q70 0 114.5 -41t44.5 -110q0 -50 -22.5 -90t-62.5 -63t-89 -23q-69 0 -114 41.5t-45 109.5zM341 479q0 46 -27 72t-70 26q-49 0 -80.5 -33t-31.5 -84q0 -46 27 -72t70 -26q49 0 80.5 33.5t31.5 83.5z" />
    <glyph glyph-name="guillemotright" unicode="&#xbb;" horiz-adv-x="447" 
d="M271 209l-162 -218l-55 38l140 187l-88 177l57 34zM423 209l-162 -218l-55 38l140 187l-88 177l57 34z" />
    <glyph glyph-name="onequarter" unicode="&#xbc;" horiz-adv-x="559" 
d="M17 29l546 607l42 -38l-545 -607zM176 314h-57l32 259h-61l54 55h71zM530 105l-6 -51h-33l-7 -54h-56l7 54h-170l258 265l-26 -214h33zM441 105l10 74l-73 -74h63z" />
    <glyph glyph-name="onehalf" unicode="&#xbd;" horiz-adv-x="606" 
d="M17 29l546 607l42 -38l-545 -607zM176 314h-57l32 259h-61l54 55h71zM485 156q4 4 18 20t21 29.5t7 26.5q0 16 -9 25t-26 9q-39 0 -59 -48l-55 17q16 40 46 62.5t72 22.5q39 0 63.5 -23.5t24.5 -59.5q0 -30 -13.5 -55t-45.5 -60l-61 -66h100l-7 -55h-219z" />
    <glyph glyph-name="threequarters" unicode="&#xbe;" horiz-adv-x="593" 
d="M67 384l52 23q7 -21 22.5 -32t35.5 -11q21 0 34 13t13 31t-12.5 31t-35.5 13h-17l6 54h17q24 0 36.5 12.5t12.5 29.5q0 14 -10 22.5t-25 8.5q-16 0 -31 -8.5t-25 -25.5l-47 27q17 30 45 45.5t60 15.5q37 0 63 -22.5t26 -56.5q0 -29 -12.5 -50t-33.5 -31q19 -12 29 -27.5
t10 -39.5q0 -40 -27 -68t-78 -28q-41 0 -70.5 22.5t-37.5 51.5zM567 105l-6 -51h-33l-7 -54h-56l7 54h-170l258 265l-26 -214h33zM478 105l10 74l-73 -74h63zM54 29l546 607l42 -38l-545 -607z" />
    <glyph glyph-name="questiondown" unicode="&#xbf;" horiz-adv-x="440" 
d="M261 368q0 25 17.5 42t41.5 17q25 0 42 -17t17 -42q0 -24 -17 -41.5t-42 -17.5q-24 0 -41.5 17.5t-17.5 41.5zM42 -24q0 58 25.5 103.5t75.5 72.5t119 29l5 42h72l-13 -107h-40q-57 0 -96 -20t-57.5 -51t-18.5 -66q0 -50 33.5 -74.5t77.5 -24.5q72 0 124 76l54 -42
q-28 -45 -73.5 -73t-108.5 -28q-53 0 -94 21t-63 58.5t-22 83.5z" />
    <glyph glyph-name="Agrave" unicode="&#xc0;" horiz-adv-x="608" 
d="M463 178h-267l-103 -178h-83l372 637l216 -637h-75zM440 247l-75 221l-128 -221h203zM260 798h110l91 -111h-76z" />
    <glyph glyph-name="Aacute" unicode="&#xc1;" horiz-adv-x="608" 
d="M463 178h-267l-103 -178h-83l372 637l216 -637h-75zM440 247l-75 221l-128 -221h203zM434 798h112l-147 -111h-82z" />
    <glyph glyph-name="Acircumflex" unicode="&#xc2;" horiz-adv-x="608" 
d="M463 178h-267l-103 -178h-83l372 637l216 -637h-75zM440 247l-75 221l-128 -221h203zM463 687l-62 51l-74 -51h-107l184 121l154 -121h-95z" />
    <glyph glyph-name="Atilde" unicode="&#xc3;" horiz-adv-x="608" 
d="M463 178h-267l-103 -178h-83l372 637l216 -637h-75zM440 247l-75 221l-128 -221h203zM237 711q8 34 38 56.5t62 22.5q20 0 33.5 -4.5t28.5 -12.5l15 -8q20 -10 38 -10q29 0 46 38l57 -19q-8 -34 -38 -56.5t-62 -22.5q-20 0 -33.5 4.5t-28.5 12.5l-15 8q-20 10 -38 10
q-29 0 -46 -38z" />
    <glyph glyph-name="Adieresis" unicode="&#xc4;" horiz-adv-x="608" 
d="M463 178h-267l-103 -178h-83l372 637l216 -637h-75zM440 247l-75 221l-128 -221h203zM243 742q0 21 15.5 36t35.5 15q21 0 35.5 -15t14.5 -36q0 -20 -14.5 -35t-35.5 -15q-20 0 -35.5 15t-15.5 35zM448 742q0 21 15 36t35 15q21 0 36 -15t15 -36q0 -20 -15 -35t-36 -15
q-20 0 -35 15t-15 35z" />
    <glyph glyph-name="Aring" unicode="&#xc5;" horiz-adv-x="608" 
d="M463 178h-267l-103 -178h-83l372 637l216 -637h-75zM440 247l-75 221l-128 -221h203zM308 745q0 36 26 62t62 26t62 -26t26 -62t-26 -62t-62 -26t-62 26t-26 62zM442 745q0 19 -13.5 33t-32.5 14t-32.5 -14t-13.5 -33t13.5 -33t32.5 -14t32.5 14t13.5 33z" />
    <glyph glyph-name="AE" unicode="&#xc6;" horiz-adv-x="818" 
d="M772 0h-362l22 178h-222l-124 -178h-86l437 628h412l-9 -71h-287l-23 -188h197l-8 -71h-198l-28 -227h288zM440 247l39 318l-221 -318h182z" />
    <glyph glyph-name="Ccedilla" unicode="&#xc7;" horiz-adv-x="651" 
d="M79 283q0 103 47.5 184t126.5 125.5t170 44.5q73 0 139.5 -29t109.5 -85l-60 -47q-30 43 -79 66.5t-113 23.5q-72 0 -133 -38t-97 -100.5t-36 -134.5q0 -105 62.5 -168t169.5 -63q55 0 104.5 22.5t86.5 62.5l54 -51q-48 -50 -112.5 -77.5t-135.5 -27.5q-78 0 -147.5 32.5
t-113 98.5t-43.5 161zM239 -174l21 45q25 -10 61 -10q64 0 64 29q0 9 -6.5 12t-21.5 3h-98l78 95h62l-45 -50l20 2q39 4 59.5 -13.5t20.5 -47.5q0 -38 -36 -58t-97 -20q-49 0 -82 13z" />
    <glyph glyph-name="Egrave" unicode="&#xc8;" horiz-adv-x="483" 
d="M218 557l-23 -188h197l-8 -71h-197l-28 -227h287l-9 -71h-362l77 628h362l-9 -71h-287zM212 798h110l91 -111h-76z" />
    <glyph glyph-name="Eacute" unicode="&#xc9;" horiz-adv-x="483" 
d="M218 557l-23 -188h197l-8 -71h-197l-28 -227h287l-9 -71h-362l77 628h362l-9 -71h-287zM385 798h112l-147 -111h-82z" />
    <glyph glyph-name="Ecircumflex" unicode="&#xca;" horiz-adv-x="483" 
d="M218 557l-23 -188h197l-8 -71h-197l-28 -227h287l-9 -71h-362l77 628h362l-9 -71h-287zM415 687l-62 51l-74 -51h-107l184 121l154 -121h-95z" />
    <glyph glyph-name="Edieresis" unicode="&#xcb;" horiz-adv-x="483" 
d="M218 557l-23 -188h197l-8 -71h-197l-28 -227h287l-9 -71h-362l77 628h362l-9 -71h-287zM196 742q0 21 15.5 36t35.5 15q21 0 35.5 -15t14.5 -36q0 -20 -14.5 -35t-35.5 -15q-20 0 -35.5 15t-15.5 35zM401 742q0 21 15 36t35 15q21 0 36 -15t15 -36q0 -20 -15 -35t-36 -15
q-20 0 -35 15t-15 35z" />
    <glyph glyph-name="Igrave" unicode="&#xcc;" horiz-adv-x="225" 
d="M152 628h75l-77 -628h-75zM68 798h110l91 -111h-76z" />
    <glyph glyph-name="Iacute" unicode="&#xcd;" horiz-adv-x="225" 
d="M152 628h75l-77 -628h-75zM242 798h112l-147 -111h-82z" />
    <glyph glyph-name="Icircumflex" unicode="&#xce;" horiz-adv-x="225" 
d="M152 628h75l-77 -628h-75zM271 687l-62 51l-74 -51h-107l184 121l154 -121h-95z" />
    <glyph glyph-name="Idieresis" unicode="&#xcf;" horiz-adv-x="225" 
d="M45 742q0 22 16 37.5t37 15.5q22 0 37 -15.5t15 -37.5q0 -21 -15 -36.5t-37 -15.5q-21 0 -37 15.5t-16 36.5zM257 742q0 22 15.5 37.5t36.5 15.5q22 0 37.5 -15.5t15.5 -37.5q0 -21 -15.5 -36.5t-37.5 -15.5q-21 0 -36.5 15.5t-15.5 36.5zM152 628h75l-77 -628h-75z" />
    <glyph glyph-name="Eth" unicode="&#xd0;" horiz-adv-x="635" 
d="M633 345q0 -103 -47.5 -181.5t-126.5 -121t-170 -42.5h-214l37 298h-50l7 61h50l33 269h177q78 0 147.5 -30.5t113 -94t43.5 -158.5zM558 335q0 104 -62 163t-170 59h-108l-24 -198h108l-7 -61h-108l-28 -227h133q72 0 133 35.5t97 96.5t36 132z" />
    <glyph glyph-name="Ntilde" unicode="&#xd1;" horiz-adv-x="671" 
d="M207 462l-57 -462h-75l78 637l388 -471l57 462h75l-78 -637zM271 711q8 34 38 56.5t62 22.5q20 0 33.5 -4.5t28.5 -12.5l15 -8q20 -10 38 -10q29 0 46 38l57 -19q-8 -34 -38 -56.5t-62 -22.5q-20 0 -33.5 4.5t-28.5 12.5l-15 8q-20 10 -38 10q-29 0 -46 -38z" />
    <glyph glyph-name="Ograve" unicode="&#xd2;" horiz-adv-x="729" 
d="M79 283q0 103 47.5 184t126.5 125.5t170 44.5q78 0 147.5 -32.5t113 -98.5t43.5 -161q0 -103 -47.5 -184t-126.5 -125.5t-170 -44.5q-78 0 -147.5 32.5t-113 98.5t-43.5 161zM652 335q0 105 -62.5 168t-169.5 63q-72 0 -133 -38t-97 -100.5t-36 -134.5q0 -105 62.5 -168
t169.5 -63q72 0 133 38t97 100.5t36 134.5zM319 798h110l91 -111h-76z" />
    <glyph glyph-name="Oacute" unicode="&#xd3;" horiz-adv-x="729" 
d="M79 283q0 103 47.5 184t126.5 125.5t170 44.5q78 0 147.5 -32.5t113 -98.5t43.5 -161q0 -103 -47.5 -184t-126.5 -125.5t-170 -44.5q-78 0 -147.5 32.5t-113 98.5t-43.5 161zM652 335q0 105 -62.5 168t-169.5 63q-72 0 -133 -38t-97 -100.5t-36 -134.5q0 -105 62.5 -168
t169.5 -63q72 0 133 38t97 100.5t36 134.5zM493 798h112l-147 -111h-82z" />
    <glyph glyph-name="Ocircumflex" unicode="&#xd4;" horiz-adv-x="729" 
d="M79 283q0 103 47.5 184t126.5 125.5t170 44.5q78 0 147.5 -32.5t113 -98.5t43.5 -161q0 -103 -47.5 -184t-126.5 -125.5t-170 -44.5q-78 0 -147.5 32.5t-113 98.5t-43.5 161zM652 335q0 105 -62.5 168t-169.5 63q-72 0 -133 -38t-97 -100.5t-36 -134.5q0 -105 62.5 -168
t169.5 -63q72 0 133 38t97 100.5t36 134.5zM522 687l-62 51l-74 -51h-107l184 121l154 -121h-95z" />
    <glyph glyph-name="Otilde" unicode="&#xd5;" horiz-adv-x="729" 
d="M79 283q0 103 47.5 184t126.5 125.5t170 44.5q78 0 147.5 -32.5t113 -98.5t43.5 -161q0 -103 -47.5 -184t-126.5 -125.5t-170 -44.5q-78 0 -147.5 32.5t-113 98.5t-43.5 161zM652 335q0 105 -62.5 168t-169.5 63q-72 0 -133 -38t-97 -100.5t-36 -134.5q0 -105 62.5 -168
t169.5 -63q72 0 133 38t97 100.5t36 134.5zM296 711q8 34 38 56.5t62 22.5q20 0 33.5 -4.5t28.5 -12.5l15 -8q20 -10 38 -10q29 0 46 38l57 -19q-8 -34 -38 -56.5t-62 -22.5q-20 0 -33.5 4.5t-28.5 12.5l-15 8q-20 10 -38 10q-29 0 -46 -38z" />
    <glyph glyph-name="Odieresis" unicode="&#xd6;" horiz-adv-x="729" 
d="M79 283q0 103 47.5 184t126.5 125.5t170 44.5q78 0 147.5 -32.5t113 -98.5t43.5 -161q0 -103 -47.5 -184t-126.5 -125.5t-170 -44.5q-78 0 -147.5 32.5t-113 98.5t-43.5 161zM652 335q0 105 -62.5 168t-169.5 63q-72 0 -133 -38t-97 -100.5t-36 -134.5q0 -105 62.5 -168
t169.5 -63q72 0 133 38t97 100.5t36 134.5zM302 742q0 21 15.5 36t35.5 15q21 0 35.5 -15t14.5 -36q0 -20 -14.5 -35t-35.5 -15q-20 0 -35.5 15t-15.5 35zM507 742q0 21 15 36t35 15q21 0 36 -15t15 -36q0 -20 -15 -35t-36 -15q-20 0 -35 15t-15 35z" />
    <glyph glyph-name="multiply" unicode="&#xd7;" horiz-adv-x="458" 
d="M303 230l98 -112l-47 -44l-99 113l-132 -117l-42 48l132 117l-102 116l47 44l103 -117l131 117l42 -48z" />
    <glyph glyph-name="Oslash" unicode="&#xd8;" horiz-adv-x="729" 
d="M676 517q51 -70 51 -172q0 -103 -47.5 -184t-126.5 -125.5t-170 -44.5q-59 0 -115 19.5t-98 56.5l-85 -76l-39 44l85 75q-52 73 -52 173q0 103 47.5 184t126.5 125.5t170 44.5q59 0 114.5 -19.5t98.5 -56.5l87 77l39 -44zM188 161l393 350q-63 55 -161 55q-72 0 -133 -38
t-97 -100.5t-36 -134.5q0 -76 34 -132zM618 466l-392 -350q62 -54 160 -54q72 0 133 38t97 100.5t36 134.5q0 75 -34 131z" />
    <glyph glyph-name="Ugrave" unicode="&#xd9;" horiz-adv-x="642" 
d="M92 227q0 20 3 41l44 360h75l-43 -354q-3 -22 -3 -42q0 -80 41.5 -125t119.5 -45q87 0 142.5 58.5t67.5 153.5l43 354h75l-45 -365q-16 -129 -92.5 -200.5t-197.5 -71.5q-69 0 -121.5 30t-80.5 83.5t-28 122.5zM278 798h110l91 -111h-76z" />
    <glyph glyph-name="Uacute" unicode="&#xda;" horiz-adv-x="642" 
d="M92 227q0 20 3 41l44 360h75l-43 -354q-3 -22 -3 -42q0 -80 41.5 -125t119.5 -45q87 0 142.5 58.5t67.5 153.5l43 354h75l-45 -365q-16 -129 -92.5 -200.5t-197.5 -71.5q-69 0 -121.5 30t-80.5 83.5t-28 122.5zM451 798h112l-147 -111h-82z" />
    <glyph glyph-name="Ucircumflex" unicode="&#xdb;" horiz-adv-x="642" 
d="M92 227q0 20 3 41l44 360h75l-43 -354q-3 -22 -3 -42q0 -80 41.5 -125t119.5 -45q87 0 142.5 58.5t67.5 153.5l43 354h75l-45 -365q-16 -129 -92.5 -200.5t-197.5 -71.5q-69 0 -121.5 30t-80.5 83.5t-28 122.5zM480 687l-62 51l-74 -51h-107l184 121l154 -121h-95z" />
    <glyph glyph-name="Udieresis" unicode="&#xdc;" horiz-adv-x="642" 
d="M92 227q0 20 3 41l44 360h75l-43 -354q-3 -22 -3 -42q0 -80 41.5 -125t119.5 -45q87 0 142.5 58.5t67.5 153.5l43 354h75l-45 -365q-16 -129 -92.5 -200.5t-197.5 -71.5q-69 0 -121.5 30t-80.5 83.5t-28 122.5zM260 742q0 21 15.5 36t35.5 15q21 0 35.5 -15t14.5 -36
q0 -20 -14.5 -35t-35.5 -15q-20 0 -35.5 15t-15.5 35zM465 742q0 21 15 36t35 15q21 0 36 -15t15 -36q0 -20 -15 -35t-36 -15q-20 0 -35 15t-15 35z" />
    <glyph glyph-name="Yacute" unicode="&#xdd;" horiz-adv-x="525" 
d="M336 290l-36 -290h-75l36 289h-1l-173 339h80l136 -267l202 267h87zM392 798h112l-147 -111h-82z" />
    <glyph glyph-name="Thorn" unicode="&#xde;" horiz-adv-x="512" 
d="M532 353q0 -94 -58 -148t-172 -54h-133l-19 -151h-75l77 628h75l-14 -112h124q93 0 144 -43t51 -120zM456 346q0 54 -29 76.5t-88 22.5h-134l-28 -223h135q67 0 105.5 35.5t38.5 88.5z" />
    <glyph glyph-name="germandbls" unicode="&#xdf;" horiz-adv-x="476" 
d="M171 0l22 64q24 -8 64 -8q43 0 73.5 19.5t46.5 51.5t16 67q0 59 -40.5 94.5t-105.5 35.5h-27l8 66h10q50 0 82.5 18.5t47.5 47t15 57.5q0 34 -20 56.5t-58 22.5q-43 0 -71 -27t-33 -70l-61 -495h-70l61 495q10 79 56.5 120.5t125.5 41.5q39 0 71 -17.5t51 -48t19 -68.5
q0 -53 -24.5 -96t-76.5 -69q50 -16 80 -58.5t30 -103.5q0 -92 -55.5 -148.5t-161.5 -56.5q-26 0 -41.5 2t-33.5 7z" />
    <glyph glyph-name="agrave" unicode="&#xe0;" horiz-adv-x="456" 
d="M426 273q0 -9 -2 -29l-30 -244h-70l5 42q-22 -21 -58.5 -36t-79.5 -15q-58 0 -96 36.5t-38 92.5q0 42 22 76t63.5 53.5t96.5 19.5q59 0 114 -33l2 14q1 7 1 20q0 42 -22.5 68t-65.5 26q-35 0 -65.5 -15t-51.5 -38l-46 41q28 33 73 54t99 21q69 0 109 -43t40 -111z
M338 116l8 58q-44 34 -112 34q-30 0 -54 -12t-38 -31t-14 -39q0 -33 21.5 -51.5t59.5 -18.5q35 0 70.5 17t58.5 43zM164 628h107l87 -131h-72z" />
    <glyph glyph-name="aacute" unicode="&#xe1;" horiz-adv-x="456" 
d="M426 273q0 -9 -2 -29l-30 -244h-70l5 42q-22 -21 -58.5 -36t-79.5 -15q-58 0 -96 36.5t-38 92.5q0 42 22 76t63.5 53.5t96.5 19.5q59 0 114 -33l2 14q1 7 1 20q0 42 -22.5 68t-65.5 26q-35 0 -65.5 -15t-51.5 -38l-46 41q28 33 73 54t99 21q69 0 109 -43t40 -111z
M338 116l8 58q-44 34 -112 34q-30 0 -54 -12t-38 -31t-14 -39q0 -33 21.5 -51.5t59.5 -18.5q35 0 70.5 17t58.5 43zM338 628h107l-149 -131h-77z" />
    <glyph glyph-name="acircumflex" unicode="&#xe2;" horiz-adv-x="456" 
d="M426 273q0 -9 -2 -29l-30 -244h-70l5 42q-22 -21 -58.5 -36t-79.5 -15q-58 0 -96 36.5t-38 92.5q0 42 22 76t63.5 53.5t96.5 19.5q59 0 114 -33l2 14q1 7 1 20q0 42 -22.5 68t-65.5 26q-35 0 -65.5 -15t-51.5 -38l-46 41q28 33 73 54t99 21q69 0 109 -43t40 -111z
M338 116l8 58q-44 34 -112 34q-30 0 -54 -12t-38 -31t-14 -39q0 -33 21.5 -51.5t59.5 -18.5q35 0 70.5 17t58.5 43zM363 497l-60 63l-76 -63h-101l181 140l147 -140h-91z" />
    <glyph glyph-name="atilde" unicode="&#xe3;" horiz-adv-x="456" 
d="M426 273q0 -9 -2 -29l-30 -244h-70l5 42q-22 -21 -58.5 -36t-79.5 -15q-58 0 -96 36.5t-38 92.5q0 42 22 76t63.5 53.5t96.5 19.5q59 0 114 -33l2 14q1 7 1 20q0 42 -22.5 68t-65.5 26q-35 0 -65.5 -15t-51.5 -38l-46 41q28 33 73 54t99 21q69 0 109 -43t40 -111z
M338 116l8 58q-44 34 -112 34q-30 0 -54 -12t-38 -31t-14 -39q0 -33 21.5 -51.5t59.5 -18.5q35 0 70.5 17t58.5 43zM143 531q8 34 38 56.5t62 22.5q20 0 33.5 -4.5t28.5 -12.5l15 -8q20 -10 38 -10q29 0 46 38l57 -19q-8 -34 -38 -56.5t-62 -22.5q-20 0 -33.5 4.5
t-28.5 12.5l-15 8q-20 10 -38 10q-29 0 -46 -38z" />
    <glyph glyph-name="adieresis" unicode="&#xe4;" horiz-adv-x="456" 
d="M426 273q0 -9 -2 -29l-30 -244h-70l5 42q-22 -21 -58.5 -36t-79.5 -15q-58 0 -96 36.5t-38 92.5q0 42 22 76t63.5 53.5t96.5 19.5q59 0 114 -33l2 14q1 7 1 20q0 42 -22.5 68t-65.5 26q-35 0 -65.5 -15t-51.5 -38l-46 41q28 33 73 54t99 21q69 0 109 -43t40 -111z
M338 116l8 58q-44 34 -112 34q-30 0 -54 -12t-38 -31t-14 -39q0 -33 21.5 -51.5t59.5 -18.5q35 0 70.5 17t58.5 43zM148 555q0 21 14.5 35.5t34.5 14.5q21 0 35.5 -14.5t14.5 -35.5q0 -20 -14.5 -35t-35.5 -15q-20 0 -34.5 15t-14.5 35zM347 555q0 21 15 35.5t35 14.5
q21 0 35 -14.5t14 -35.5t-14 -35.5t-35 -14.5q-20 0 -35 15t-15 35z" />
    <glyph glyph-name="aring" unicode="&#xe5;" horiz-adv-x="456" 
d="M426 273q0 -9 -2 -29l-30 -244h-70l5 42q-22 -21 -58.5 -36t-79.5 -15q-58 0 -96 36.5t-38 92.5q0 42 22 76t63.5 53.5t96.5 19.5q59 0 114 -33l2 14q1 7 1 20q0 42 -22.5 68t-65.5 26q-35 0 -65.5 -15t-51.5 -38l-46 41q28 33 73 54t99 21q69 0 109 -43t40 -111z
M338 116l8 58q-44 34 -112 34q-30 0 -54 -12t-38 -31t-14 -39q0 -33 21.5 -51.5t59.5 -18.5q35 0 70.5 17t58.5 43zM210 569q0 36 26 62t62 26t62 -26t26 -62t-26 -62t-62 -26t-62 26t-26 62zM346 569q0 20 -14 34.5t-34 14.5t-34 -14.5t-14 -34.5t14 -34.5t34 -14.5
t34 14.5t14 34.5z" />
    <glyph glyph-name="ae" unicode="&#xe6;" horiz-adv-x="771" 
d="M765 228q0 -10 -2 -32h-343q1 -67 41.5 -103.5t94.5 -36.5q37 0 68.5 17.5t54.5 46.5l51 -45q-32 -39 -78 -61.5t-101 -22.5q-46 0 -90 21.5t-73 60.5q-32 -37 -74 -59.5t-103 -22.5q-72 0 -113 35.5t-41 93.5q0 42 22 76t63.5 53.5t96.5 19.5q60 0 113 -32l3 16
q1 6 1 18q0 41 -22.5 67t-65.5 26q-35 0 -65.5 -15t-51.5 -38l-46 41q28 33 73 54t99 21q45 0 78.5 -19t51.5 -53q31 34 75 53t99 19q47 0 89.5 -24t68.5 -69.5t26 -105.5zM428 255h264q-7 50 -41 78.5t-81 28.5q-54 0 -91 -29.5t-51 -77.5zM339 117l7 57q-44 34 -112 34
q-30 0 -54 -12t-38 -31t-14 -39q0 -33 23.5 -51.5t60.5 -18.5q75 0 127 61z" />
    <glyph glyph-name="ccedilla" unicode="&#xe7;" horiz-adv-x="463" 
d="M64 194q0 64 29.5 117t82.5 84.5t120 31.5q50 0 96 -24.5t75 -67.5l-57 -42q-18 34 -50 51.5t-69 17.5q-43 0 -79 -22t-56.5 -59t-20.5 -80q0 -47 19.5 -79.5t50 -49t64.5 -16.5q37 0 69.5 17.5t55.5 46.5l51 -45q-32 -39 -78 -61.5t-101 -22.5q-50 0 -97 25t-76 71.5
t-29 106.5zM139 -174l21 42q25 -10 61 -10q25 0 44.5 7.5t19.5 24.5t-28 17h-98l78 93h57l-45 -50l20 2q39 4 59.5 -13.5t20.5 -47.5q0 -38 -33.5 -58t-94.5 -20q-49 0 -82 13z" />
    <glyph glyph-name="egrave" unicode="&#xe8;" horiz-adv-x="486" 
d="M480 228q0 -10 -2 -32h-343q1 -67 41.5 -103.5t94.5 -36.5q37 0 68.5 17.5t54.5 46.5l51 -45q-32 -39 -78 -61.5t-101 -22.5q-50 0 -97 25t-76 71.5t-29 106.5q0 65 28 118t80.5 84t123.5 31q47 0 89.5 -24t68.5 -69.5t26 -105.5zM143 255h264q-7 50 -41 78.5t-81 28.5
q-54 0 -91 -29.5t-51 -77.5zM193 628h107l87 -131h-72z" />
    <glyph glyph-name="eacute" unicode="&#xe9;" horiz-adv-x="486" 
d="M480 228q0 -10 -2 -32h-343q1 -67 41.5 -103.5t94.5 -36.5q37 0 68.5 17.5t54.5 46.5l51 -45q-32 -39 -78 -61.5t-101 -22.5q-50 0 -97 25t-76 71.5t-29 106.5q0 65 28 118t80.5 84t123.5 31q47 0 89.5 -24t68.5 -69.5t26 -105.5zM143 255h264q-7 50 -41 78.5t-81 28.5
q-54 0 -91 -29.5t-51 -77.5zM366 628h107l-149 -131h-77z" />
    <glyph glyph-name="ecircumflex" unicode="&#xea;" horiz-adv-x="486" 
d="M480 228q0 -10 -2 -32h-343q1 -67 41.5 -103.5t94.5 -36.5q37 0 68.5 17.5t54.5 46.5l51 -45q-32 -39 -78 -61.5t-101 -22.5q-50 0 -97 25t-76 71.5t-29 106.5q0 65 28 118t80.5 84t123.5 31q47 0 89.5 -24t68.5 -69.5t26 -105.5zM143 255h264q-7 50 -41 78.5t-81 28.5
q-54 0 -91 -29.5t-51 -77.5zM390 497l-60 63l-76 -63h-101l181 140l147 -140h-91z" />
    <glyph glyph-name="edieresis" unicode="&#xeb;" horiz-adv-x="486" 
d="M480 228q0 -10 -2 -32h-343q1 -67 41.5 -103.5t94.5 -36.5q37 0 68.5 17.5t54.5 46.5l51 -45q-32 -39 -78 -61.5t-101 -22.5q-50 0 -97 25t-76 71.5t-29 106.5q0 65 28 118t80.5 84t123.5 31q47 0 89.5 -24t68.5 -69.5t26 -105.5zM143 255h264q-7 50 -41 78.5t-81 28.5
q-54 0 -91 -29.5t-51 -77.5zM175 555q0 21 14.5 35.5t34.5 14.5q21 0 35.5 -14.5t14.5 -35.5q0 -20 -14.5 -35t-35.5 -15q-20 0 -34.5 15t-14.5 35zM374 555q0 21 15 35.5t35 14.5q21 0 35 -14.5t14 -35.5t-14 -35.5t-35 -14.5q-20 0 -35 15t-15 35z" />
    <glyph glyph-name="igrave" unicode="&#xec;" horiz-adv-x="210" 
d="M121 415h70l-51 -415h-70zM43 628h107l87 -131h-72z" />
    <glyph glyph-name="iacute" unicode="&#xed;" horiz-adv-x="210" 
d="M121 415h70l-51 -415h-70zM216 628h107l-149 -131h-77z" />
    <glyph glyph-name="icircumflex" unicode="&#xee;" horiz-adv-x="210" 
d="M300 497h-85l-40 51l-52 -51h-91l151 140zM121 415h70l-51 -415h-70z" />
    <glyph glyph-name="idieresis" unicode="&#xef;" horiz-adv-x="210" 
d="M42 555q0 21 15 35.5t35 14.5q21 0 35.5 -14.5t14.5 -35.5q0 -20 -14.5 -35t-35.5 -15q-20 0 -35 15t-15 35zM204 555q0 21 15 35.5t35 14.5q21 0 35.5 -14.5t14.5 -35.5q0 -20 -14.5 -35t-35.5 -15q-20 0 -35 15t-15 35zM121 415h70l-51 -415h-70z" />
    <glyph glyph-name="eth" unicode="&#xf0;" 
d="M500 245q0 -72 -29.5 -130t-82.5 -91t-122 -33q-50 0 -97 25t-76 71.5t-29 106.5q0 64 30 117.5t82.5 85t119.5 31.5q62 0 116 -37q-25 71 -74 117l-120 -57l-26 53l93 45q-38 22 -84 38l28 63q76 -24 130 -66l102 49l26 -54l-81 -39q94 -106 94 -295zM427 218
q-1 70 -40.5 107t-93.5 37q-44 0 -80 -22t-57 -59t-21 -80q0 -47 19.5 -80t50.5 -49t66 -16q43 1 78.5 23.5t56.5 59.5t21 79z" />
    <glyph glyph-name="ntilde" unicode="&#xf1;" horiz-adv-x="503" 
d="M473 275q0 -9 -2 -29l-30 -246h-70l30 245q1 8 1 23q0 46 -24 70t-68 24q-36 0 -76.5 -23t-59.5 -64l-34 -275h-70l51 415h70l-6 -49q21 26 59 43.5t78 17.5q69 0 110 -41t41 -111zM175 532q8 34 38 56.5t62 22.5q20 0 33.5 -4.5t28.5 -12.5l15 -8q20 -10 38 -10
q29 0 46 38l57 -19q-8 -34 -38 -56.5t-62 -22.5q-20 0 -33.5 4.5t-28.5 12.5l-15 8q-20 10 -38 10q-29 0 -46 -38z" />
    <glyph glyph-name="ograve" unicode="&#xf2;" 
d="M64 194q0 64 30 117.5t82.5 84.5t119.5 31q50 0 96.5 -25t76 -71t29.5 -106q0 -64 -30 -117.5t-83 -85t-119 -31.5q-50 0 -97 25t-76 71.5t-29 106.5zM427 218q0 47 -20 79.5t-51.5 48.5t-65.5 16q-43 0 -78.5 -22t-56 -59t-20.5 -80q0 -47 19.5 -79.5t50.5 -48.5t66 -16
q43 0 78.5 22.5t56.5 59.5t21 79zM193 628h107l87 -131h-72z" />
    <glyph glyph-name="oacute" unicode="&#xf3;" 
d="M64 194q0 64 30 117.5t82.5 84.5t119.5 31q50 0 96.5 -25t76 -71t29.5 -106q0 -64 -30 -117.5t-83 -85t-119 -31.5q-50 0 -97 25t-76 71.5t-29 106.5zM427 218q0 47 -20 79.5t-51.5 48.5t-65.5 16q-43 0 -78.5 -22t-56 -59t-20.5 -80q0 -47 19.5 -79.5t50.5 -48.5t66 -16
q43 0 78.5 22.5t56.5 59.5t21 79zM365 628h107l-149 -131h-77z" />
    <glyph glyph-name="ocircumflex" unicode="&#xf4;" 
d="M64 194q0 64 30 117.5t82.5 84.5t119.5 31q50 0 96.5 -25t76 -71t29.5 -106q0 -64 -30 -117.5t-83 -85t-119 -31.5q-50 0 -97 25t-76 71.5t-29 106.5zM427 218q0 47 -20 79.5t-51.5 48.5t-65.5 16q-43 0 -78.5 -22t-56 -59t-20.5 -80q0 -47 19.5 -79.5t50.5 -48.5t66 -16
q43 0 78.5 22.5t56.5 59.5t21 79zM389 497l-60 63l-76 -63h-101l181 140l147 -140h-91z" />
    <glyph glyph-name="otilde" unicode="&#xf5;" 
d="M64 194q0 64 30 117.5t82.5 84.5t119.5 31q50 0 96.5 -25t76 -71t29.5 -106q0 -64 -30 -117.5t-83 -85t-119 -31.5q-50 0 -97 25t-76 71.5t-29 106.5zM427 218q0 47 -20 79.5t-51.5 48.5t-65.5 16q-43 0 -78.5 -22t-56 -59t-20.5 -80q0 -47 19.5 -79.5t50.5 -48.5t66 -16
q43 0 78.5 22.5t56.5 59.5t21 79zM166 530q8 34 38 56.5t62 22.5q20 0 33.5 -4.5t28.5 -12.5l15 -8q20 -10 38 -10q29 0 46 38l57 -19q-8 -34 -38 -56.5t-62 -22.5q-20 0 -33.5 4.5t-28.5 12.5l-15 8q-20 10 -38 10q-29 0 -46 -38z" />
    <glyph glyph-name="odieresis" unicode="&#xf6;" 
d="M64 194q0 64 30 117.5t82.5 84.5t119.5 31q50 0 96.5 -25t76 -71t29.5 -106q0 -64 -30 -117.5t-83 -85t-119 -31.5q-50 0 -97 25t-76 71.5t-29 106.5zM427 218q0 47 -20 79.5t-51.5 48.5t-65.5 16q-43 0 -78.5 -22t-56 -59t-20.5 -80q0 -47 19.5 -79.5t50.5 -48.5t66 -16
q43 0 78.5 22.5t56.5 59.5t21 79zM175 555q0 21 14.5 35.5t34.5 14.5q21 0 35.5 -14.5t14.5 -35.5q0 -20 -14.5 -35t-35.5 -15q-20 0 -34.5 15t-14.5 35zM374 555q0 21 15 35.5t35 14.5q21 0 35 -14.5t14 -35.5t-14 -35.5t-35 -14.5q-20 0 -35 15t-15 35z" />
    <glyph glyph-name="divide" unicode="&#xf7;" horiz-adv-x="457" 
d="M220 367q0 22 15.5 37.5t37.5 15.5q23 0 38 -15t15 -38q0 -22 -15.5 -37.5t-37.5 -15.5t-37.5 15.5t-15.5 37.5zM83 268h358l-8 -67h-358zM188 102q0 22 15.5 37.5t37.5 15.5q23 0 38 -15t15 -38q0 -22 -15.5 -37.5t-37.5 -15.5t-37.5 15.5t-15.5 37.5z" />
    <glyph glyph-name="oslash" unicode="&#xf8;" 
d="M466 336q32 -52 32 -111q0 -64 -30 -117.5t-83 -85t-119 -31.5q-36 0 -69.5 12.5t-61.5 36.5l-55 -49l-38 43l54 49q-32 48 -32 111q0 64 30 117.5t82.5 84.5t119.5 31q35 0 69.5 -12.5t61.5 -36.5l57 51l38 -43zM150 130l226 203q-36 29 -86 29q-43 0 -78.5 -22t-56 -59
t-20.5 -80q0 -41 15 -71zM412 288l-226 -202q35 -29 85 -29q43 0 78.5 22.5t56.5 59.5t21 79q0 38 -15 70z" />
    <glyph glyph-name="ugrave" unicode="&#xf9;" horiz-adv-x="482" 
d="M80 150q0 9 2 27l29 238h70l-28 -231q-2 -16 -2 -24q0 -49 26 -76.5t71 -27.5q55 0 87 33.5t40 94.5l28 231h70l-29 -238q-23 -186 -202 -186q-74 0 -118 43.5t-44 115.5zM179 628h107l87 -131h-72z" />
    <glyph glyph-name="uacute" unicode="&#xfa;" horiz-adv-x="482" 
d="M80 150q0 9 2 27l29 238h70l-28 -231q-2 -16 -2 -24q0 -49 26 -76.5t71 -27.5q55 0 87 33.5t40 94.5l28 231h70l-29 -238q-23 -186 -202 -186q-74 0 -118 43.5t-44 115.5zM352 628h107l-149 -131h-77z" />
    <glyph glyph-name="ucircumflex" unicode="&#xfb;" horiz-adv-x="482" 
d="M80 150q0 9 2 27l29 238h70l-28 -231q-2 -16 -2 -24q0 -49 26 -76.5t71 -27.5q55 0 87 33.5t40 94.5l28 231h70l-29 -238q-23 -186 -202 -186q-74 0 -118 43.5t-44 115.5zM377 497l-60 63l-76 -63h-101l181 140l147 -140h-91z" />
    <glyph glyph-name="udieresis" unicode="&#xfc;" horiz-adv-x="482" 
d="M80 150q0 9 2 27l29 238h70l-28 -231q-2 -16 -2 -24q0 -49 26 -76.5t71 -27.5q55 0 87 33.5t40 94.5l28 231h70l-29 -238q-23 -186 -202 -186q-74 0 -118 43.5t-44 115.5zM162 555q0 21 14.5 35.5t34.5 14.5q21 0 35.5 -14.5t14.5 -35.5q0 -20 -14.5 -35t-35.5 -15
q-20 0 -34.5 15t-14.5 35zM361 555q0 21 15 35.5t35 14.5q21 0 35 -14.5t14 -35.5t-14 -35.5t-35 -14.5q-20 0 -35 15t-15 35z" />
    <glyph glyph-name="yacute" unicode="&#xfd;" horiz-adv-x="426" 
d="M483 415l-379 -593h-81l158 247l-136 346h75l107 -273l175 273h81zM323 628h107l-149 -131h-77z" />
    <glyph glyph-name="thorn" unicode="&#xfe;" horiz-adv-x="530" 
d="M516 230q0 -68 -29 -122.5t-79.5 -85.5t-112.5 -31q-44 0 -86 20t-61 50l-29 -239h-70l101 826h70l-34 -276q25 24 62.5 39.5t79.5 15.5q45 0 88 -22t71.5 -66.5t28.5 -108.5zM446 222q0 70 -37.5 105t-92.5 35q-41 0 -80.5 -21t-60.5 -60l-16 -131q14 -47 53 -70.5
t77 -23.5q43 0 79 21t57 58.5t21 86.5z" />
    <glyph glyph-name="ydieresis" unicode="&#xff;" horiz-adv-x="426" 
d="M483 415l-379 -593h-81l158 247l-136 346h75l107 -273l175 273h81zM134 555q0 21 14.5 35.5t34.5 14.5q21 0 35.5 -14.5t14.5 -35.5q0 -20 -14.5 -35t-35.5 -15q-20 0 -34.5 15t-14.5 35zM333 555q0 21 15 35.5t35 14.5q21 0 35 -14.5t14 -35.5t-14 -35.5t-35 -14.5
q-20 0 -35 15t-15 35z" />
    <glyph glyph-name="OE" unicode="&#x152;" horiz-adv-x="1021" 
d="M79 283q0 103 47.5 184t126.5 125.5t170 44.5q78 0 147.5 -32.5t113 -98.5t43.5 -161q0 -103 -47.5 -184t-126.5 -125.5t-170 -44.5q-78 0 -147.5 32.5t-113 98.5t-43.5 161zM652 335q0 105 -62.5 168t-169.5 63q-72 0 -133 -38t-97 -100.5t-36 -134.5q0 -105 62.5 -168
t169.5 -63q72 0 133 38t97 100.5t36 134.5zM756 557l-23 -188h197l-8 -71h-197l-28 -227h287l-9 -71h-362l77 628h362l-9 -71h-287z" />
    <glyph glyph-name="Ydieresis" unicode="&#x178;" horiz-adv-x="525" 
d="M336 290l-36 -290h-75l36 289h-1l-173 339h80l136 -267l202 267h87zM202 742q0 21 15.5 36t35.5 15q21 0 35.5 -15t14.5 -36q0 -20 -14.5 -35t-35.5 -15q-20 0 -35.5 15t-15.5 35zM407 742q0 21 15 36t35 15q21 0 36 -15t15 -36q0 -20 -15 -35t-36 -15q-20 0 -35 15
t-15 35z" />
    <glyph glyph-name="dotlessi" unicode="&#x131;" horiz-adv-x="210" 
d="M121 415h70l-51 -415h-70z" />
    <glyph glyph-name="uni0237" unicode="&#x237;" horiz-adv-x="210" 
d="M-63 -173l23 63q15 -7 40 -7q19 0 39.5 14.5t24.5 46.5l57 471h70l-57 -463q-8 -70 -49 -102t-97 -32q-27 0 -51 9z" />
    <glyph glyph-name="oe" unicode="&#x153;" horiz-adv-x="848" 
d="M64 194q0 64 30 117.5t82.5 84.5t119.5 31q50 0 96.5 -25t76 -71t29.5 -106q0 -64 -30 -117.5t-83 -85t-119 -31.5q-50 0 -97 25t-76 71.5t-29 106.5zM427 218q0 47 -20 79.5t-51.5 48.5t-65.5 16q-43 0 -78.5 -22t-56 -59t-20.5 -80q0 -47 19.5 -79.5t50.5 -48.5t66 -16
q43 0 78.5 22.5t56.5 59.5t21 79zM843 228q0 -10 -2 -32h-343q1 -67 41.5 -103.5t94.5 -36.5q37 0 68.5 17.5t54.5 46.5l51 -45q-32 -39 -78 -61.5t-101 -22.5q-50 0 -97 25t-76 71.5t-29 106.5q0 65 28 118t80.5 84t123.5 31q47 0 89.5 -24t68.5 -69.5t26 -105.5zM506 255
h264q-7 50 -41 78.5t-81 28.5q-54 0 -91 -29.5t-51 -77.5z" />
    <glyph glyph-name="uni20BD" unicode="&#x20bd;" horiz-adv-x="583" 
d="M260 300l-8 -67h134l-7 -56h-134l-22 -177h-70l22 177h-71l7 56h71l8 67h-71l8 66h71l32 262h156q81 0 131 -41.5t50 -109.5q0 -80 -55.5 -128.5t-162.5 -48.5h-89zM268 366h94q42 0 72 15.5t45.5 40.5t15.5 52q0 42 -28.5 65.5t-80.5 23.5h-94z" />
    <glyph glyph-name="mu" unicode="&#xb5;" horiz-adv-x="492" 
d="M121 415h70l-28 -231q-2 -16 -2 -24q0 -49 26 -76.5t71 -27.5q55 0 87 33.5t40 94.5l28 231h70l-29 -238q-23 -186 -202 -186q-70 0 -108 42l-26 -211h-70z" />
    <glyph glyph-name="ellipsis" unicode="&#x2026;" horiz-adv-x="535" 
d="M38 50q0 25 17.5 42t41.5 17q25 0 42 -17t17 -42q0 -24 -17 -41.5t-42 -17.5q-24 0 -41.5 17.5t-17.5 41.5zM215 50q0 25 17.5 42t41.5 17q25 0 42 -17t17 -42q0 -24 -17 -41.5t-42 -17.5q-24 0 -41.5 17.5t-17.5 41.5zM393 50q0 25 17.5 42t41.5 17q25 0 42 -17t17 -42
q0 -24 -17 -41.5t-42 -17.5q-24 0 -41.5 17.5t-17.5 41.5z" />
    <glyph glyph-name="endash" unicode="&#x2013;" horiz-adv-x="491" 
d="M94 277h371l-8 -67h-371z" />
    <glyph glyph-name="emdash" unicode="&#x2014;" horiz-adv-x="802" 
d="M109 277h652l-8 -67h-652z" />
    <glyph glyph-name="guilsinglleft" unicode="&#x2039;" horiz-adv-x="295" 
d="M153 202l88 -177l-57 -34l-108 218l162 218l55 -38z" />
    <glyph glyph-name="guilsinglright" unicode="&#x203a;" horiz-adv-x="295" 
d="M271 209l-162 -218l-55 38l140 187l-88 177l57 34z" />
    <glyph glyph-name="quoteleft" unicode="&#x2018;" horiz-adv-x="149" 
d="M155 628h46l-59 -233h-94z" />
    <glyph glyph-name="quoteright" unicode="&#x2019;" horiz-adv-x="149" 
d="M132 628h94l-107 -233h-46z" />
    <glyph glyph-name="quotedblleft" unicode="&#x201c;" horiz-adv-x="258" 
d="M131 628h46l-59 -233h-94zM264 628h46l-59 -233h-94z" />
    <glyph glyph-name="quotedblright" unicode="&#x201d;" horiz-adv-x="282" 
d="M132 628h94l-107 -233h-46zM265 628h94l-107 -233h-46z" />
    <glyph glyph-name="quotesinglbase" unicode="&#x201a;" horiz-adv-x="149" 
d="M69 107h94l-107 -233h-46z" />
    <glyph glyph-name="quotedblbase" unicode="&#x201e;" horiz-adv-x="282" 
d="M69 107h94l-107 -233h-46zM201 107h94l-107 -233h-46z" />
    <glyph glyph-name="bullet" unicode="&#x2022;" horiz-adv-x="526" 
d="M177 268q0 49 35 84t84 35q50 0 84.5 -34.5t34.5 -84.5q0 -49 -35 -84t-84 -35t-84 35t-35 84z" />
    <glyph glyph-name="minus" unicode="&#x2212;" horiz-adv-x="458" 
d="M83 268h358l-8 -67h-358z" />
    <glyph glyph-name="Euro" unicode="&#x20ac;" horiz-adv-x="594" 
d="M259 412h239l-29 -56h-223q-5 -28 -7 -67h195l-30 -56h-165q13 -177 182 -177q52 0 96 22l19 -64q-64 -23 -124 -23q-101 0 -167.5 61.5t-74.5 180.5h-99l30 56h68q2 37 7 67h-89l29 56h71q28 104 95.5 164.5t172.5 60.5q85 0 153 -39l-32 -58q-52 32 -124 32
t-120.5 -42.5t-72.5 -117.5z" />
    <glyph glyph-name="uniFB01" unicode="&#xfb01;" horiz-adv-x="555" 
d="M220 480l-8 -65h155l-8 -66h-155l-43 -349h-70l43 349h-56l8 66h56l8 68q22 169 175 169q45 0 77 -16l-23 -64q-28 15 -61 15q-85 0 -98 -107zM466 415h70l-51 -415h-70zM463 559q0 23 16.5 39.5t39.5 16.5t39.5 -16.5t16.5 -39.5t-16.5 -39.5t-39.5 -16.5q-22 0 -39 17
t-17 39z" />
    <glyph glyph-name="uniFB02" unicode="&#xfb02;" horiz-adv-x="555" 
d="M220 480l-8 -65h155l-8 -66h-155l-43 -349h-70l43 349h-56l8 66h56l8 68q22 169 175 169q45 0 77 -16l-23 -64q-28 15 -61 15q-85 0 -98 -107zM495 648h70l-80 -648h-70z" />
    <glyph glyph-name="glyph216" horiz-adv-x="210" 
d="M118 559q0 23 16.5 39.5t39.5 16.5t39.5 -16.5t16.5 -39.5t-16.5 -39.5t-39.5 -16.5q-22 0 -39 17t-17 39z" />
    <glyph glyph-name="circumflex" unicode="&#x2c6;" 
d="M389 497l-60 63l-76 -63h-101l181 140l147 -140h-91z" />
    <glyph glyph-name="ring" unicode="&#x2da;" horiz-adv-x="455" 
d="M210 569q0 36 26 62t62 26t62 -26t26 -62t-26 -62t-62 -26t-62 26t-26 62zM346 569q0 20 -14 34.5t-34 14.5t-34 -14.5t-14 -34.5t14 -34.5t34 -14.5t34 14.5t14 34.5z" />
    <glyph glyph-name="tilde" unicode="&#x2dc;" horiz-adv-x="503" 
d="M162 531q8 34 38 56.5t62 22.5q20 0 33.5 -4.5t28.5 -12.5l15 -8q20 -10 38 -10q29 0 46 38l57 -19q-8 -34 -38 -56.5t-62 -22.5q-20 0 -33.5 4.5t-28.5 12.5l-15 8q-20 10 -38 10q-29 0 -46 -38z" />
    <glyph glyph-name="one.oldstyle" horiz-adv-x="286" 
d="M201 0h-70l49 396h-95l74 66h99z" />
    <glyph glyph-name="two.oldstyle" horiz-adv-x="447" 
d="M205 66h201l-8 -66h-378l199 164l32 26q62 51 88 80.5t26 64.5q0 34 -23.5 52.5t-57.5 18.5q-37 0 -66.5 -23.5t-46.5 -71.5l-67 21q22 64 70.5 101.5t115.5 37.5q62 0 103 -36t41 -91q0 -46 -18 -79.5t-47.5 -61t-102.5 -87.5z" />
    <glyph glyph-name="three.oldstyle" horiz-adv-x="433" 
d="M400 45q0 -52 -24 -95t-67 -68t-99 -25q-71 0 -122.5 40.5t-62.5 112.5l69 13q7 -48 39.5 -74.5t81.5 -26.5q52 0 83.5 37t31.5 87q0 45 -30 74.5t-80 31.5h-14l9 65h25h1v0q47 -2 76 29t29 72q0 38 -27 63t-65 25t-67.5 -22.5t-40.5 -59.5l-68 15q17 59 64 95.5
t116 36.5q43 0 79 -20.5t57.5 -54.5t21.5 -74q0 -45 -22 -84.5t-61 -61.5q31 -25 49 -58t18 -73z" />
    <glyph glyph-name="four.oldstyle" horiz-adv-x="480" 
d="M499 64l-8 -64h-81l-16 -134h-68l16 134h-326l452 471l-50 -407h81zM350 64l28 221l-213 -221h185z" />
    <glyph glyph-name="five.oldstyle" horiz-adv-x="444" 
d="M415 66q0 -60 -26.5 -107.5t-74 -74.5t-108.5 -27q-59 0 -111.5 32.5t-71.5 91.5l65 30q11 -41 45.5 -65t77.5 -24q37 0 68 18.5t48.5 51t17.5 71.5q0 36 -18 64t-46 43.5t-58 15.5q-67 0 -108 -60l-50 22l100 314h251l-8 -66h-195l-50 -158q29 13 62 13q45 0 89 -21.5
t72.5 -63.5t28.5 -100z" />
    <glyph glyph-name="six.oldstyle" horiz-adv-x="466" 
d="M453 200q0 -60 -26.5 -107.5t-74 -74.5t-108.5 -27q-47 0 -91.5 21.5t-72.5 63.5t-28 100q0 41 12.5 77t36.5 63l253 286h86l-193 -218q5 1 14 1q47 0 91.5 -21.5t72.5 -63.5t28 -100zM383 197q0 57 -37.5 90t-89.5 33q-37 0 -68 -18.5t-48.5 -51t-17.5 -71.5
q0 -57 37.5 -90t89.5 -33q37 0 68 18.5t48.5 51t17.5 71.5z" />
    <glyph glyph-name="seven.oldstyle" horiz-adv-x="399" 
d="M456 462l-363 -596h-79l325 530h-274l8 66h383z" />
    <glyph glyph-name="eight.oldstyle" horiz-adv-x="466" 
d="M455 203q0 -63 -27.5 -111.5t-76 -74.5t-109.5 -26q-45 0 -88 21.5t-70 63t-27 97.5q0 68 32 118.5t87 74.5q-33 36 -33 87q0 71 43 115.5t113 44.5q36 0 67.5 -17t50.5 -47.5t19 -68.5q-1 -41 -16 -74t-42 -54q35 -25 56 -62.5t21 -86.5zM213 460q0 -36 21 -55.5
t50 -19.5q34 0 57.5 25.5t24.5 62.5q-1 36 -21.5 55.5t-48.5 19.5q-35 0 -59 -25.5t-24 -62.5zM385 202q0 52 -34.5 85t-86.5 33q-36 0 -67.5 -19t-50.5 -52.5t-19 -74.5q0 -52 34.5 -85t86.5 -33q36 0 67.5 19t50.5 52.5t19 74.5z" />
    <glyph glyph-name="nine.oldstyle" horiz-adv-x="467" 
d="M471 286q0 -85 -49 -140l-248 -280h-86l188 212q-5 -1 -14 -1q-47 0 -91.5 21.5t-72.5 63.5t-28 100q0 60 26.5 107.5t74 74.5t108.5 27q47 0 91.5 -21.5t72.5 -63.5t28 -100zM401 283q0 57 -37.5 90t-89.5 33q-37 0 -68 -18.5t-48.5 -51t-17.5 -71.5q0 -57 37.5 -90
t89.5 -33q37 0 68 18.5t48.5 51t17.5 71.5z" />
    <glyph glyph-name="zero.oldstyle" horiz-adv-x="574" 
d="M76 214q0 73 31 131.5t89 92t135 33.5q57 0 108.5 -27t83.5 -78t32 -118q0 -72 -31 -130.5t-89 -92.5t-135 -34q-57 0 -108.5 27.5t-83.5 78t-32 117.5zM485 244q0 74 -45 118t-119 44q-49 0 -89 -24.5t-63 -67.5t-23 -96q0 -74 45.5 -118t118.5 -44q49 0 89 25t63 68
t23 95z" />
    <glyph glyph-name="one.tnum" horiz-adv-x="508" 
d="M442 66l-8 -66h-344l8 66h137l64 516h-98l75 66h101l-72 -582h137z" />
    <glyph glyph-name="two.tnum" horiz-adv-x="508" 
d="M186 66h278l-8 -66h-430l271 274q54 55 79 82.5t42.5 60.5t17.5 69q0 47 -30 76.5t-75 29.5q-53 0 -94 -33.5t-57 -85.5l-67 20q26 75 86.5 119.5t133.5 44.5q48 0 87.5 -21t62.5 -58t23 -83q0 -49 -20 -91.5t-49 -76.5t-83 -90z" />
    <glyph glyph-name="three.tnum" horiz-adv-x="508" 
d="M470 194q0 -60 -25.5 -106t-71.5 -71.5t-107 -25.5q-49 0 -93 20t-73 58t-36 88l69 13q7 -52 46 -83t90 -31q60 0 95.5 39.5t35.5 95.5q-1 49 -29.5 83t-74.5 38h-4h-28l7 65h28h1v0q34 -1 60.5 16.5t41 46t14.5 56.5q0 42 -28 69t-75 27q-45 0 -80 -27t-43 -67l-68 16
q16 65 71 104t127 39q43 0 81 -20t61.5 -56.5t23.5 -83.5q0 -48 -24.5 -90.5t-64.5 -67.5q35 -26 54 -63.5t19 -81.5z" />
    <glyph glyph-name="four.tnum" horiz-adv-x="508" 
d="M507 205l-8 -66h-66l-17 -139h-70l17 139h-356l490 518l-56 -452h66zM371 205l33 260l-247 -260h214z" />
    <glyph glyph-name="five.tnum" horiz-adv-x="508" 
d="M486 218q0 -60 -28 -112t-79.5 -83.5t-118.5 -31.5q-65 0 -116.5 34.5t-72.5 90.5l63 30q13 -41 46.5 -65.5t78.5 -24.5q46 0 82 21t56 56.5t20 77.5q0 57 -37 95.5t-94 38.5q-38 0 -69.5 -15.5t-53.5 -41.5l-46 20l104 340h268l-8 -66h-211l-58 -188q35 16 76 16
q52 0 98 -25.5t73 -70t27 -96.5z" />
    <glyph glyph-name="six.tnum" horiz-adv-x="508" 
d="M491 218q0 -60 -28 -112t-79.5 -83.5t-118.5 -31.5q-55 0 -101 25.5t-73 69t-27 96.5q0 43 15 82.5t43 71.5l268 312h92l-206 -239h14q55 0 101 -25.5t73 -69t27 -96.5zM422 211q0 57 -37 95t-94 38q-46 0 -82 -21t-56 -56.5t-20 -77.5q0 -57 37 -95t94 -38q46 0 82 21
t56 56.5t20 77.5z" />
    <glyph glyph-name="seven.tnum" horiz-adv-x="508" 
d="M554 648l-400 -648h-79l358 582h-301l9 66h413z" />
    <glyph glyph-name="eight.tnum" horiz-adv-x="508" 
d="M490 213q0 -60 -28.5 -111t-80 -81t-115.5 -30q-52 0 -97.5 23.5t-73.5 67.5t-28 104q0 65 36 118t94 79q-22 19 -34 46.5t-12 60.5q0 46 22 84t61 60.5t86 22.5q40 0 76.5 -18.5t59 -53t22.5 -81.5q0 -41 -21 -77.5t-55 -58.5q40 -24 64 -63.5t24 -91.5zM221 491
q0 -42 25.5 -66t66.5 -24q27 0 48.5 15t34 38t12.5 47q0 43 -24 67t-66 24t-69.5 -29.5t-27.5 -71.5zM420 209q0 40 -19.5 70t-50.5 46t-64 16q-65 0 -107 -42t-42 -112q0 -60 39.5 -95.5t94.5 -35.5q42 0 76 22.5t53.5 58t19.5 72.5z" />
    <glyph glyph-name="nine.tnum" horiz-adv-x="508" 
d="M524 466q0 -43 -15 -82.5t-43 -71.5l-268 -312h-92l206 239h-14q-55 0 -101 25.5t-73 69t-27 96.5q0 60 28 112t79.5 83.5t118.5 31.5q55 0 101 -25.5t73 -69t27 -96.5zM455 459q0 57 -37 95t-94 38q-46 0 -82 -21t-56 -56.5t-20 -77.5q0 -57 37 -95t94 -38q46 0 82 21
t56 56.5t20 77.5z" />
    <glyph glyph-name="zero.tnum" horiz-adv-x="508" 
d="M77 265q0 97 29.5 187.5t86 147.5t132.5 57q86 0 135.5 -73.5t49.5 -200.5q0 -97 -30 -187.5t-86.5 -147.5t-131.5 -57q-57 0 -98.5 33.5t-64 95.5t-22.5 145zM440 394q0 88 -29.5 143t-86.5 55q-54 0 -94 -50.5t-61.5 -129t-21.5 -158.5q0 -87 29.5 -142.5t86.5 -55.5
q54 0 94 51t61.5 129.5t21.5 157.5z" />
    <glyph glyph-name="arrowleft" unicode="&#x2190;" horiz-adv-x="689" 
d="M195 314l289 289l59 -59l-230 -230l230 -230l-59 -59z" />
    <glyph glyph-name="arrowup" unicode="&#x2191;" horiz-adv-x="689" 
d="M590 67l-230 230l-230 -230l-59 59l289 289l289 -289z" />
    <glyph glyph-name="arrowright" unicode="&#x2192;" horiz-adv-x="689" 
d="M223 84l230 230l-230 230l59 59l289 -289l-289 -289z" />
    <glyph glyph-name="arrowdown" unicode="&#x2193;" horiz-adv-x="689" 
d="M159 415l230 -230l230 230l59 -59l-289 -289l-289 289z" />
    <glyph glyph-name="uni21A4" unicode="&#x21a4;" horiz-adv-x="1820" 
d="M1355 1124l-811 -810l811 -810l-50 -50l-861 860l861 860z" />
    <glyph glyph-name="uni21A5" unicode="&#x21a5;" horiz-adv-x="1820" 
d="M893 724l860 -861l-50 -50l-810 811l-810 -811l-50 50z" />
    <glyph glyph-name="uni21A6" unicode="&#x21a6;" horiz-adv-x="1820" 
d="M543 -496l811 810l-811 810l50 50l861 -860l-861 -860z" />
    <glyph glyph-name="uni21A7" unicode="&#x21a7;" horiz-adv-x="1820" 
d="M993 -188l-860 861l50 50l810 -811l810 811l50 -50z" />
    <glyph glyph-name="fraction" unicode="&#x2044;" horiz-adv-x="545" 
d="M17 29l546 607l42 -38l-545 -607z" />
    <glyph glyph-name="glyph249" horiz-adv-x="294" 
d="M282 105l-6 -51h-33l-7 -54h-56l7 54h-170l258 265l-26 -214h33zM193 105l10 74l-73 -74h63z" />
    <glyph glyph-name="glyph250" horiz-adv-x="728" 
d="M493 798h112l-147 -111h-82z" />
    <glyph glyph-name="glyph251" horiz-adv-x="642" 
d="M237 -174l21 45q25 -10 61 -10q64 0 64 29q0 9 -6.5 12t-21.5 3h-98l78 95h62l-45 -50l20 2q39 4 59.5 -13.5t20.5 -47.5q0 -38 -36 -58t-97 -20q-49 0 -82 13z" />
    <glyph glyph-name="glyph252" horiz-adv-x="728" 
d="M522 687l-62 51l-74 -51h-107l184 121l154 -121h-95z" />
    <glyph glyph-name="glyph253" horiz-adv-x="728" 
d="M302 742q0 21 15.5 36t35.5 15q21 0 35.5 -15t14.5 -36q0 -20 -14.5 -35t-35.5 -15q-20 0 -35.5 15t-15.5 35zM507 742q0 21 15 36t35 15q21 0 36 -15t15 -36q0 -20 -15 -35t-36 -15q-20 0 -35 15t-15 35z" />
    <glyph glyph-name="glyph254" horiz-adv-x="728" 
d="M319 798h110l91 -111h-76z" />
    <glyph glyph-name="glyph255" 
d="M208 777h284l-8 -67h-284z" />
    <glyph glyph-name="glyph256" horiz-adv-x="608" 
d="M308 745q0 36 26 62t62 26t62 -26t26 -62t-26 -62t-62 -26t-62 26t-26 62zM442 745q0 19 -13.5 33t-32.5 14t-32.5 -14t-13.5 -33t13.5 -33t32.5 -14t32.5 14t13.5 33z" />
    <glyph glyph-name="glyph257" horiz-adv-x="728" 
d="M296 711q8 34 38 56.5t62 22.5q20 0 33.5 -4.5t28.5 -12.5l15 -8q20 -10 38 -10q29 0 46 38l57 -19q-8 -34 -38 -56.5t-62 -22.5q-20 0 -33.5 4.5t-28.5 12.5l-15 8q-20 10 -38 10q-29 0 -46 -38z" />
    <glyph glyph-name="uni229E" unicode="&#x229e;" horiz-adv-x="689" 
d="M678 269h-250v-250h-90v250h-250v90h250v250h90v-250h250v-90z" />
    <glyph glyph-name="uni229F" unicode="&#x229f;" horiz-adv-x="689" 
d="M88 359h590v-90h-590v90z" />
    <glyph glyph-name="uni22A0" unicode="&#x22a0;" horiz-adv-x="689" 
d="M446 314l177 -177l-63 -63l-177 177l-177 -178l-64 64l177 177l-177 177l64 64l177 -178l177 177l63 -63z" />
    <glyph glyph-name="uni271A" unicode="&#x271a;" horiz-adv-x="1820" 
d="M1412 278h-428v-428h-70v428h-428v70h428v428h70v-428h428v-70z" />
    <glyph glyph-name="uni268A" unicode="&#x268a;" horiz-adv-x="1820" 
d="M486 348h926v-70h-926v70z" />
    <glyph glyph-name="uni2613" unicode="&#x2613;" horiz-adv-x="1820" 
d="M998 314l302 -303l-49 -50l-303 303l-303 -303l-49 50l303 303l-303 302l50 49l302 -302l302 302l50 -49z" />
    </font>
</defs>
</svg>
