<?xml version="1.0" standalone="no"?>
<!DOCTYPE svg PUBLIC "-//W3C//DTD SVG 1.1//EN" "http://www.w3.org/Graphics/SVG/1.1/DTD/svg11.dtd" >
<svg xmlns="http://www.w3.org/2000/svg" xmlns:xlink="http://www.w3.org/1999/xlink" version="1.1">
<metadata>
Created by Christoph Koeberlin (http://christoph.koe.berlin)
Copyright (c) 2016 Swiss Typefaces Sa`rl. All rights reserved.
</metadata>
<defs>
<font id="Font" horiz-adv-x="506" >
  <font-face 
    font-family="Font"
    font-weight="700"
    font-style="italic"
    font-stretch="normal"
    units-per-em="1000"
    panose-1="2 11 8 4 0 0 0 0 0 0"
    ascent="800"
    descent="-200"
    x-height="415"
    cap-height="628"
    bbox="-62 -547 1853 1173"
    underline-thickness="80"
    underline-position="-120"
    slope="-7"
    unicode-range="U+000D-FB02"
  />
<missing-glyph horiz-adv-x="592" 
d="M152 628h442l-77 -628h-442zM561 611h-381l156 -283zM326 315l-160 290l-72 -582zM575 603l-231 -289l160 -289zM490 17l-156 284l-227 -284h383z" />
    <glyph glyph-name=".notdef" horiz-adv-x="592" 
d="M152 628h442l-77 -628h-442zM561 611h-381l156 -283zM326 315l-160 290l-72 -582zM575 603l-231 -289l160 -289zM490 17l-156 284l-227 -284h383z" />
    <glyph glyph-name="glyph1" horiz-adv-x="0" 
 />
    <glyph glyph-name="uni000D" unicode="&#xd;" horiz-adv-x="188" 
 />
    <glyph glyph-name="space" unicode=" " horiz-adv-x="188" 
 />
    <glyph glyph-name="exclam" unicode="!" horiz-adv-x="303" 
d="M180 628h98l-51 -415h-98zM85 66q0 30 22.5 52t52.5 22q31 0 52.5 -21.5t21.5 -52.5q0 -30 -22 -52.5t-52 -22.5t-52.5 22.5t-22.5 52.5z" />
    <glyph glyph-name="quotedbl" unicode="&#x22;" horiz-adv-x="396" 
d="M145 628h96l-35 -283h-96zM309 628h96l-35 -283h-96z" />
    <glyph glyph-name="numbersign" unicode="#" horiz-adv-x="636" 
d="M524 368l-33 -107h74v-90h-102l-53 -171h-93l53 171h-116l-53 -171h-93l53 171h-74v90h102l33 107h-74v90h102l53 170h94l-53 -170h115l53 170h93l-53 -170h75v-90h-103zM431 368h-115l-34 -107h116z" />
    <glyph glyph-name="dollar" unicode="$" horiz-adv-x="541" 
d="M498 179q0 -87 -49 -135t-140 -53l-8 -70h-76l9 77q-61 14 -105 56t-57 100l91 39q17 -53 52 -82.5t83 -29.5q46 0 75 23.5t29 64.5q0 26 -19 50t-56 42l-75 37q-58 29 -86 68t-28 96q0 75 45.5 122t128.5 52l9 71h76l-9 -76q86 -19 128 -99l-83 -53q-17 37 -48 53
t-56 16q-41 0 -68 -23t-27 -55q0 -29 16.5 -49t48.5 -36l80 -40q119 -59 119 -166z" />
    <glyph glyph-name="percent" unicode="%" horiz-adv-x="736" 
d="M99 491q0 41 20.5 74.5t54.5 52.5t72 19t72 -19t54.5 -52.5t20.5 -74.5t-20.5 -74.5t-54.5 -52.5t-72 -19t-72 19t-54.5 52.5t-20.5 74.5zM158 34l439 603l60 -43l-441 -603zM319 491q0 32 -21 52.5t-52 20.5t-52 -20.5t-21 -52.5t21 -52.5t52 -20.5t52 20.5t21 52.5z
M420 137q0 41 20.5 74.5t54.5 52.5t72 19t72 -19t54.5 -52.5t20.5 -74.5t-20.5 -74.5t-54.5 -52.5t-72 -19t-72 19t-54.5 52.5t-20.5 74.5zM640 137q0 32 -21 52.5t-52 20.5t-52 -20.5t-21 -52.5t21 -52.5t52 -20.5t52 20.5t21 52.5z" />
    <glyph glyph-name="ampersand" unicode="&#x26;" horiz-adv-x="521" 
d="M450 120l71 -129h-105l-31 57q-68 -57 -161 -57q-50 0 -92 22.5t-66 60.5t-24 82q0 78 40.5 128t125.5 82q-35 63 -35 118q0 40 20 75.5t57 56.5t83 21q58 0 97.5 -36t39.5 -90q0 -58 -36 -105.5t-99 -77.5l67 -121q25 43 47 96l82 -30q-42 -97 -81 -153zM269 480
q0 -20 6 -38t20 -43q89 36 89 101q0 23 -13.5 37.5t-36.5 14.5q-29 0 -47 -21.5t-18 -50.5zM340 128l-91 166h-1q-54 -19 -82 -53.5t-28 -71.5q0 -40 28 -63.5t68 -23.5q55 0 106 46z" />
    <glyph glyph-name="quotesingle" unicode="'" horiz-adv-x="232" 
d="M145 628h96l-35 -283h-96z" />
    <glyph glyph-name="parenleft" unicode="(" horiz-adv-x="296" 
d="M113 189q0 126 47 263.5t120 232.5l70 -42q-69 -101 -108.5 -220.5t-39.5 -226.5q0 -191 48 -301l-72 -38q-65 121 -65 332z" />
    <glyph glyph-name="parenright" unicode=")" horiz-adv-x="297" 
d="M250 353q0 -126 -47 -263.5t-120 -232.5l-70 42q69 101 108.5 220.5t39.5 226.5q0 191 -48 301l72 38q65 -121 65 -332z" />
    <glyph glyph-name="asterisk" unicode="*" horiz-adv-x="368" 
d="M297 438l58 -95l-60 -40l-59 95l-85 -99l-57 44l86 99l-111 39l29 67l111 -39l14 119h73l-14 -119l120 39l15 -72z" />
    <glyph glyph-name="plus" unicode="+" horiz-adv-x="458" 
d="M441 180h-146l-18 -146h-89l18 146h-146l11 89h146l18 146h89l-18 -146h146z" />
    <glyph glyph-name="comma" unicode="," horiz-adv-x="244" 
d="M99 134h124l-147 -233h-55z" />
    <glyph glyph-name="hyphen" unicode="-" horiz-adv-x="291" 
d="M68 289h225l-11 -90h-225z" />
    <glyph glyph-name="period" unicode="." horiz-adv-x="250" 
d="M59 66q0 30 22.5 52t52.5 22q31 0 52.5 -21.5t21.5 -52.5q0 -30 -22 -52.5t-52 -22.5t-52.5 22.5t-22.5 52.5z" />
    <glyph glyph-name="slash" unicode="/" horiz-adv-x="476" 
d="M408 628h107l-370 -628h-107z" />
    <glyph glyph-name="zero" unicode="0" horiz-adv-x="525" 
d="M73 255q0 97 27.5 184.5t86 142.5t144.5 55q60 0 104.5 -32.5t69 -92.5t24.5 -139q0 -97 -27.5 -184.5t-86 -142.5t-144.5 -55q-60 0 -104.5 32.5t-69 92.5t-24.5 139zM427 379q0 81 -24.5 121t-76.5 40q-51 0 -85 -44t-50 -110.5t-16 -136.5q0 -81 24.5 -121t76.5 -40
q51 0 85 44t50 110.5t16 136.5z" />
    <glyph glyph-name="one" unicode="1" horiz-adv-x="299" 
d="M219 0h-101l65 532h-110l94 96h129z" />
    <glyph glyph-name="two" unicode="2" horiz-adv-x="470" 
d="M284 310q7 7 36.5 39t44 59.5t14.5 52.5q0 39 -21.5 59.5t-59.5 20.5q-45 0 -74.5 -26.5t-48.5 -78.5l-97 31q29 77 83.5 123.5t143.5 46.5q49 0 89 -21t63.5 -57.5t23.5 -80.5q0 -49 -11.5 -82.5t-35.5 -63.5t-80 -91l-133 -144h220l-12 -97h-432z" />
    <glyph glyph-name="three" unicode="3" horiz-adv-x="465" 
d="M42 139l92 41q12 -42 41 -67t77 -25q30 0 52.5 14.5t34.5 37t12 45.5q0 38 -23.5 67.5t-69.5 29.5h-30l12 97h29q51 0 73.5 27.5t22.5 64.5q0 33 -21 52t-53 19q-31 0 -58 -17.5t-46 -53.5l-90 45q31 59 83.5 90t113.5 31q51 0 90.5 -21.5t60.5 -58t21 -78.5
q0 -58 -27 -98.5t-65 -58.5q36 -19 56 -53t21 -80q0 -56 -23.5 -101t-69.5 -71t-109 -26q-78 0 -133 42t-74 106z" />
    <glyph glyph-name="four" unicode="4" horiz-adv-x="507" 
d="M511 209l-11 -90h-66l-15 -119h-101l15 119h-328l492 518l-52 -428h66zM344 209l20 162l-154 -162h134z" />
    <glyph glyph-name="five" unicode="5" horiz-adv-x="458" 
d="M447 208q0 -63 -28.5 -112.5t-78 -77t-111.5 -27.5q-61 0 -114.5 35t-75.5 92l93 42q9 -34 36.5 -53t65.5 -19q49 0 80.5 32.5t31.5 82.5q0 45 -28.5 73.5t-77.5 28.5q-29 0 -52 -11.5t-38 -32.5l-81 36l130 331h255l-12 -96h-176l-54 -139q19 6 43 6q53 0 97 -25
t69.5 -68.5t25.5 -97.5z" />
    <glyph glyph-name="six" unicode="6" horiz-adv-x="478" 
d="M468 208q0 -63 -28 -112.5t-77.5 -77t-111.5 -27.5q-51 0 -97.5 25t-75.5 69t-29 99q0 41 14.5 78t35.5 63l241 303h119l-184 -232q50 -2 94.5 -25.5t71.5 -66t27 -96.5zM368 203q0 48 -30 75t-76 27q-49 0 -80.5 -33t-31.5 -83q0 -48 30 -74.5t76 -26.5q49 0 80.5 32.5
t31.5 82.5z" />
    <glyph glyph-name="seven" unicode="7" horiz-adv-x="407" 
d="M489 628l-347 -628h-108l294 532h-244l12 96h393z" />
    <glyph glyph-name="eight" unicode="8" horiz-adv-x="485" 
d="M477 208q0 -63 -28.5 -112.5t-78 -77t-111.5 -27.5q-51 0 -97.5 25t-75.5 69t-29 99q0 62 28 110t76 75q-33 40 -33 92t23.5 92t65 62t93.5 22q41 0 79 -20.5t61.5 -56.5t23.5 -80q0 -43 -16 -77t-46 -56q30 -26 47.5 -61.5t17.5 -77.5zM224 464q0 -30 22 -49t53 -19
q34 0 56.5 23t22.5 58q0 30 -22 49t-53 19q-34 0 -56.5 -23t-22.5 -58zM376 203q0 48 -30 75t-76 27q-49 0 -80.5 -33t-31.5 -83q0 -48 30 -74.5t76 -26.5q49 0 80.5 32.5t31.5 82.5z" />
    <glyph glyph-name="nine" unicode="9" horiz-adv-x="478" 
d="M506 444q0 -41 -14.5 -78t-35.5 -63l-241 -303h-119l184 232q-50 2 -94.5 25.5t-71.5 66t-27 96.5q0 63 28 112.5t77.5 77t111.5 27.5q51 0 97.5 -25t75.5 -69t29 -99zM405 439q0 48 -30 74.5t-76 26.5q-49 0 -80.5 -32.5t-31.5 -82.5q0 -48 30 -75t76 -27q49 0 80.5 33
t31.5 83z" />
    <glyph glyph-name="colon" unicode=":" horiz-adv-x="250" 
d="M59 66q0 30 22.5 52t52.5 22q31 0 52.5 -21.5t21.5 -52.5q0 -30 -22 -52.5t-52 -22.5t-52.5 22.5t-22.5 52.5zM94 353q0 30 22.5 52t52.5 22q31 0 52.5 -21.5t21.5 -52.5q0 -30 -22 -52.5t-52 -22.5t-52.5 22.5t-22.5 52.5z" />
    <glyph glyph-name="semicolon" unicode=";" horiz-adv-x="270" 
d="M114 353q0 30 22.5 52t52.5 22q31 0 52.5 -21.5t21.5 -52.5q0 -30 -22 -52.5t-52 -22.5t-52.5 22.5t-22.5 52.5zM99 134h124l-147 -233h-55z" />
    <glyph glyph-name="less" unicode="&#x3c;" horiz-adv-x="825" 
d="M419 225l142 -173l-72 -61l-196 240l255 240l62 -66z" />
    <glyph glyph-name="equal" unicode="=" horiz-adv-x="458" 
d="M81 349h382l-11 -89h-382zM61 189h382l-11 -89h-382z" />
    <glyph glyph-name="greater" unicode="&#x3e;" horiz-adv-x="826" 
d="M589 231l-255 -240l-62 66l191 180l-142 173l72 61z" />
    <glyph glyph-name="question" unicode="?" horiz-adv-x="434" 
d="M172 359h59q63 0 97 32t34 77q0 40 -25 59t-57 19q-35 0 -61.5 -19t-48.5 -54l-78 55q31 47 79 78t112 31q50 0 89.5 -21t62.5 -58.5t23 -84.5q0 -86 -51.5 -140.5t-148.5 -61.5l-7 -58h-98zM107 66q0 30 22.5 52t52.5 22q31 0 52.5 -21.5t21.5 -52.5q0 -30 -22 -52.5
t-52 -22.5t-52.5 22.5t-22.5 52.5z" />
    <glyph glyph-name="at" unicode="@" horiz-adv-x="724" 
d="M78 314q0 89 43 163t119.5 117t173.5 43q95 0 166 -40t108.5 -107t37.5 -146q0 -100 -42.5 -148t-109.5 -48q-35 0 -58 9.5t-43 27.5q-20 -18 -44 -26.5t-57 -8.5q-59 0 -99 40.5t-40 102.5q0 51 22.5 93.5t62 67t86.5 24.5q48 0 80 -24l3 15h85l-38 -176q-3 -13 -3 -25
q0 -45 47 -45q31 0 48.5 29.5t17.5 91.5q0 58 -26.5 107t-78.5 78.5t-125 29.5q-74 0 -131 -33t-88 -89.5t-31 -122.5t30.5 -122t85.5 -89.5t124 -33.5q86 0 150 51l46 -66q-40 -30 -90 -46.5t-106 -16.5q-92 0 -166.5 43t-117 117t-42.5 163zM441 258l26 118q-20 19 -53 19
q-38 0 -63.5 -25.5t-25.5 -69.5q0 -30 17 -48.5t45 -18.5q30 0 54 25z" />
    <glyph glyph-name="A" unicode="A" horiz-adv-x="625" 
d="M459 154h-248l-92 -154h-114l385 637l230 -637h-106zM426 247l-59 166l-100 -166h159z" />
    <glyph glyph-name="B" unicode="B" horiz-adv-x="559" 
d="M545 194q0 -57 -26.5 -101t-75.5 -68.5t-116 -24.5h-259l77 628h215q41 0 79 -19t62.5 -54t24.5 -81q0 -45 -21.5 -82.5t-54.5 -55.5q42 -17 68.5 -56t26.5 -86zM234 531l-19 -153h109q50 0 75.5 24t25.5 60q0 32 -21 50.5t-61 18.5h-109zM444 195q0 38 -26 62t-75 24
h-140l-22 -184h139q63 0 93.5 27t30.5 71z" />
    <glyph glyph-name="C" unicode="C" horiz-adv-x="648" 
d="M72 296q0 99 46 177t124 121t171 43q86 0 156 -37.5t110 -104.5l-84 -57q-25 49 -73.5 75.5t-112.5 26.5t-118 -30.5t-86 -85t-32 -122.5q0 -101 58 -157.5t158 -56.5q50 0 96 21t78 59l73 -67q-48 -52 -114 -81t-140 -29q-87 0 -158 37.5t-111.5 106.5t-40.5 161z" />
    <glyph glyph-name="D" unicode="D" horiz-adv-x="629" 
d="M634 332q-1 -99 -47.5 -174.5t-124 -116.5t-169.5 -41h-225l77 628h101h78q86 0 156 -35t111.5 -102.5t42.5 -158.5zM533 326q-2 100 -59.5 152.5t-153.5 52.5h-86l-53 -434h119q61 0 114.5 28.5t85.5 80.5t33 120z" />
    <glyph glyph-name="E" unicode="E" horiz-adv-x="468" 
d="M234 531l-19 -153h177l-11 -97h-178l-22 -184h259l-12 -97h-360l77 628h360l-12 -97h-259z" />
    <glyph glyph-name="F" unicode="F" horiz-adv-x="458" 
d="M234 531l-19 -153h219l-12 -97h-219l-34 -281h-101l77 628h360l-12 -97h-259z" />
    <glyph glyph-name="G" unicode="G" horiz-adv-x="676" 
d="M400 378h261l-36 -298q-45 -44 -108.5 -66.5t-134.5 -22.5q-87 0 -158 37.5t-111.5 106.5t-40.5 161q0 99 46 177t124 121t171 43q78 0 143 -31t107 -87l-78 -64q-27 41 -72.5 63t-103.5 22q-64 0 -118 -30.5t-86 -85t-32 -122.5q0 -101 58 -157.5t158 -56.5q83 0 140 40
l19 153h-159z" />
    <glyph glyph-name="H" unicode="H" horiz-adv-x="657" 
d="M666 628l-77 -628h-101l34 281h-319l-34 -281h-101l77 628h101l-31 -250h319l31 250h101z" />
    <glyph glyph-name="I" unicode="I" horiz-adv-x="237" 
d="M145 628h101l-77 -628h-101z" />
    <glyph glyph-name="J" unicode="J" horiz-adv-x="302" 
d="M39 1l28 93q15 -6 34 -6q49 0 56 57l59 483h101l-60 -491q-10 -77 -45.5 -111.5t-105.5 -34.5q-40 0 -67 10z" />
    <glyph glyph-name="K" unicode="K" horiz-adv-x="565" 
d="M462 0l-255 310l-38 -310h-101l77 628h101l-34 -280l368 285l-16 -128l-242 -187l262 -318h-122z" />
    <glyph glyph-name="L" unicode="L" horiz-adv-x="417" 
d="M408 97l-12 -97h-328l77 628h101l-65 -531h227z" />
    <glyph glyph-name="M" unicode="M" horiz-adv-x="756" 
d="M766 637l-78 -637h-101l48 383l-238 -229l-180 234l-48 -388h-101l78 637l264 -343z" />
    <glyph glyph-name="N" unicode="N" horiz-adv-x="681" 
d="M612 -9l-391 424l-52 -415h-101l78 637l392 -425l51 416h101z" />
    <glyph glyph-name="O" unicode="O" horiz-adv-x="718" 
d="M72 296q0 99 46 177t124 121t171 43q86 0 156 -37.5t111.5 -106.5t42.5 -161q-1 -99 -47.5 -177t-124 -121t-169.5 -43q-87 0 -158 37.5t-111.5 106.5t-40.5 161zM622 326q-2 101 -60 157.5t-153 56.5q-64 0 -118 -30.5t-86 -85t-32 -122.5q0 -101 58 -157.5t158 -56.5
q61 0 114 30.5t85.5 85t33.5 122.5z" />
    <glyph glyph-name="P" unicode="P" horiz-adv-x="524" 
d="M560 443q0 -94 -60.5 -147t-168.5 -53h-132l-30 -243h-101l77 628h213q62 0 108 -25t70 -67.5t24 -92.5zM459 436q0 46 -28 70.5t-80 24.5h-117l-23 -191h126q55 0 88.5 25.5t33.5 70.5z" />
    <glyph glyph-name="Q" unicode="Q" horiz-adv-x="718" 
d="M634 100l51 -54l-15 -118l-107 113q-83 -50 -181 -50q-87 0 -158 37.5t-111.5 106.5t-40.5 161q0 99 46 177t124 121t171 43q86 0 156 -37.5t111.5 -106.5t42.5 -161q-1 -69 -24 -128t-65 -104zM494 114l-148 157l66 63l154 -163q55 66 56 155q-2 101 -60 157.5
t-153 56.5q-64 0 -118 -30.5t-86 -85t-32 -122.5q0 -101 58 -157.5t158 -56.5q56 0 105 26z" />
    <glyph glyph-name="R" unicode="R" horiz-adv-x="578" 
d="M256 282h-52l-35 -282h-101l77 628h206q48 0 88 -19.5t63.5 -56t23.5 -85.5q0 -78 -41.5 -123.5t-109.5 -57.5l216 -286h-122zM215 379h106q51 0 77.5 22t26.5 59q0 32 -20.5 51.5t-60.5 19.5h-110z" />
    <glyph glyph-name="S" unicode="S" horiz-adv-x="484" 
d="M49 154l93 40q16 -53 50.5 -80.5t82.5 -27.5q46 0 72.5 21t26.5 62q0 56 -70 90l-75 37q-58 29 -86 69t-28 97q0 80 51.5 127.5t143.5 47.5q61 0 108 -26t75 -79l-85 -55q-17 36 -46.5 51t-55.5 15q-41 0 -65.5 -20.5t-24.5 -52.5q0 -29 14.5 -48t45.5 -35l80 -40
q119 -59 119 -168q0 -91 -54.5 -139.5t-153.5 -48.5q-78 0 -140 45.5t-78 117.5z" />
    <glyph glyph-name="T" unicode="T" horiz-adv-x="469" 
d="M519 531h-169l-65 -531h-101l65 531h-169l12 97h439z" />
    <glyph glyph-name="U" unicode="U" horiz-adv-x="642" 
d="M87 228q0 20 3 41l44 359h101l-43 -355q-2 -14 -2 -40q0 -71 34.5 -108t102.5 -37q81 0 130.5 49t60.5 136l43 355h101l-44 -359q-16 -132 -93.5 -205t-209.5 -73q-66 0 -117.5 29.5t-81 83.5t-29.5 124z" />
    <glyph glyph-name="V" unicode="V" horiz-adv-x="625" 
d="M697 628l-385 -637l-230 637h106l147 -413l248 413h114z" />
    <glyph glyph-name="W" unicode="W" horiz-adv-x="804" 
d="M572 -9l-117 420l-225 -420l-143 637h102l83 -379l208 388l107 -388l177 379h107z" />
    <glyph glyph-name="X" unicode="X" horiz-adv-x="589" 
d="M391 311l178 -311h-112l-132 230l-185 -230h-120l255 317l-178 311h112l132 -230l185 230h120z" />
    <glyph glyph-name="Y" unicode="Y" horiz-adv-x="547" 
d="M357 271l-33 -271h-101l33 270l-174 358h110l123 -257l187 257h117z" />
    <glyph glyph-name="Z" unicode="Z" horiz-adv-x="533" 
d="M211 97h291l-12 -97h-467l375 531h-275l12 97h451z" />
    <glyph glyph-name="bracketleft" unicode="[" horiz-adv-x="264" 
d="M156 676h162l-10 -82h-73l-79 -646h73l-10 -82h-162z" />
    <glyph glyph-name="backslash" unicode="\" horiz-adv-x="478" 
d="M409 0l-370 628h107l370 -628h-107z" />
    <glyph glyph-name="bracketright" unicode="]" horiz-adv-x="280" 
d="M191 -134h-162l10 82h73l79 646h-73l10 82h162z" />
    <glyph glyph-name="asciicircum" unicode="^" horiz-adv-x="567" 
d="M95 412l240 225l240 -225l-63 -67l-177 166l-177 -166z" />
    <glyph glyph-name="underscore" unicode="_" horiz-adv-x="391" 
d="M1 1h391l-11 -90h-391z" />
    <glyph glyph-name="grave" unicode="`" 
d="M174 628h138l82 -131h-84z" />
    <glyph glyph-name="a" unicode="a" horiz-adv-x="457" 
d="M434 271q0 -7 -2 -25l-30 -246h-96l4 34q-22 -20 -50.5 -31.5t-74.5 -11.5q-61 0 -98.5 37.5t-37.5 90.5q0 67 44.5 105t128.5 38q65 0 113 -26l1 5q1 7 1 20q0 38 -20.5 58.5t-58.5 20.5q-29 0 -55.5 -13.5t-42.5 -30.5l-57 63q33 33 76.5 50.5t94.5 17.5q70 0 115 -43
t45 -113zM321 120l6 46q-39 22 -96 22q-37 0 -61 -17t-24 -44q0 -25 17 -40t45 -15q31 0 61.5 12.5t51.5 35.5z" />
    <glyph glyph-name="b" unicode="b" horiz-adv-x="526" 
d="M516 222q0 -65 -28 -118t-78 -83t-114 -30q-40 0 -75 16.5t-56 41.5l-6 -49h-96l80 648h96l-32 -260q20 18 53 29t68 11q52 0 95 -28t68 -75.5t25 -102.5zM419 219q0 58 -31.5 88.5t-82.5 30.5q-30 0 -60.5 -14.5t-50.5 -41.5l-16 -131q14 -33 45 -51t66 -18
q57 0 93.5 38.5t36.5 98.5z" />
    <glyph glyph-name="c" unicode="c" horiz-adv-x="452" 
d="M59 195q0 67 29 120t81.5 82.5t120.5 29.5q55 0 102.5 -25t76.5 -69l-77 -58q-14 29 -43 45.5t-68 16.5q-52 0 -89 -38t-37 -98q0 -54 33 -87t86 -33q32 0 59 13t44 36l64 -68q-32 -34 -75.5 -52.5t-97.5 -18.5q-55 0 -103 26t-77 72.5t-29 105.5z" />
    <glyph glyph-name="d" unicode="d" horiz-adv-x="526" 
d="M543 648l-80 -648h-96l4 32q-20 -18 -53 -29.5t-69 -11.5q-52 0 -95 28t-68 75.5t-25 102.5q0 65 28 117.5t78 82.5t114 30q40 0 75.5 -16t56.5 -42l34 279h96zM384 138l16 129q-14 33 -45.5 51.5t-66.5 18.5q-57 0 -93.5 -38.5t-36.5 -98.5q0 -58 31.5 -88.5t82.5 -30.5
q31 0 61.5 15t50.5 42z" />
    <glyph glyph-name="e" unicode="e" horiz-adv-x="476" 
d="M474 235q0 -26 -4 -49h-314q5 -49 37 -77t81 -28q32 0 59 13t44 36l64 -68q-32 -34 -75.5 -52.5t-97.5 -18.5q-55 0 -103 25.5t-77 73t-29 108.5q0 67 29 119t80.5 81t117.5 29q44 0 87.5 -21.5t72 -64.5t28.5 -106zM164 259h210q-8 41 -34 60.5t-66 19.5q-35 0 -66 -20
t-44 -60z" />
    <glyph glyph-name="f" unicode="f" horiz-adv-x="358" 
d="M240 475l-7 -60h151l-11 -92h-152l-39 -323h-96l39 323h-55l11 92h56l8 68q10 87 55 128t126 41q28 0 53 -6t40 -16l-26 -84q-29 16 -67 16q-36 0 -58.5 -22t-27.5 -65z" />
    <glyph glyph-name="g" unicode="g" horiz-adv-x="527" 
d="M515 415l-47 -380q-27 -222 -247 -222q-67 0 -114.5 24t-70.5 61l68 62q16 -23 49.5 -40t79.5 -17q60 0 95.5 33t42.5 87l1 10q-20 -19 -53 -30.5t-70 -11.5q-52 0 -95 28t-68 75.5t-25 102.5q0 65 28 117.5t78 82.5t114 30q40 0 76 -16.5t56 -42.5l6 47h96zM401 265
q-14 34 -46 53t-67 19q-57 0 -93.5 -38.5t-36.5 -98.5q0 -58 31.5 -88.5t82.5 -30.5q31 0 62 15t51 44z" />
    <glyph glyph-name="h" unicode="h" horiz-adv-x="509" 
d="M485 270q0 -16 -1 -24l-30 -246h-96l30 241q1 7 1 19q0 38 -20.5 57.5t-58.5 19.5q-33 0 -66.5 -20t-52.5 -59l-32 -258h-96l80 648h96l-34 -274q48 53 126 53q42 0 77.5 -19.5t56 -55t20.5 -82.5z" />
    <glyph glyph-name="i" unicode="i" horiz-adv-x="222" 
d="M114 415h96l-51 -415h-96zM110 556q0 29 21 49.5t49 20.5q29 0 49.5 -20.5t20.5 -49.5q0 -28 -20.5 -49t-49.5 -21q-28 0 -49 21t-21 49z" />
    <glyph glyph-name="j" unicode="j" horiz-adv-x="222" 
d="M110 556q0 29 21 49.5t49 20.5q29 0 49.5 -20.5t20.5 -49.5q0 -28 -20.5 -49t-49.5 -21q-28 0 -49 21t-21 49zM-62 -180l28 88q18 -5 31 -5q22 0 40 16.5t22 48.5l55 447h96l-55 -449q-19 -153 -157 -153q-35 0 -60 7z" />
    <glyph glyph-name="k" unicode="k" horiz-adv-x="458" 
d="M352 0l-168 204l-25 -204h-96l80 648h96l-50 -409l271 183l-15 -115l-148 -99l172 -208h-117z" />
    <glyph glyph-name="l" unicode="l" horiz-adv-x="222" 
d="M143 648h96l-80 -648h-96z" />
    <glyph glyph-name="m" unicode="m" horiz-adv-x="781" 
d="M758 272q0 -8 -2 -26l-30 -246h-96l30 241q1 7 1 20q0 38 -20 57t-56 19q-32 0 -62 -16.5t-50 -45.5v-9q0 -13 -1 -20l-30 -246h-96l30 241q1 7 1 20q0 38 -20 57t-56 19q-30 0 -58.5 -15t-49.5 -42l-34 -280h-96l51 415h96l-5 -37q19 20 50.5 34.5t66.5 14.5
q38 0 70 -16.5t53 -46.5q26 26 64.5 44.5t88.5 18.5q70 0 115 -42.5t45 -112.5z" />
    <glyph glyph-name="n" unicode="n" horiz-adv-x="509" 
d="M485 270q0 -16 -1 -24l-30 -246h-96l30 241q1 7 1 19q0 38 -20.5 57.5t-58.5 19.5q-33 0 -66.5 -20.5t-52.5 -59.5l-32 -257h-96l51 415h96l-5 -41q48 53 126 53q42 0 77.5 -19.5t56 -55t20.5 -82.5z" />
    <glyph glyph-name="o" unicode="o" 
d="M59 195q0 67 29 120t81.5 82.5t120.5 29.5q55 0 103 -25.5t77 -71t29 -102.5q0 -69 -28.5 -122.5t-80.5 -84t-122 -30.5q-55 0 -103 26t-77 72.5t-29 105.5zM403 217q2 54 -32 87t-90 33q-52 0 -89 -38t-37 -98q0 -54 33 -87t86 -33q57 0 94 38t35 98z" />
    <glyph glyph-name="p" unicode="p" horiz-adv-x="527" 
d="M517 222q0 -65 -28 -118t-78 -83t-114 -30q-40 0 -76 17t-56 43l-28 -229h-96l73 593h96l-4 -29q21 19 54 30.5t69 11.5q52 0 95 -28t68 -75.5t25 -102.5zM420 219q0 58 -31.5 88.5t-82.5 30.5q-31 0 -61.5 -15t-51.5 -43l-15 -127q14 -34 45.5 -52.5t66.5 -18.5
q57 0 93.5 38.5t36.5 98.5z" />
    <glyph glyph-name="q" unicode="q" horiz-adv-x="527" 
d="M515 414l-73 -593h-96l26 212q-20 -18 -53.5 -30t-69.5 -12q-52 0 -95 28t-68 75.5t-25 102.5q0 65 28 117.5t78 82.5t114 30q41 0 76.5 -16.5t55.5 -42.5l6 46h96zM385 139l16 126q-14 34 -46 53t-67 19q-57 0 -93.5 -38.5t-36.5 -98.5q0 -58 31.5 -88.5t82.5 -30.5
q31 0 62 15t51 43z" />
    <glyph glyph-name="r" unicode="r" horiz-adv-x="318" 
d="M353 418l-23 -90q-12 4 -30 4q-33 0 -61.5 -21t-48.5 -60l-31 -251h-96l51 415h96l-6 -48q18 25 48 40t68 15q21 0 33 -4z" />
    <glyph glyph-name="s" unicode="s" horiz-adv-x="369" 
d="M32 100l78 46q15 -35 39.5 -53t56.5 -18q29 0 43.5 12t14.5 29q0 16 -9.5 26.5t-29.5 19.5l-58 26q-44 21 -63.5 48t-19.5 67q0 59 41.5 91.5t108.5 32.5q45 0 83.5 -25.5t52.5 -69.5l-78 -34q-6 22 -25 34.5t-38 12.5q-23 0 -36 -11.5t-13 -28.5q0 -25 37 -40l62 -30
q41 -20 61 -47t20 -66q0 -61 -43.5 -96t-114.5 -35q-56 0 -103 28.5t-67 80.5z" />
    <glyph glyph-name="t" unicode="t" horiz-adv-x="298" 
d="M317 323h-95l-40 -323h-96l40 323h-56l11 92h56l18 147h96l-18 -147h95z" />
    <glyph glyph-name="u" unicode="u" horiz-adv-x="485" 
d="M74 160q0 9 2 27l28 228h96l-27 -224q-1 -7 -1 -21q0 -42 22.5 -65.5t62.5 -23.5q88 0 103 110l27 224h96l-30 -247q-11 -90 -63 -133.5t-146 -43.5q-49 0 -87.5 21.5t-60.5 60t-22 87.5z" />
    <glyph glyph-name="v" unicode="v" horiz-adv-x="457" 
d="M516 415l-288 -424l-185 424l108 1l96 -233l154 232h115z" />
    <glyph glyph-name="w" unicode="w" horiz-adv-x="620" 
d="M433 -9l-90 249l-158 -249l-136 424h102l65 -219l147 231l82 -229l117 217h111z" />
    <glyph glyph-name="x" unicode="x" horiz-adv-x="450" 
d="M306 205l136 -205h-107l-90 136l-120 -136h-117l187 211l-135 204h107l89 -134l119 134h117z" />
    <glyph glyph-name="y" unicode="y" horiz-adv-x="457" 
d="M516 415l-400 -593h-112l180 268l-141 325h105l98 -234l158 234h112z" />
    <glyph glyph-name="z" unicode="z" horiz-adv-x="417" 
d="M198 92h194l-11 -92h-367l254 323h-185l11 92h357z" />
    <glyph glyph-name="braceleft" unicode="{" horiz-adv-x="279" 
d="M86 -28q0 13 1 20l23 185l1 12q0 35 -28 35h-5l12 95h5q33 0 38 47l23 185q7 59 34.5 92t78.5 33h64l-10 -82h-38q-19 0 -28.5 -12t-12.5 -38l-24 -193q-4 -37 -17.5 -59t-31.5 -28q29 -11 29 -63q0 -15 -1 -23l-22 -180q-2 -18 -2 -22q0 -16 6.5 -22t23.5 -6h39l-10 -82
h-50q-44 0 -71 29t-27 77z" />
    <glyph glyph-name="bar" unicode="|" horiz-adv-x="232" 
d="M103 628h86v-762h-86v762z" />
    <glyph glyph-name="braceright" unicode="}" horiz-adv-x="279" 
d="M260 570q0 -13 -1 -20l-23 -185l-1 -12q0 -35 28 -35h5l-12 -95h-5q-33 0 -38 -47l-23 -185q-7 -59 -34.5 -92t-78.5 -33h-64l10 82h38q19 0 28.5 12t12.5 38l24 193q4 37 17.5 59t31.5 28q-29 11 -29 63q0 15 1 23l22 180q2 18 2 22q0 16 -6.5 22t-23.5 6h-39l10 82h50
q44 0 71 -29t27 -77z" />
    <glyph glyph-name="asciitilde" unicode="~" horiz-adv-x="502" 
d="M511 345l-12 -98l-143 -81l-152 96l-150 -85l13 99l142 80l153 -96z" />
    <glyph glyph-name="uni00A0" unicode="&#xa0;" horiz-adv-x="188" 
 />
    <glyph glyph-name="exclamdown" unicode="&#xa1;" horiz-adv-x="304" 
d="M121 353q0 30 22.5 52t52.5 22q31 0 52.5 -21.5t21.5 -52.5q0 -30 -22 -52.5t-52 -22.5t-52.5 22.5t-22.5 52.5zM129 205h98l-47 -383h-98z" />
    <glyph glyph-name="cent" unicode="&#xa2;" horiz-adv-x="452" 
d="M377 130l64 -68q-58 -61 -145 -70l-9 -71h-76l9 75q-69 16 -115 70t-46 129q0 64 27 115.5t75.5 82t111.5 33.5l9 71h76l-10 -78q37 -10 68.5 -32t52.5 -54l-77 -58q-14 29 -43 45.5t-68 16.5q-52 0 -89 -38t-37 -98q0 -54 33 -87t86 -33q32 0 59 13t44 36z" />
    <glyph glyph-name="sterling" unicode="&#xa3;" horiz-adv-x="616" 
d="M320 429l-8 -62h179l-9 -74h-179l-25 -201h273l-11 -92h-440l11 92h71l25 201h-71l9 74h71l8 67q11 96 65 149.5t146 53.5q49 0 90 -23t64 -62.5t22 -84.5l-94 -20q-1 47 -25 73.5t-65 26.5q-44 0 -72 -31.5t-35 -86.5z" />
    <glyph glyph-name="currency" unicode="&#xa4;" horiz-adv-x="533" 
d="M447 8l-66 66q-43 -23 -87 -23q-47 0 -87 24l-67 -67l-63 62l68 68q-23 38 -23 86q0 46 23 86l-67 67l63 63l67 -67q38 23 86 23q47 0 85 -23l67 67l63 -63l-66 -66q24 -42 24 -87t-24 -87l67 -67zM294 135q36 0 61.5 25.5t25.5 63.5q0 37 -25.5 62.5t-61.5 25.5
t-61 -25.5t-25 -62.5q0 -38 25 -63.5t61 -25.5z" />
    <glyph glyph-name="yen" unicode="&#xa5;" horiz-adv-x="594" 
d="M484 429h58l-9 -74h-101l-46 -64h139l-9 -74h-145l-26 -217h-96l26 217h-143l9 74h137l-30 64h-99l9 74h56l-91 199h100l115 -257l178 257h109z" />
    <glyph glyph-name="brokenbar" unicode="&#xa6;" horiz-adv-x="232" 
d="M103 628h86v-331h-86v331zM103 197h86v-331h-86v331z" />
    <glyph glyph-name="section" unicode="&#xa7;" horiz-adv-x="494" 
d="M79 -84l72 40q32 -60 87 -60q35 0 56.5 23t21.5 50q0 39 -24 63t-78 47q-50 21 -75 59.5t-25 83.5q0 40 20.5 78t61.5 59q-51 43 -51 120q0 71 45.5 114.5t126.5 43.5q52 0 92 -26.5t62 -76.5l-72 -40q-32 60 -87 60q-35 0 -56.5 -22t-21.5 -49q0 -39 24 -63t78 -47
q50 -21 75 -58.5t25 -80.5t-20.5 -81.5t-61.5 -59.5q51 -43 51 -120q0 -71 -45.5 -115.5t-126.5 -44.5q-52 0 -92 26.5t-62 76.5zM346 226q0 29 -20.5 49.5t-45.5 20.5q-30 0 -53 -22t-23 -48q0 -29 20.5 -49.5t45.5 -20.5q30 0 53 22t23 48z" />
    <glyph glyph-name="dieresis" unicode="&#xa8;" 
d="M153 555q0 25 17 41.5t42 16.5t42.5 -16.5t17.5 -41.5q0 -23 -17.5 -40.5t-42.5 -17.5q-24 0 -41.5 17.5t-17.5 40.5zM372 555q0 24 18 41t42 17q25 0 42 -16.5t17 -41.5q0 -24 -17 -41t-42 -17q-24 0 -42 17.5t-18 40.5z" />
    <glyph glyph-name="copyright" unicode="&#xa9;" horiz-adv-x="729" 
d="M77 314q0 88 42.5 162t117 117.5t166.5 43.5t166.5 -43.5t117 -117.5t42.5 -162q0 -89 -42.5 -163t-117 -117t-166.5 -43t-166.5 43t-117 117t-42.5 163zM643 314q0 66 -30.5 122t-85.5 89.5t-124 33.5t-124 -33.5t-85.5 -89.5t-30.5 -122t30.5 -122t85.5 -89.5
t124 -33.5t124 33.5t85.5 89.5t30.5 122zM241 314q0 44 23.5 82t62.5 60t83 22q40 0 76 -18.5t60 -49.5l-70 -52q-11 15 -28 26t-38 11q-35 0 -56 -23.5t-21 -57.5t21 -57.5t56 -23.5q21 0 38 11t28 26l70 -52q-24 -31 -60 -49.5t-76 -18.5q-44 0 -83 22t-62.5 60t-23.5 82z
" />
    <glyph glyph-name="ordfeminine" unicode="&#xaa;" horiz-adv-x="324" 
d="M359 519q0 -13 -1 -19l-23 -187h-77l3 26q-34 -32 -90 -32q-45 0 -73.5 27.5t-28.5 69.5q0 48 36.5 77t94.5 29q43 0 79 -20l1 6q1 5 1 15q0 52 -51 52q-21 0 -43 -9.5t-38 -25.5l-45 56q20 21 56.5 35.5t74.5 14.5q55 0 89.5 -31.5t34.5 -83.5zM269 408l3 24
q-12 8 -30 12.5t-36 4.5q-25 0 -42 -11t-17 -31q0 -17 12 -26t34 -9q43 0 76 36z" />
    <glyph glyph-name="guillemotleft" unicode="&#xab;" horiz-adv-x="505" 
d="M173 200l82 -165l-76 -44l-108 218l162 218l73 -50zM373 200l82 -165l-76 -44l-108 218l162 218l73 -50z" />
    <glyph glyph-name="logicalnot" unicode="&#xac;" horiz-adv-x="458" 
d="M353 180h-293l11 89h382l-29 -235h-89z" />
    <glyph glyph-name="uni00AD" unicode="&#xad;" horiz-adv-x="291" 
d="M68 289h225l-11 -90h-225z" />
    <glyph glyph-name="registered" unicode="&#xae;" horiz-adv-x="729" 
d="M729 314q0 -89 -42.5 -163t-117 -117t-166.5 -43t-166.5 43t-117 117t-42.5 163q0 88 42.5 162t117 117.5t166.5 43.5t166.5 -43.5t117 -117.5t42.5 -162zM643 314q0 66 -30.5 122t-85.5 89.5t-124 33.5t-124 -33.5t-85.5 -89.5t-30.5 -122t30.5 -122t85.5 -89.5
t124 -33.5t124 33.5t85.5 89.5t30.5 122zM473 282l98 -126h-95l-87 111h-10v-111h-82v316h118q48 0 75.5 -29t27.5 -73q0 -28 -11.5 -51.5t-33.5 -36.5zM379 399v-57h20q37 0 37 28q0 29 -37 29h-20z" />
    <glyph glyph-name="macron" unicode="&#xaf;" 
d="M183 596h286l-10 -82h-286z" />
    <glyph glyph-name="degree" unicode="&#xb0;" horiz-adv-x="435" 
d="M102 465q0 46 23 85.5t62.5 63t86.5 23.5t86.5 -23.5t63 -63t23.5 -85.5q0 -47 -23.5 -86.5t-63 -63t-86.5 -23.5t-86.5 23.5t-62.5 63t-23 86.5zM361 465q0 37 -25.5 62.5t-61.5 25.5t-61 -25.5t-25 -62.5q0 -38 25 -63.5t61 -25.5t61.5 25.5t25.5 63.5z" />
    <glyph glyph-name="plusminus" unicode="&#xb1;" horiz-adv-x="458" 
d="M463 349l-11 -89h-146l-6 -45h-89l6 45h-147l11 89h147l8 66h89l-8 -66h146zM61 189h382l-11 -89h-382z" />
    <glyph glyph-name="uni00B2" unicode="&#xb2;" horiz-adv-x="275" 
d="M191 456q5 5 21.5 21t24.5 29t8 24q0 13 -8.5 21t-22.5 8q-16 0 -29.5 -10.5t-19.5 -27.5l-71 23q16 43 50.5 66t78.5 23q42 0 69.5 -28t27.5 -64q0 -27 -12 -54.5t-44 -59.5l-43 -43h78l-9 -70h-241z" />
    <glyph glyph-name="uni00B3" unicode="&#xb3;" horiz-adv-x="264" 
d="M64 384l67 31q6 -15 19.5 -23t30.5 -8q16 0 26 8t10 21q0 10 -9 16.5t-24 6.5h-30l9 70h21q17 0 28 8t11 20t-7.5 18.5t-20.5 6.5q-12 0 -25.5 -7t-21.5 -21l-62 41q20 29 49.5 45t66.5 16q39 0 68 -24t29 -61q0 -26 -11.5 -47t-29.5 -30q36 -19 36 -61
q0 -45 -31.5 -72.5t-84.5 -27.5q-43 0 -74 22t-40 52z" />
    <glyph glyph-name="acute" unicode="&#xb4;" 
d="M340 628h146l-161 -131h-91z" />
    <glyph glyph-name="paragraph" unicode="&#xb6;" horiz-adv-x="547" 
d="M253 262q-45 0 -80.5 24t-55 65t-19.5 90t27 92t75 69t106 26h245l-94 -762h-86l83 680h-81l-83 -680h-86z" />
    <glyph glyph-name="periodcentered" unicode="&#xb7;" horiz-adv-x="250" 
d="M81 245q0 30 22.5 52t52.5 22q31 0 52.5 -21.5t21.5 -52.5q0 -30 -22 -52.5t-52 -22.5t-52.5 22.5t-22.5 52.5z" />
    <glyph glyph-name="cedilla" unicode="&#xb8;" horiz-adv-x="452" 
d="M118 -172l21 50q25 -10 66 -10q25 0 40 6.5t15 17.5q0 15 -24 15h-99l78 93h67l-43 -45l22 2l13 1q34 0 51.5 -16t17.5 -43q0 -42 -39 -64t-100 -22q-48 0 -86 15z" />
    <glyph glyph-name="uni00B9" unicode="&#xb9;" horiz-adv-x="195" 
d="M198 314h-77l30 240h-78l73 74h91z" />
    <glyph glyph-name="ordmasculine" unicode="&#xba;" horiz-adv-x="371" 
d="M77 464q0 49 22.5 87.5t62 60t89.5 21.5q39 0 75.5 -18t59.5 -54t23 -86q0 -49 -22.5 -87.5t-62 -60t-89.5 -21.5q-39 0 -75.5 18t-59.5 54t-23 86zM332 472q0 42 -24.5 66t-60.5 24q-40 0 -66.5 -28t-26.5 -67q0 -42 25 -66t61 -24q39 0 65.5 28t26.5 67z" />
    <glyph glyph-name="guillemotright" unicode="&#xbb;" horiz-adv-x="504" 
d="M285 209l-162 -218l-73 50l133 177l-82 165l76 44zM485 209l-162 -218l-73 50l133 177l-82 165l76 44z" />
    <glyph glyph-name="onequarter" unicode="&#xbc;" horiz-adv-x="592" 
d="M33 43l534 594l56 -53l-534 -593zM208 314h-77l30 240h-78l73 74h91zM570 105l-8 -66h-33l-5 -39h-72l5 39h-185l291 280l-26 -214h33zM465 105l7 53l-55 -53h48z" />
    <glyph glyph-name="onehalf" unicode="&#xbd;" horiz-adv-x="619" 
d="M33 43l534 594l56 -53l-534 -593zM208 314h-77l30 240h-78l73 74h91zM477 143q5 5 21.5 21t24.5 29t8 24q0 13 -8.5 21t-22.5 8q-16 0 -29.5 -10.5t-19.5 -27.5l-71 23q16 43 50.5 66t78.5 23q42 0 69.5 -28t27.5 -64q0 -27 -12 -54.5t-44 -59.5l-43 -43h78l-9 -70h-241z
" />
    <glyph glyph-name="threequarters" unicode="&#xbe;" horiz-adv-x="646" 
d="M87 43l534 594l56 -53l-534 -593zM624 105l-8 -66h-33l-5 -39h-72l5 39h-185l291 280l-26 -214h33zM519 105l7 53l-55 -53h48zM73 384l67 31q6 -15 19.5 -23t30.5 -8q16 0 26 8t10 21q0 10 -9 16.5t-24 6.5h-30l9 70h21q17 0 28 8t11 20t-7.5 18.5t-20.5 6.5
q-12 0 -25.5 -7t-21.5 -21l-62 41q20 29 49.5 45t66.5 16q39 0 68 -24t29 -61q0 -26 -11.5 -47t-29.5 -30q36 -19 36 -61q0 -45 -31.5 -72.5t-84.5 -27.5q-43 0 -74 22t-40 52z" />
    <glyph glyph-name="questiondown" unicode="&#xbf;" horiz-adv-x="435" 
d="M230 353q0 30 22.5 52t52.5 22q31 0 52.5 -21.5t21.5 -52.5q0 -30 -22 -52.5t-52 -22.5t-52.5 22.5t-22.5 52.5zM32 -23q0 86 51.5 140.5t148.5 61.5l7 58h98l-19 -146h-59q-63 0 -97 -32t-34 -77q0 -40 25 -59t57 -19q35 0 61.5 19t48.5 54l78 -55q-31 -47 -79 -78
t-112 -31q-50 0 -89.5 21t-62.5 58.5t-23 84.5z" />
    <glyph glyph-name="Agrave" unicode="&#xc0;" horiz-adv-x="625" 
d="M459 154h-248l-92 -154h-114l385 637l230 -637h-106zM426 247l-59 166l-100 -166h159zM258 798h145l82 -111h-88z" />
    <glyph glyph-name="Aacute" unicode="&#xc1;" horiz-adv-x="625" 
d="M459 154h-248l-92 -154h-114l385 637l230 -637h-106zM426 247l-59 166l-100 -166h159zM414 798h150l-162 -111h-93z" />
    <glyph glyph-name="Acircumflex" unicode="&#xc2;" horiz-adv-x="625" 
d="M459 154h-248l-92 -154h-114l385 637l230 -637h-106zM426 247l-59 166l-100 -166h159zM450 687l-43 41l-53 -41h-127l185 121l155 -121h-117z" />
    <glyph glyph-name="Atilde" unicode="&#xc3;" horiz-adv-x="625" 
d="M459 154h-248l-92 -154h-114l385 637l230 -637h-106zM426 247l-59 166l-100 -166h159zM243 708q19 43 45.5 63.5t64.5 20.5q18 0 31.5 -4t30.5 -12l8 -4q20 -10 34 -10q13 0 24.5 8.5t18.5 24.5l67 -18q-19 -43 -45.5 -63.5t-64.5 -20.5q-18 0 -31.5 4t-30.5 12l-8 4
q-20 10 -34 10q-12 0 -24 -8.5t-19 -24.5z" />
    <glyph glyph-name="Adieresis" unicode="&#xc4;" horiz-adv-x="625" 
d="M459 154h-248l-92 -154h-114l385 637l230 -637h-106zM426 247l-59 166l-100 -166h159zM241 743q0 24 17 41t40 17q24 0 41 -16.5t17 -41.5q0 -23 -17 -40.5t-41 -17.5q-23 0 -40 17.5t-17 40.5zM454 743q0 24 17 41t41 17t40.5 -16.5t16.5 -41.5q0 -23 -17 -40.5
t-40 -17.5t-40.5 17.5t-17.5 40.5z" />
    <glyph glyph-name="Aring" unicode="&#xc5;" horiz-adv-x="625" 
d="M459 154h-248l-92 -154h-114l385 637l230 -637h-106zM426 247l-59 166l-100 -166h159zM316 745q0 36 26 62t62 26t62 -26t26 -62t-26 -62t-62 -26t-62 26t-26 62zM438 745q0 14 -10 24.5t-24 10.5t-24 -10.5t-10 -24.5t10 -24.5t24 -10.5t24 10.5t10 24.5z" />
    <glyph glyph-name="AE" unicode="&#xc6;" horiz-adv-x="830" 
d="M596 531l-19 -153h177l-11 -97h-178l-22 -184h259l-12 -97h-360l19 154h-223l-109 -154h-122l443 628h429l-12 -97h-259zM460 247l36 290l-205 -290h169z" />
    <glyph glyph-name="Ccedilla" unicode="&#xc7;" horiz-adv-x="648" 
d="M72 296q0 99 46 177t124 121t171 43q86 0 156 -37.5t110 -104.5l-84 -57q-25 49 -73.5 75.5t-112.5 26.5t-118 -30.5t-86 -85t-32 -122.5q0 -101 58 -157.5t158 -56.5q50 0 96 21t78 59l73 -67q-48 -52 -114 -81t-140 -29q-87 0 -158 37.5t-111.5 106.5t-40.5 161z
M232 -172l21 52q25 -10 66 -10q25 0 38 5.5t13 16.5q0 8 -5.5 10.5t-17.5 2.5h-97l79 95h72l-47 -45l21 2l13 1q32 0 51.5 -15.5t19.5 -39.5q0 -44 -41.5 -67t-99.5 -23q-48 0 -86 15z" />
    <glyph glyph-name="Egrave" unicode="&#xc8;" horiz-adv-x="468" 
d="M234 531l-19 -153h177l-11 -97h-178l-22 -184h259l-12 -97h-360l77 628h360l-12 -97h-259zM194 798h145l82 -111h-88z" />
    <glyph glyph-name="Eacute" unicode="&#xc9;" horiz-adv-x="468" 
d="M234 531l-19 -153h177l-11 -97h-178l-22 -184h259l-12 -97h-360l77 628h360l-12 -97h-259zM350 798h150l-162 -111h-93z" />
    <glyph glyph-name="Ecircumflex" unicode="&#xca;" horiz-adv-x="468" 
d="M234 531l-19 -153h177l-11 -97h-178l-22 -184h259l-12 -97h-360l77 628h360l-12 -97h-259zM386 687l-43 41l-53 -41h-127l185 121l155 -121h-117z" />
    <glyph glyph-name="Edieresis" unicode="&#xcb;" horiz-adv-x="468" 
d="M234 531l-19 -153h177l-11 -97h-178l-22 -184h259l-12 -97h-360l77 628h360l-12 -97h-259zM176 743q0 24 17 41t40 17q24 0 41 -16.5t17 -41.5q0 -23 -17 -40.5t-41 -17.5q-23 0 -40 17.5t-17 40.5zM389 743q0 24 17 41t41 17t40.5 -16.5t16.5 -41.5q0 -23 -17 -40.5
t-40 -17.5t-40.5 17.5t-17.5 40.5z" />
    <glyph glyph-name="Igrave" unicode="&#xcc;" horiz-adv-x="237" 
d="M145 628h101l-77 -628h-101zM65 798h145l82 -111h-88z" />
    <glyph glyph-name="Iacute" unicode="&#xcd;" horiz-adv-x="237" 
d="M145 628h101l-77 -628h-101zM221 798h150l-162 -111h-93z" />
    <glyph glyph-name="Icircumflex" unicode="&#xce;" horiz-adv-x="237" 
d="M145 628h101l-77 -628h-101zM257 687l-43 41l-53 -41h-127l185 121l155 -121h-117z" />
    <glyph glyph-name="Idieresis" unicode="&#xcf;" horiz-adv-x="237" 
d="M145 628h101l-77 -628h-101zM46 743q0 24 17 41t40 17q24 0 41 -16.5t17 -41.5q0 -23 -17 -40.5t-41 -17.5q-23 0 -40 17.5t-17 40.5zM259 743q0 24 17 41t41 17t40.5 -16.5t16.5 -41.5q0 -23 -17 -40.5t-40 -17.5t-40.5 17.5t-17.5 40.5z" />
    <glyph glyph-name="Eth" unicode="&#xd0;" horiz-adv-x="629" 
d="M634 332q-1 -99 -47.5 -174.5t-124 -116.5t-169.5 -41h-225l34 281h-49l11 86h49l32 261h101h78q86 0 156 -35t111.5 -102.5t42.5 -158.5zM533 326q-2 100 -59.5 152.5t-153.5 52.5h-86l-20 -164h97l-11 -86h-97l-22 -184h119q61 0 114.5 28.5t85.5 80.5t33 120z" />
    <glyph glyph-name="Ntilde" unicode="&#xd1;" horiz-adv-x="681" 
d="M612 -9l-391 424l-52 -415h-101l78 637l392 -425l51 416h101zM271 708q19 43 45.5 63.5t64.5 20.5q18 0 31.5 -4t30.5 -12l8 -4q20 -10 34 -10q13 0 24.5 8.5t18.5 24.5l67 -18q-19 -43 -45.5 -63.5t-64.5 -20.5q-18 0 -31.5 4t-30.5 12l-8 4q-20 10 -34 10
q-12 0 -24 -8.5t-19 -24.5z" />
    <glyph glyph-name="Ograve" unicode="&#xd2;" horiz-adv-x="718" 
d="M72 296q0 99 46 177t124 121t171 43q86 0 156 -37.5t111.5 -106.5t42.5 -161q-1 -99 -47.5 -177t-124 -121t-169.5 -43q-87 0 -158 37.5t-111.5 106.5t-40.5 161zM622 326q-2 101 -60 157.5t-153 56.5q-64 0 -118 -30.5t-86 -85t-32 -122.5q0 -101 58 -157.5t158 -56.5
q61 0 114 30.5t85.5 85t33.5 122.5zM304 798h145l82 -111h-88z" />
    <glyph glyph-name="Oacute" unicode="&#xd3;" horiz-adv-x="718" 
d="M72 296q0 99 46 177t124 121t171 43q86 0 156 -37.5t111.5 -106.5t42.5 -161q-1 -99 -47.5 -177t-124 -121t-169.5 -43q-87 0 -158 37.5t-111.5 106.5t-40.5 161zM622 326q-2 101 -60 157.5t-153 56.5q-64 0 -118 -30.5t-86 -85t-32 -122.5q0 -101 58 -157.5t158 -56.5
q61 0 114 30.5t85.5 85t33.5 122.5zM460 798h150l-162 -111h-93z" />
    <glyph glyph-name="Ocircumflex" unicode="&#xd4;" horiz-adv-x="718" 
d="M72 296q0 99 46 177t124 121t171 43q86 0 156 -37.5t111.5 -106.5t42.5 -161q-1 -99 -47.5 -177t-124 -121t-169.5 -43q-87 0 -158 37.5t-111.5 106.5t-40.5 161zM622 326q-2 101 -60 157.5t-153 56.5q-64 0 -118 -30.5t-86 -85t-32 -122.5q0 -101 58 -157.5t158 -56.5
q61 0 114 30.5t85.5 85t33.5 122.5zM496 687l-43 41l-53 -41h-127l185 121l155 -121h-117z" />
    <glyph glyph-name="Otilde" unicode="&#xd5;" horiz-adv-x="718" 
d="M72 296q0 99 46 177t124 121t171 43q86 0 156 -37.5t111.5 -106.5t42.5 -161q-1 -99 -47.5 -177t-124 -121t-169.5 -43q-87 0 -158 37.5t-111.5 106.5t-40.5 161zM622 326q-2 101 -60 157.5t-153 56.5q-64 0 -118 -30.5t-86 -85t-32 -122.5q0 -101 58 -157.5t158 -56.5
q61 0 114 30.5t85.5 85t33.5 122.5zM288 708q19 43 45.5 63.5t64.5 20.5q18 0 31.5 -4t30.5 -12l8 -4q20 -10 34 -10q13 0 24.5 8.5t18.5 24.5l67 -18q-19 -43 -45.5 -63.5t-64.5 -20.5q-18 0 -31.5 4t-30.5 12l-8 4q-20 10 -34 10q-12 0 -24 -8.5t-19 -24.5z" />
    <glyph glyph-name="Odieresis" unicode="&#xd6;" horiz-adv-x="718" 
d="M72 296q0 99 46 177t124 121t171 43q86 0 156 -37.5t111.5 -106.5t42.5 -161q-1 -99 -47.5 -177t-124 -121t-169.5 -43q-87 0 -158 37.5t-111.5 106.5t-40.5 161zM622 326q-2 101 -60 157.5t-153 56.5q-64 0 -118 -30.5t-86 -85t-32 -122.5q0 -101 58 -157.5t158 -56.5
q61 0 114 30.5t85.5 85t33.5 122.5zM286 743q0 24 17 41t40 17q24 0 41 -16.5t17 -41.5q0 -23 -17 -40.5t-41 -17.5q-23 0 -40 17.5t-17 40.5zM499 743q0 24 17 41t41 17t40.5 -16.5t16.5 -41.5q0 -23 -17 -40.5t-40 -17.5t-40.5 17.5t-17.5 40.5z" />
    <glyph glyph-name="multiply" unicode="&#xd7;" horiz-adv-x="457" 
d="M317 223l108 -120l-68 -59l-107 119l-134 -119l-58 59l137 122l-108 120l68 60l107 -120l134 120l58 -60z" />
    <glyph glyph-name="Oslash" unicode="&#xd8;" horiz-adv-x="718" 
d="M673 505q49 -74 50 -173q-1 -99 -47.5 -177t-124 -121t-169.5 -43q-59 0 -112 17.5t-93 51.5l-77 -69l-56 61l77 69q-49 76 -49 175t46 177t124 121t171 43q59 0 111 -18t93 -52l78 70l57 -61zM198 190l345 310q-55 40 -134 40q-64 0 -118 -30.5t-86 -85t-32 -122.5
q0 -64 25 -112zM596 436l-344 -309q54 -39 137 -39q61 0 114 30.5t85.5 85t33.5 122.5q-1 64 -26 110z" />
    <glyph glyph-name="Ugrave" unicode="&#xd9;" horiz-adv-x="642" 
d="M87 228q0 20 3 41l44 359h101l-43 -355q-2 -14 -2 -40q0 -71 34.5 -108t102.5 -37q81 0 130.5 49t60.5 136l43 355h101l-44 -359q-16 -132 -93.5 -205t-209.5 -73q-66 0 -117.5 29.5t-81 83.5t-29.5 124zM267 798h145l82 -111h-88z" />
    <glyph glyph-name="Uacute" unicode="&#xda;" horiz-adv-x="642" 
d="M87 228q0 20 3 41l44 359h101l-43 -355q-2 -14 -2 -40q0 -71 34.5 -108t102.5 -37q81 0 130.5 49t60.5 136l43 355h101l-44 -359q-16 -132 -93.5 -205t-209.5 -73q-66 0 -117.5 29.5t-81 83.5t-29.5 124zM424 798h150l-162 -111h-93z" />
    <glyph glyph-name="Ucircumflex" unicode="&#xdb;" horiz-adv-x="642" 
d="M87 228q0 20 3 41l44 359h101l-43 -355q-2 -14 -2 -40q0 -71 34.5 -108t102.5 -37q81 0 130.5 49t60.5 136l43 355h101l-44 -359q-16 -132 -93.5 -205t-209.5 -73q-66 0 -117.5 29.5t-81 83.5t-29.5 124zM459 687l-43 41l-53 -41h-127l185 121l155 -121h-117z" />
    <glyph glyph-name="Udieresis" unicode="&#xdc;" horiz-adv-x="642" 
d="M87 228q0 20 3 41l44 359h101l-43 -355q-2 -14 -2 -40q0 -71 34.5 -108t102.5 -37q81 0 130.5 49t60.5 136l43 355h101l-44 -359q-16 -132 -93.5 -205t-209.5 -73q-66 0 -117.5 29.5t-81 83.5t-29.5 124zM249 743q0 24 17 41t40 17q24 0 41 -16.5t17 -41.5
q0 -23 -17 -40.5t-41 -17.5q-23 0 -40 17.5t-17 40.5zM462 743q0 24 17 41t41 17t40.5 -16.5t16.5 -41.5q0 -23 -17 -40.5t-40 -17.5t-40.5 17.5t-17.5 40.5z" />
    <glyph glyph-name="Yacute" unicode="&#xdd;" horiz-adv-x="547" 
d="M357 271l-33 -271h-101l33 270l-174 358h110l123 -257l187 257h117zM376 798h150l-162 -111h-93z" />
    <glyph glyph-name="Thorn" unicode="&#xde;" horiz-adv-x="527" 
d="M549 354q0 -60 -24.5 -109.5t-75.5 -78.5t-126 -29h-137l-17 -137h-101l77 628h101l-13 -106h127q55 0 98 -22t67 -60.5t24 -85.5zM448 343q0 39 -26 60.5t-73 21.5h-128l-23 -191h128q55 0 88.5 32.5t33.5 76.5z" />
    <glyph glyph-name="germandbls" unicode="&#xdf;" horiz-adv-x="495" 
d="M187 4l27 89q33 -12 65 -12q49 0 76.5 36t27.5 85q0 50 -31.5 80t-79.5 30h-42l11 92h15q58 0 87 26t29 70q0 33 -17.5 50.5t-51.5 17.5q-36 0 -58.5 -25.5t-27.5 -67.5l-59 -475h-95l61 495q10 76 58.5 119t126.5 43q44 0 80.5 -18.5t57.5 -52t21 -76.5q0 -52 -21.5 -89
t-67.5 -62q49 -17 74.5 -59t25.5 -98q0 -93 -51.5 -152t-154.5 -59q-51 0 -86 13z" />
    <glyph glyph-name="agrave" unicode="&#xe0;" horiz-adv-x="457" 
d="M434 271q0 -7 -2 -25l-30 -246h-96l4 34q-22 -20 -50.5 -31.5t-74.5 -11.5q-61 0 -98.5 37.5t-37.5 90.5q0 67 44.5 105t128.5 38q65 0 113 -26l1 5q1 7 1 20q0 38 -20.5 58.5t-58.5 20.5q-29 0 -55.5 -13.5t-42.5 -30.5l-57 63q33 33 76.5 50.5t94.5 17.5q70 0 115 -43
t45 -113zM321 120l6 46q-39 22 -96 22q-37 0 -61 -17t-24 -44q0 -25 17 -40t45 -15q31 0 61.5 12.5t51.5 35.5zM151 628h138l82 -131h-84z" />
    <glyph glyph-name="aacute" unicode="&#xe1;" horiz-adv-x="457" 
d="M434 271q0 -7 -2 -25l-30 -246h-96l4 34q-22 -20 -50.5 -31.5t-74.5 -11.5q-61 0 -98.5 37.5t-37.5 90.5q0 67 44.5 105t128.5 38q65 0 113 -26l1 5q1 7 1 20q0 38 -20.5 58.5t-58.5 20.5q-29 0 -55.5 -13.5t-42.5 -30.5l-57 63q33 33 76.5 50.5t94.5 17.5q70 0 115 -43
t45 -113zM321 120l6 46q-39 22 -96 22q-37 0 -61 -17t-24 -44q0 -25 17 -40t45 -15q31 0 61.5 12.5t51.5 35.5zM319 628h146l-161 -131h-91z" />
    <glyph glyph-name="acircumflex" unicode="&#xe2;" horiz-adv-x="457" 
d="M434 271q0 -7 -2 -25l-30 -246h-96l4 34q-22 -20 -50.5 -31.5t-74.5 -11.5q-61 0 -98.5 37.5t-37.5 90.5q0 67 44.5 105t128.5 38q65 0 113 -26l1 5q1 7 1 20q0 38 -20.5 58.5t-58.5 20.5q-29 0 -55.5 -13.5t-42.5 -30.5l-57 63q33 33 76.5 50.5t94.5 17.5q70 0 115 -43
t45 -113zM321 120l6 46q-39 22 -96 22q-37 0 -61 -17t-24 -44q0 -25 17 -40t45 -15q31 0 61.5 12.5t51.5 35.5zM349 497l-46 46l-58 -46h-122l186 140l152 -140h-112z" />
    <glyph glyph-name="atilde" unicode="&#xe3;" horiz-adv-x="457" 
d="M434 271q0 -7 -2 -25l-30 -246h-96l4 34q-22 -20 -50.5 -31.5t-74.5 -11.5q-61 0 -98.5 37.5t-37.5 90.5q0 67 44.5 105t128.5 38q65 0 113 -26l1 5q1 7 1 20q0 38 -20.5 58.5t-58.5 20.5q-29 0 -55.5 -13.5t-42.5 -30.5l-57 63q33 33 76.5 50.5t94.5 17.5q70 0 115 -43
t45 -113zM321 120l6 46q-39 22 -96 22q-37 0 -61 -17t-24 -44q0 -25 17 -40t45 -15q31 0 61.5 12.5t51.5 35.5zM126 525q14 42 45 65t66 23q21 0 33 -4t32 -14l8 -4q16 -8 31 -8q13 0 26 8.5t20 24.5l70 -19q-14 -42 -45 -65t-66 -23q-21 0 -33 4t-32 14l-8 4q-16 8 -31 8
q-13 0 -26 -8.5t-20 -24.5z" />
    <glyph glyph-name="adieresis" unicode="&#xe4;" horiz-adv-x="457" 
d="M434 271q0 -7 -2 -25l-30 -246h-96l4 34q-22 -20 -50.5 -31.5t-74.5 -11.5q-61 0 -98.5 37.5t-37.5 90.5q0 67 44.5 105t128.5 38q65 0 113 -26l1 5q1 7 1 20q0 38 -20.5 58.5t-58.5 20.5q-29 0 -55.5 -13.5t-42.5 -30.5l-57 63q33 33 76.5 50.5t94.5 17.5q70 0 115 -43
t45 -113zM321 120l6 46q-39 22 -96 22q-37 0 -61 -17t-24 -44q0 -25 17 -40t45 -15q31 0 61.5 12.5t51.5 35.5zM130 555q0 25 17 41.5t42 16.5t42.5 -16.5t17.5 -41.5q0 -23 -17.5 -40.5t-42.5 -17.5q-24 0 -41.5 17.5t-17.5 40.5zM349 555q0 24 18 41t42 17q25 0 42 -16.5
t17 -41.5q0 -24 -17 -41t-42 -17q-24 0 -42 17.5t-18 40.5z" />
    <glyph glyph-name="aring" unicode="&#xe5;" horiz-adv-x="457" 
d="M434 271q0 -7 -2 -25l-30 -246h-96l4 34q-22 -20 -50.5 -31.5t-74.5 -11.5q-61 0 -98.5 37.5t-37.5 90.5q0 67 44.5 105t128.5 38q65 0 113 -26l1 5q1 7 1 20q0 38 -20.5 58.5t-58.5 20.5q-29 0 -55.5 -13.5t-42.5 -30.5l-57 63q33 33 76.5 50.5t94.5 17.5q70 0 115 -43
t45 -113zM321 120l6 46q-39 22 -96 22q-37 0 -61 -17t-24 -44q0 -25 17 -40t45 -15q31 0 61.5 12.5t51.5 35.5zM211 569q0 36 26 62t62 26t62 -26t26 -62t-26 -62t-62 -26t-62 26t-26 62zM335 569q0 15 -10.5 26t-25.5 11q-14 0 -25 -11t-11 -26t11 -26t25 -11q15 0 25.5 11
t10.5 26z" />
    <glyph glyph-name="ae" unicode="&#xe6;" horiz-adv-x="749" 
d="M747 235q0 -26 -4 -49h-314q5 -49 37 -77t81 -28q32 0 59 13t44 36l64 -68q-32 -34 -75.5 -52.5t-97.5 -18.5q-48 0 -91 19.5t-72 54.5q-77 -74 -183 -74q-70 0 -108 36.5t-38 91.5q0 67 44.5 105t128.5 38q65 0 113 -26l1 5q1 7 1 20q0 38 -20.5 58.5t-58.5 20.5
q-29 0 -55.5 -13.5t-42.5 -30.5l-57 63q33 33 76.5 50.5t94.5 17.5q40 0 73.5 -15t54.5 -43q63 58 157 58q44 0 87.5 -21.5t72 -64.5t28.5 -106zM437 259h210q-8 41 -34 60.5t-66 19.5q-35 0 -66 -20t-44 -60zM339 141l-3 17q-17 15 -45.5 22.5t-59.5 7.5q-37 0 -61 -17
t-24 -44q0 -26 17.5 -40.5t51.5 -14.5q37 0 70 20t54 49z" />
    <glyph glyph-name="ccedilla" unicode="&#xe7;" horiz-adv-x="452" 
d="M59 195q0 67 29 120t81.5 82.5t120.5 29.5q55 0 102.5 -25t76.5 -69l-77 -58q-14 29 -43 45.5t-68 16.5q-52 0 -89 -38t-37 -98q0 -54 33 -87t86 -33q32 0 59 13t44 36l64 -68q-32 -34 -75.5 -52.5t-97.5 -18.5q-55 0 -103 26t-77 72.5t-29 105.5zM121 -172l21 50
q25 -10 66 -10q25 0 40 6.5t15 17.5q0 15 -24 15h-99l78 93h67l-43 -45l22 2l13 1q34 0 51.5 -16t17.5 -43q0 -42 -39 -64t-100 -22q-48 0 -86 15z" />
    <glyph glyph-name="egrave" unicode="&#xe8;" horiz-adv-x="476" 
d="M474 235q0 -26 -4 -49h-314q5 -49 37 -77t81 -28q32 0 59 13t44 36l64 -68q-32 -34 -75.5 -52.5t-97.5 -18.5q-55 0 -103 25.5t-77 73t-29 108.5q0 67 29 119t80.5 81t117.5 29q44 0 87.5 -21.5t72 -64.5t28.5 -106zM164 259h210q-8 41 -34 60.5t-66 19.5q-35 0 -66 -20
t-44 -60zM169 628h138l82 -131h-84z" />
    <glyph glyph-name="eacute" unicode="&#xe9;" horiz-adv-x="476" 
d="M474 235q0 -26 -4 -49h-314q5 -49 37 -77t81 -28q32 0 59 13t44 36l64 -68q-32 -34 -75.5 -52.5t-97.5 -18.5q-55 0 -103 25.5t-77 73t-29 108.5q0 67 29 119t80.5 81t117.5 29q44 0 87.5 -21.5t72 -64.5t28.5 -106zM164 259h210q-8 41 -34 60.5t-66 19.5q-35 0 -66 -20
t-44 -60zM337 628h146l-161 -131h-91z" />
    <glyph glyph-name="ecircumflex" unicode="&#xea;" horiz-adv-x="476" 
d="M474 235q0 -26 -4 -49h-314q5 -49 37 -77t81 -28q32 0 59 13t44 36l64 -68q-32 -34 -75.5 -52.5t-97.5 -18.5q-55 0 -103 25.5t-77 73t-29 108.5q0 67 29 119t80.5 81t117.5 29q44 0 87.5 -21.5t72 -64.5t28.5 -106zM164 259h210q-8 41 -34 60.5t-66 19.5q-35 0 -66 -20
t-44 -60zM367 497l-46 46l-58 -46h-122l186 140l152 -140h-112z" />
    <glyph glyph-name="edieresis" unicode="&#xeb;" horiz-adv-x="476" 
d="M474 235q0 -26 -4 -49h-314q5 -49 37 -77t81 -28q32 0 59 13t44 36l64 -68q-32 -34 -75.5 -52.5t-97.5 -18.5q-55 0 -103 25.5t-77 73t-29 108.5q0 67 29 119t80.5 81t117.5 29q44 0 87.5 -21.5t72 -64.5t28.5 -106zM164 259h210q-8 41 -34 60.5t-66 19.5q-35 0 -66 -20
t-44 -60zM149 555q0 25 17 41.5t42 16.5t42.5 -16.5t17.5 -41.5q0 -23 -17.5 -40.5t-42.5 -17.5q-24 0 -41.5 17.5t-17.5 40.5zM368 555q0 24 18 41t42 17q25 0 42 -16.5t17 -41.5q0 -24 -17 -41t-42 -17q-24 0 -42 17.5t-18 40.5z" />
    <glyph glyph-name="igrave" unicode="&#xec;" horiz-adv-x="222" 
d="M114 415h96l-51 -415h-96zM32 628h138l82 -131h-84z" />
    <glyph glyph-name="iacute" unicode="&#xed;" horiz-adv-x="222" 
d="M114 415h96l-51 -415h-96zM200 628h146l-161 -131h-91z" />
    <glyph glyph-name="icircumflex" unicode="&#xee;" horiz-adv-x="222" 
d="M326 497h-114l-31 41l-41 -41h-122l171 140zM114 415h96l-51 -415h-96z" />
    <glyph glyph-name="idieresis" unicode="&#xef;" horiz-adv-x="222" 
d="M39 555q0 25 17.5 42.5t42.5 17.5t42.5 -17.5t17.5 -42.5q0 -24 -17.5 -42t-42.5 -18t-42.5 18t-17.5 42zM200 555q0 25 18 42.5t42 17.5q26 0 43 -17t17 -43q0 -24 -17.5 -42t-42.5 -18q-24 0 -42 18t-18 42zM114 415h96l-51 -415h-96z" />
    <glyph glyph-name="eth" unicode="&#xf0;" 
d="M503 279q0 -137 -57.5 -212.5t-177.5 -75.5q-55 0 -103 26t-77 72.5t-29 105.5q0 67 29 120t81.5 82.5t120.5 29.5q32 0 63.5 -11t53.5 -33q-23 69 -71 114l-106 -50l-33 70l64 31q-35 15 -62 23l31 86q75 -25 128 -63l106 51l34 -70l-78 -37q83 -97 83 -259zM403 217
q2 54 -32 87t-90 33q-52 0 -89 -38t-37 -98q0 -54 33 -87t86 -33q57 0 94 38t35 98z" />
    <glyph glyph-name="ntilde" unicode="&#xf1;" horiz-adv-x="509" 
d="M485 270q0 -16 -1 -24l-30 -246h-96l30 241q1 7 1 19q0 38 -20.5 57.5t-58.5 19.5q-33 0 -66.5 -20.5t-52.5 -59.5l-32 -257h-96l51 415h96l-5 -41q48 53 126 53q42 0 77.5 -19.5t56 -55t20.5 -82.5zM158 525q14 42 45 65t66 23q21 0 33 -4t32 -14l8 -4q16 -8 31 -8
q13 0 26 8.5t20 24.5l70 -19q-14 -42 -45 -65t-66 -23q-21 0 -33 4t-32 14l-8 4q-16 8 -31 8q-13 0 -26 -8.5t-20 -24.5z" />
    <glyph glyph-name="ograve" unicode="&#xf2;" 
d="M59 195q0 67 29 120t81.5 82.5t120.5 29.5q55 0 103 -25.5t77 -71t29 -102.5q0 -69 -28.5 -122.5t-80.5 -84t-122 -30.5q-55 0 -103 26t-77 72.5t-29 105.5zM403 217q2 54 -32 87t-90 33q-52 0 -89 -38t-37 -98q0 -54 33 -87t86 -33q57 0 94 38t35 98zM174 628h138
l82 -131h-84z" />
    <glyph glyph-name="oacute" unicode="&#xf3;" 
d="M59 195q0 67 29 120t81.5 82.5t120.5 29.5q55 0 103 -25.5t77 -71t29 -102.5q0 -69 -28.5 -122.5t-80.5 -84t-122 -30.5q-55 0 -103 26t-77 72.5t-29 105.5zM403 217q2 54 -32 87t-90 33q-52 0 -89 -38t-37 -98q0 -54 33 -87t86 -33q57 0 94 38t35 98zM340 628h146
l-161 -131h-91z" />
    <glyph glyph-name="ocircumflex" unicode="&#xf4;" 
d="M59 195q0 67 29 120t81.5 82.5t120.5 29.5q55 0 103 -25.5t77 -71t29 -102.5q0 -69 -28.5 -122.5t-80.5 -84t-122 -30.5q-55 0 -103 26t-77 72.5t-29 105.5zM403 217q2 54 -32 87t-90 33q-52 0 -89 -38t-37 -98q0 -54 33 -87t86 -33q57 0 94 38t35 98zM371 497l-46 46
l-58 -46h-122l186 140l152 -140h-112z" />
    <glyph glyph-name="otilde" unicode="&#xf5;" 
d="M59 195q0 67 29 120t81.5 82.5t120.5 29.5q55 0 103 -25.5t77 -71t29 -102.5q0 -69 -28.5 -122.5t-80.5 -84t-122 -30.5q-55 0 -103 26t-77 72.5t-29 105.5zM403 217q2 54 -32 87t-90 33q-52 0 -89 -38t-37 -98q0 -54 33 -87t86 -33q57 0 94 38t35 98zM156 525
q14 42 45 65t66 23q21 0 33 -4t32 -14l8 -4q16 -8 31 -8q13 0 26 8.5t20 24.5l70 -19q-14 -42 -45 -65t-66 -23q-21 0 -33 4t-32 14l-8 4q-16 8 -31 8q-13 0 -26 -8.5t-20 -24.5z" />
    <glyph glyph-name="odieresis" unicode="&#xf6;" 
d="M59 195q0 67 29 120t81.5 82.5t120.5 29.5q55 0 103 -25.5t77 -71t29 -102.5q0 -69 -28.5 -122.5t-80.5 -84t-122 -30.5q-55 0 -103 26t-77 72.5t-29 105.5zM403 217q2 54 -32 87t-90 33q-52 0 -89 -38t-37 -98q0 -54 33 -87t86 -33q57 0 94 38t35 98zM153 555
q0 25 17 41.5t42 16.5t42.5 -16.5t17.5 -41.5q0 -23 -17.5 -40.5t-42.5 -17.5q-24 0 -41.5 17.5t-17.5 40.5zM372 555q0 24 18 41t42 17q25 0 42 -16.5t17 -41.5q0 -24 -17 -41t-42 -17q-24 0 -42 17.5t-18 40.5z" />
    <glyph glyph-name="divide" unicode="&#xf7;" horiz-adv-x="458" 
d="M214 360q0 24 18 41.5t42 17.5q25 0 42 -17t17 -42q0 -24 -17.5 -42t-41.5 -18t-42 18t-18 42zM71 269h382l-11 -89h-382zM180 89q0 24 18 41.5t42 17.5q25 0 42 -17t17 -42q0 -24 -17.5 -42t-41.5 -18t-42 18t-18 42z" />
    <glyph glyph-name="oslash" unicode="&#xf8;" 
d="M472 328q27 -46 27 -100q0 -69 -28.5 -122.5t-80.5 -84t-122 -30.5q-35 0 -68.5 11.5t-60.5 31.5l-49 -43l-51 58l48 42q-28 47 -28 104q0 67 29 120t81.5 82.5t120.5 29.5q35 0 68.5 -11t60.5 -31l48 42l51 -58zM162 157l185 164q-26 16 -66 16q-52 0 -89 -38t-37 -98
q0 -24 7 -44zM397 262l-187 -165q29 -16 64 -16q57 0 94 38t35 98q2 25 -6 45z" />
    <glyph glyph-name="ugrave" unicode="&#xf9;" horiz-adv-x="485" 
d="M74 160q0 9 2 27l28 228h96l-27 -224q-1 -7 -1 -21q0 -42 22.5 -65.5t62.5 -23.5q88 0 103 110l27 224h96l-30 -247q-11 -90 -63 -133.5t-146 -43.5q-49 0 -87.5 21.5t-60.5 60t-22 87.5zM163 628h138l82 -131h-84z" />
    <glyph glyph-name="uacute" unicode="&#xfa;" horiz-adv-x="485" 
d="M74 160q0 9 2 27l28 228h96l-27 -224q-1 -7 -1 -21q0 -42 22.5 -65.5t62.5 -23.5q88 0 103 110l27 224h96l-30 -247q-11 -90 -63 -133.5t-146 -43.5q-49 0 -87.5 21.5t-60.5 60t-22 87.5zM331 628h146l-161 -131h-91z" />
    <glyph glyph-name="ucircumflex" unicode="&#xfb;" horiz-adv-x="485" 
d="M74 160q0 9 2 27l28 228h96l-27 -224q-1 -7 -1 -21q0 -42 22.5 -65.5t62.5 -23.5q88 0 103 110l27 224h96l-30 -247q-11 -90 -63 -133.5t-146 -43.5q-49 0 -87.5 21.5t-60.5 60t-22 87.5zM361 497l-46 46l-58 -46h-122l186 140l152 -140h-112z" />
    <glyph glyph-name="udieresis" unicode="&#xfc;" horiz-adv-x="485" 
d="M74 160q0 9 2 27l28 228h96l-27 -224q-1 -7 -1 -21q0 -42 22.5 -65.5t62.5 -23.5q88 0 103 110l27 224h96l-30 -247q-11 -90 -63 -133.5t-146 -43.5q-49 0 -87.5 21.5t-60.5 60t-22 87.5zM144 555q0 25 17 41.5t42 16.5t42.5 -16.5t17.5 -41.5q0 -23 -17.5 -40.5
t-42.5 -17.5q-24 0 -41.5 17.5t-17.5 40.5zM363 555q0 24 18 41t42 17q25 0 42 -16.5t17 -41.5q0 -24 -17 -41t-42 -17q-24 0 -42 17.5t-18 40.5z" />
    <glyph glyph-name="yacute" unicode="&#xfd;" horiz-adv-x="457" 
d="M516 415l-400 -593h-112l180 268l-141 325h105l98 -234l158 234h112zM317 628h146l-161 -131h-91z" />
    <glyph glyph-name="thorn" unicode="&#xfe;" horiz-adv-x="527" 
d="M517 222q0 -65 -28 -118t-78 -83t-114 -30q-40 0 -75.5 16.5t-56.5 42.5l-28 -228h-96l102 826h96l-32 -261q20 18 53 29.5t69 11.5q52 0 95 -28t68 -75.5t25 -102.5zM420 219q0 58 -31.5 88.5t-82.5 30.5q-31 0 -61.5 -15t-50.5 -42l-16 -128q14 -34 45.5 -52.5
t66.5 -18.5q57 0 93.5 38.5t36.5 98.5z" />
    <glyph glyph-name="ydieresis" unicode="&#xff;" horiz-adv-x="457" 
d="M516 415l-400 -593h-112l180 268l-141 325h105l98 -234l158 234h112zM129 555q0 25 17 41.5t42 16.5t42.5 -16.5t17.5 -41.5q0 -23 -17.5 -40.5t-42.5 -17.5q-24 0 -41.5 17.5t-17.5 40.5zM348 555q0 24 18 41t42 17q25 0 42 -16.5t17 -41.5q0 -24 -17 -41t-42 -17
q-24 0 -42 17.5t-18 40.5z" />
    <glyph glyph-name="OE" unicode="&#x152;" horiz-adv-x="984" 
d="M72 296q0 99 46 177t124 121t171 43q86 0 156 -37.5t111.5 -106.5t42.5 -161q-1 -99 -47.5 -177t-124 -121t-169.5 -43q-87 0 -158 37.5t-111.5 106.5t-40.5 161zM622 326q-2 101 -60 157.5t-153 56.5q-64 0 -118 -30.5t-86 -85t-32 -122.5q0 -101 58 -157.5t158 -56.5
q61 0 114 30.5t85.5 85t33.5 122.5zM750 531l-19 -153h177l-11 -97h-178l-22 -184h259l-12 -97h-360l77 628h360l-12 -97h-259z" />
    <glyph glyph-name="Ydieresis" unicode="&#x178;" horiz-adv-x="547" 
d="M357 271l-33 -271h-101l33 270l-174 358h110l123 -257l187 257h117zM201 743q0 24 17 41t40 17q24 0 41 -16.5t17 -41.5q0 -23 -17 -40.5t-41 -17.5q-23 0 -40 17.5t-17 40.5zM414 743q0 24 17 41t41 17t40.5 -16.5t16.5 -41.5q0 -23 -17 -40.5t-40 -17.5t-40.5 17.5
t-17.5 40.5z" />
    <glyph glyph-name="dotlessi" unicode="&#x131;" horiz-adv-x="222" 
d="M114 415h96l-51 -415h-96z" />
    <glyph glyph-name="uni0237" unicode="&#x237;" horiz-adv-x="221" 
d="M-62 -180l28 88q18 -5 31 -5q22 0 40 16.5t22 48.5l55 447h96l-55 -449q-19 -153 -157 -153q-35 0 -60 7z" />
    <glyph glyph-name="oe" unicode="&#x153;" horiz-adv-x="820" 
d="M59 195q0 67 29 120t81.5 82.5t120.5 29.5q55 0 103 -25.5t77 -71t29 -102.5q0 -69 -28.5 -122.5t-80.5 -84t-122 -30.5q-55 0 -103 26t-77 72.5t-29 105.5zM403 217q2 54 -32 87t-90 33q-52 0 -89 -38t-37 -98q0 -54 33 -87t86 -33q57 0 94 38t35 98zM819 235
q0 -26 -4 -49h-314q5 -49 37 -77t81 -28q32 0 59 13t44 36l64 -68q-32 -34 -75.5 -52.5t-97.5 -18.5q-55 0 -103 25.5t-77 73t-29 108.5q0 67 29 119t80.5 81t117.5 29q44 0 87.5 -21.5t72 -64.5t28.5 -106zM509 259h210q-8 41 -34 60.5t-66 19.5q-35 0 -66 -20t-44 -60z
" />
    <glyph glyph-name="uni20BD" unicode="&#x20bd;" horiz-adv-x="581" 
d="M283 282l-8 -64h124l-9 -74h-124l-18 -144h-96l18 144h-71l9 74h71l8 64h-71l11 92h71l31 254h165q58 0 100.5 -21t64.5 -57t22 -79q0 -87 -57 -138t-162 -51h-79zM294 374h83q33 0 57.5 13t37 32.5t12.5 38.5q0 38 -23 58.5t-64 20.5h-83z" />
    <glyph glyph-name="mu" unicode="&#xb5;" horiz-adv-x="495" 
d="M114 415h96l-28 -224q-1 -7 -1 -21q0 -42 22.5 -65.5t63.5 -23.5q88 0 103 110l27 224h96l-30 -247q-11 -89 -62.5 -133t-137.5 -44q-66 0 -102 30l-24 -199h-96z" />
    <glyph glyph-name="ellipsis" unicode="&#x2026;" horiz-adv-x="598" 
d="M36 66q0 30 22.5 52t52.5 22q31 0 52.5 -21.5t21.5 -52.5q0 -30 -22 -52.5t-52 -22.5t-52.5 22.5t-22.5 52.5zM234 66q0 30 22.5 52t52.5 22q31 0 52.5 -21.5t21.5 -52.5q0 -30 -22 -52.5t-52 -22.5t-52.5 22.5t-22.5 52.5zM433 66q0 30 22.5 52t52.5 22q31 0 52.5 -21.5
t21.5 -52.5q0 -30 -22 -52.5t-52 -22.5t-52.5 22.5t-22.5 52.5z" />
    <glyph glyph-name="endash" unicode="&#x2013;" horiz-adv-x="507" 
d="M93 289h391l-11 -90h-391z" />
    <glyph glyph-name="emdash" unicode="&#x2014;" horiz-adv-x="809" 
d="M108 289h663l-11 -90h-663z" />
    <glyph glyph-name="guilsinglleft" unicode="&#x2039;" horiz-adv-x="305" 
d="M173 200l82 -165l-76 -44l-108 218l162 218l73 -50z" />
    <glyph glyph-name="guilsinglright" unicode="&#x203a;" horiz-adv-x="304" 
d="M285 209l-162 -218l-73 50l133 177l-82 165l76 44z" />
    <glyph glyph-name="quoteleft" unicode="&#x2018;" horiz-adv-x="170" 
d="M153 628h74l-57 -233h-122z" />
    <glyph glyph-name="quoteright" unicode="&#x2019;" horiz-adv-x="170" 
d="M124 628h123l-104 -233h-75z" />
    <glyph glyph-name="quotedblleft" unicode="&#x201c;" horiz-adv-x="320" 
d="M153 628h74l-57 -233h-122zM303 628h74l-57 -233h-122z" />
    <glyph glyph-name="quotedblright" unicode="&#x201d;" horiz-adv-x="320" 
d="M124 628h123l-104 -233h-75zM274 628h123l-104 -233h-75z" />
    <glyph glyph-name="quotesinglbase" unicode="&#x201a;" horiz-adv-x="171" 
d="M65 135h123l-104 -233h-75z" />
    <glyph glyph-name="quotedblbase" unicode="&#x201e;" horiz-adv-x="321" 
d="M65 135h123l-104 -233h-75zM214 135h123l-104 -233h-75z" />
    <glyph glyph-name="bullet" unicode="&#x2022;" horiz-adv-x="527" 
d="M165 255q0 34 17.5 64t47 47.5t64.5 17.5t65 -17.5t47.5 -47.5t17.5 -64q0 -35 -17.5 -65t-47.5 -47.5t-65 -17.5t-64.5 17.5t-47 47.5t-17.5 65z" />
    <glyph glyph-name="minus" unicode="&#x2212;" horiz-adv-x="458" 
d="M71 269h382l-11 -89h-382z" />
    <glyph glyph-name="Euro" unicode="&#x20ac;" horiz-adv-x="589" 
d="M285 429h228l-39 -74h-211q-5 -32 -6 -64h183l-40 -74h-138q21 -135 153 -135q47 0 94 23l25 -90q-66 -24 -129 -24q-96 0 -161 56t-79 170h-93l40 74h50q1 32 6 64h-78l40 74h54q29 97 95.5 152.5t168.5 55.5q92 0 158 -37l-45 -82q-46 29 -113 29q-57 0 -98 -31.5
t-65 -86.5z" />
    <glyph glyph-name="uniFB01" unicode="&#xfb01;" horiz-adv-x="580" 
d="M240 475l-7 -60h151l-11 -92h-152l-39 -323h-96l39 323h-55l11 92h56l8 68q10 87 55 128t126 41q28 0 53 -6t40 -16l-26 -84q-29 16 -67 16q-36 0 -58.5 -22t-27.5 -65zM472 415h96l-51 -415h-96zM467 556q0 29 21 49.5t49 20.5q29 0 49.5 -20.5t20.5 -49.5
q0 -28 -20.5 -49t-49.5 -21q-28 0 -49 21t-21 49z" />
    <glyph glyph-name="uniFB02" unicode="&#xfb02;" horiz-adv-x="580" 
d="M240 475l-7 -60h151l-11 -92h-152l-39 -323h-96l39 323h-55l11 92h56l8 68q10 87 55 128t126 41q28 0 53 -6t40 -16l-26 -84q-29 16 -67 16q-36 0 -58.5 -22t-27.5 -65zM501 648h96l-80 -648h-96z" />
    <glyph glyph-name="glyph216" horiz-adv-x="245" 
d="M121 556q0 29 21 49.5t49 20.5q29 0 49.5 -20.5t20.5 -49.5q0 -28 -20.5 -49t-49.5 -21q-28 0 -49 21t-21 49z" />
    <glyph glyph-name="circumflex" unicode="&#x2c6;" 
d="M371 497l-46 46l-58 -46h-122l186 140l152 -140h-112z" />
    <glyph glyph-name="ring" unicode="&#x2da;" horiz-adv-x="457" 
d="M211 569q0 36 26 62t62 26t62 -26t26 -62t-26 -62t-62 -26t-62 26t-26 62zM335 569q0 15 -10.5 26t-25.5 11q-14 0 -25 -11t-11 -26t11 -26t25 -11q15 0 25.5 11t10.5 26z" />
    <glyph glyph-name="tilde" unicode="&#x2dc;" 
d="M156 525q14 42 45 65t66 23q21 0 33 -4t32 -14l8 -4q16 -8 31 -8q13 0 26 8.5t20 24.5l70 -19q-14 -42 -45 -65t-66 -23q-21 0 -33 4t-32 14l-8 4q-16 8 -31 8q-13 0 -26 -8.5t-20 -24.5z" />
    <glyph glyph-name="one.oldstyle" horiz-adv-x="299" 
d="M226 0h-96l46 370h-100l104 92h103z" />
    <glyph glyph-name="two.oldstyle" horiz-adv-x="440" 
d="M242 89h159l-11 -89h-387l238 208q6 5 34 29t42 45.5t14 40.5q0 26 -17.5 42t-48.5 16q-62 0 -98 -85l-88 26q23 69 73 109t121 40q42 0 77.5 -19t56 -50t20.5 -65q0 -41 -13 -71t-35 -53.5t-65 -60.5z" />
    <glyph glyph-name="three.oldstyle" horiz-adv-x="414" 
d="M10 12l93 25q17 -90 97 -90q45 0 69 30t24 69q0 36 -24 62t-67 26h-18l11 92h16q44 0 70.5 24t26.5 62q0 33 -19 51t-52 18q-27 0 -50.5 -17t-35.5 -52l-91 28q22 67 69.5 99t112.5 32q44 0 81 -19.5t59 -54t22 -76.5q0 -51 -24.5 -90.5t-57.5 -59.5q29 -17 48 -48.5
t19 -73.5q0 -53 -21.5 -97t-64.5 -69.5t-105 -25.5q-77 0 -127.5 43.5t-60.5 111.5z" />
    <glyph glyph-name="four.oldstyle" horiz-adv-x="474" 
d="M480 85l-11 -85h-81l-16 -134h-93l16 134h-318l469 471l-47 -386h81zM306 85l18 148l-147 -148h129z" />
    <glyph glyph-name="five.oldstyle" horiz-adv-x="451" 
d="M428 70q0 -60 -29 -109t-78.5 -76.5t-109.5 -27.5q-35 0 -73 15t-68 45t-42 73l93 31q7 -34 32 -53.5t63 -19.5q52 0 83.5 34t31.5 83q0 44 -26.5 70t-70.5 26q-34 0 -58.5 -15t-39.5 -41l-80 32l111 325h260l-11 -92h-184l-44 -128q27 9 54 9q44 0 87 -21t71 -62t28 -98
z" />
    <glyph glyph-name="six.oldstyle" horiz-adv-x="465" 
d="M49 173q0 36 14.5 75t30.5 58l238 298h112l-180 -224h2q42 0 86 -19.5t73.5 -59t29.5 -97.5q0 -60 -29 -109t-78.5 -76.5t-109.5 -27.5q-41 0 -85 21t-74 62t-30 99zM358 199q0 44 -26.5 70t-70.5 26q-52 0 -83.5 -34t-31.5 -83q0 -44 26.5 -70t70.5 -26q52 0 83.5 34
t31.5 83z" />
    <glyph glyph-name="seven.oldstyle" horiz-adv-x="409" 
d="M466 462l-349 -596h-108l296 504h-243l11 92h393z" />
    <glyph glyph-name="eight.oldstyle" horiz-adv-x="464" 
d="M458 204q0 -60 -29 -109t-78.5 -76.5t-109.5 -27.5q-41 0 -85 21t-74 62t-30 99q0 60 29 108.5t79 76.5q-32 37 -32 92q0 47 22.5 84t60.5 58t84 21q37 0 71.5 -18t56.5 -52t22 -79q0 -37 -14.5 -68.5t-39.5 -53.5q67 -53 67 -138zM218 455q0 -34 18 -52t48 -18
q29 0 50 23t21 51q0 34 -18 52t-48 18q-29 0 -50 -23t-21 -51zM361 199q0 44 -26.5 70t-70.5 26q-52 0 -83.5 -34t-31.5 -83q0 -44 26.5 -70t70.5 -26q52 0 83.5 34t31.5 83z" />
    <glyph glyph-name="nine.oldstyle" horiz-adv-x="464" 
d="M257 81h-2q-42 0 -86 19.5t-73.5 59t-29.5 97.5q0 60 29 109t78.5 77t109.5 28q41 0 85 -21t74 -62.5t30 -99.5q0 -36 -14.5 -75t-30.5 -58l-231 -289h-112zM375 283q0 44 -26.5 70t-70.5 26q-52 0 -83.5 -34t-31.5 -83q0 -44 26.5 -70t70.5 -26q52 0 83.5 34t31.5 83z
" />
    <glyph glyph-name="zero.oldstyle" horiz-adv-x="560" 
d="M67 221q0 65 32.5 122.5t91.5 92.5t134 35q57 0 109 -30t84 -82.5t32 -117.5t-32.5 -122.5t-91.5 -92.5t-134 -35q-57 0 -109 30t-84 82.5t-32 117.5zM454 237q0 64 -38 104t-99 40q-46 0 -81 -22t-54 -58t-19 -76q0 -64 38 -104t99 -40q46 0 81 22t54 58t19 76z" />
    <glyph glyph-name="one.tnum" horiz-adv-x="508" 
d="M458 92l-11 -92h-358l11 92h131l58 464h-99l89 92h117l-69 -556h131z" />
    <glyph glyph-name="two.tnum" horiz-adv-x="508" 
d="M227 92h240l-11 -92h-432l290 325q45 50 71.5 89.5t26.5 73.5t-23 56.5t-65 22.5q-44 0 -76 -24.5t-55 -84.5l-94 21q25 81 85.5 129.5t144.5 48.5q54 0 94.5 -21.5t62.5 -58.5t22 -84q0 -40 -13.5 -73t-34.5 -60.5t-60 -71.5q-7 -8 -14.5 -16t-14.5 -17z" />
    <glyph glyph-name="three.tnum" horiz-adv-x="508" 
d="M57 154l92 28q8 -43 40.5 -72t81.5 -29q51 0 82 33t31 77q0 40 -28 72t-80 32h-30l10 90h28q54 0 85.5 32t31.5 73q0 37 -25 57t-62 20q-38 0 -70.5 -24.5t-45.5 -64.5l-88 28q25 76 79 113.5t131 37.5q47 0 88 -20.5t65.5 -56.5t24.5 -82q0 -55 -29.5 -101.5
t-65.5 -63.5q35 -19 55.5 -53.5t20.5 -82.5q0 -58 -25.5 -105t-73.5 -74t-113 -27q-58 0 -103 22.5t-72.5 60t-34.5 80.5z" />
    <glyph glyph-name="four.tnum" horiz-adv-x="508" 
d="M515 206l-10 -86h-66l-15 -120h-96l15 120h-343l505 537l-56 -451h66zM353 206l24 190l-179 -190h155z" />
    <glyph glyph-name="five.tnum" horiz-adv-x="508" 
d="M483 218q0 -65 -29.5 -116.5t-82 -81t-118.5 -29.5q-60 0 -115 34t-79 91l88 42q11 -36 42.5 -56.5t71.5 -20.5q38 1 66.5 20t43.5 49t15 63q0 51 -33.5 82t-82.5 31q-65 0 -102 -48l-69 33l128 337h263l-12 -92h-188l-55 -144q22 5 41 5q50 0 98 -24.5t78.5 -70
t30.5 -104.5z" />
    <glyph glyph-name="six.tnum" horiz-adv-x="508" 
d="M496 218q0 -65 -29.5 -117t-82 -81t-118.5 -29q-51 0 -99.5 24.5t-79 70t-30.5 104.5q0 86 58 156l251 302h120l-196 -233q90 -6 148 -59.5t58 -137.5zM399 213q0 51 -34.5 82t-85.5 31q-38 0 -66.5 -18.5t-43.5 -49t-15 -63.5q0 -51 34.5 -82.5t85.5 -31.5q38 0 66.5 19
t43.5 49.5t15 63.5z" />
    <glyph glyph-name="seven.tnum" horiz-adv-x="508" 
d="M572 648l-380 -648h-104l326 556h-275l12 92h421z" />
    <glyph glyph-name="eight.tnum" horiz-adv-x="508" 
d="M499 218q0 -65 -29.5 -117t-82 -81t-118.5 -29q-51 0 -99.5 24.5t-79 70t-30.5 104.5q0 68 32.5 120t89.5 79q-35 40 -35 96q0 50 23.5 89.5t63.5 61t88 21.5q37 0 73.5 -19.5t60 -55.5t23.5 -83q0 -41 -15.5 -74t-43.5 -55q36 -25 57.5 -64t21.5 -88zM236 488
q0 -32 22 -52t52 -20q34 0 57 24t23 56t-22 52t-52 20q-34 0 -57 -24t-23 -56zM402 213q0 51 -34.5 82.5t-85.5 31.5q-38 0 -66.5 -19t-43.5 -49.5t-15 -63.5q0 -51 34.5 -82.5t85.5 -31.5q38 0 66.5 19t43.5 49.5t15 63.5z" />
    <glyph glyph-name="nine.tnum" horiz-adv-x="508" 
d="M531 458q0 -86 -58 -156l-251 -302h-120l196 233q-90 6 -148 59.5t-58 137.5q0 65 29.5 117t82 81t118.5 29q51 0 99.5 -24.5t79 -70t30.5 -104.5zM434 453q0 51 -34.5 82.5t-85.5 31.5q-38 0 -66.5 -19t-43.5 -49.5t-15 -63.5q0 -51 34.5 -82t85.5 -31q38 0 66.5 18.5
t43.5 49t15 63.5z" />
    <glyph glyph-name="zero.tnum" horiz-adv-x="508" 
d="M73 273q0 98 28.5 186t84.5 143t136 55q95 0 144 -82t49 -204q0 -96 -29 -183.5t-85.5 -142t-134.5 -54.5q-96 0 -144.5 80.5t-48.5 201.5zM420 374q0 88 -22.5 139.5t-81.5 51.5q-47 0 -80.5 -43.5t-50.5 -111.5t-17 -141q0 -87 22 -137t82 -50q46 0 79.5 43t51 110
t17.5 139z" />
    <glyph glyph-name="arrowleft" unicode="&#x2190;" horiz-adv-x="678" 
d="M182 314l289 289l78 -77l-212 -212l212 -212l-78 -77z" />
    <glyph glyph-name="arrowup" unicode="&#x2191;" horiz-adv-x="678" 
d="M568 60l-212 212l-212 -212l-77 78l289 289l289 -289z" />
    <glyph glyph-name="arrowright" unicode="&#x2192;" horiz-adv-x="678" 
d="M208 102l212 212l-212 212l78 77l289 -289l-289 -289z" />
    <glyph glyph-name="arrowdown" unicode="&#x2193;" horiz-adv-x="678" 
d="M170 427l212 -212l212 212l77 -78l-289 -289l-289 289z" />
    <glyph glyph-name="uni21A4" unicode="&#x21a4;" horiz-adv-x="1820" 
d="M1364 1104l-792 -791l792 -791l-68 -69l-861 860l861 860z" />
    <glyph glyph-name="uni21A5" unicode="&#x21a5;" horiz-adv-x="1820" 
d="M895 742l860 -861l-69 -68l-791 792l-791 -792l-69 68z" />
    <glyph glyph-name="uni21A6" unicode="&#x21a6;" horiz-adv-x="1820" 
d="M533 -478l792 791l-792 791l68 69l861 -860l-861 -860z" />
    <glyph glyph-name="uni21A7" unicode="&#x21a7;" horiz-adv-x="1820" 
d="M993 -187l-860 861l69 68l791 -792l791 792l69 -68z" />
    <glyph glyph-name="fraction" unicode="&#x2044;" horiz-adv-x="559" 
d="M23 43l534 594l56 -53l-534 -593z" />
    <glyph glyph-name="glyph249" horiz-adv-x="315" 
d="M303 105l-8 -66h-33l-5 -39h-72l5 39h-185l291 280l-26 -214h33zM198 105l7 53l-55 -53h48z" />
    <glyph glyph-name="glyph250" horiz-adv-x="718" 
d="M460 798h150l-162 -111h-93z" />
    <glyph glyph-name="glyph251" horiz-adv-x="647" 
d="M228 -172l21 52q25 -10 66 -10q25 0 38 5.5t13 16.5q0 8 -5.5 10.5t-17.5 2.5h-97l79 95h72l-47 -45l21 2l13 1q32 0 51.5 -15.5t19.5 -39.5q0 -44 -41.5 -67t-99.5 -23q-48 0 -86 15z" />
    <glyph glyph-name="glyph252" horiz-adv-x="718" 
d="M496 687l-43 41l-53 -41h-127l185 121l155 -121h-117z" />
    <glyph glyph-name="glyph253" horiz-adv-x="718" 
d="M286 743q0 24 17 41t40 17q24 0 41 -16.5t17 -41.5q0 -23 -17 -40.5t-41 -17.5q-23 0 -40 17.5t-17 40.5zM499 743q0 24 17 41t41 17t40.5 -16.5t16.5 -41.5q0 -23 -17 -40.5t-40 -17.5t-40.5 17.5t-17.5 40.5z" />
    <glyph glyph-name="glyph254" horiz-adv-x="718" 
d="M304 798h145l82 -111h-88z" />
    <glyph glyph-name="glyph255" horiz-adv-x="500" 
d="M203 787h288l-11 -87h-288z" />
    <glyph glyph-name="glyph256" horiz-adv-x="625" 
d="M316 745q0 36 26 62t62 26t62 -26t26 -62t-26 -62t-62 -26t-62 26t-26 62zM438 745q0 14 -10 24.5t-24 10.5t-24 -10.5t-10 -24.5t10 -24.5t24 -10.5t24 10.5t10 24.5z" />
    <glyph glyph-name="glyph257" horiz-adv-x="718" 
d="M288 708q19 43 45.5 63.5t64.5 20.5q18 0 31.5 -4t30.5 -12l8 -4q20 -10 34 -10q13 0 24.5 8.5t18.5 24.5l67 -18q-19 -43 -45.5 -63.5t-64.5 -20.5q-18 0 -31.5 4t-30.5 12l-8 4q-20 10 -34 10q-12 0 -24 -8.5t-19 -24.5z" />
    <glyph glyph-name="uni229E" unicode="&#x229e;" horiz-adv-x="678" 
d="M673 256h-237v-237h-116v237h-237v116h237v237h116v-237h237v-116z" />
    <glyph glyph-name="uni229F" unicode="&#x229f;" horiz-adv-x="678" 
d="M83 372h590v-116h-590v116z" />
    <glyph glyph-name="uni22A0" unicode="&#x22a0;" horiz-adv-x="678" 
d="M460 314l167 -168l-82 -82l-167 168l-167 -167l-82 82l167 167l-168 167l82 82l168 -167l168 168l82 -82z" />
    <glyph glyph-name="uni271A" unicode="&#x271a;" horiz-adv-x="1820" 
d="M1412 265h-415v-415h-96v415h-415v96h415v415h96v-415h415v-96z" />
    <glyph glyph-name="uni268A" unicode="&#x268a;" horiz-adv-x="1820" 
d="M485 361h926v-96h-926v96z" />
    <glyph glyph-name="uni2613" unicode="&#x2613;" horiz-adv-x="1820" 
d="M1241 -48l-293 293l-294 -294l-68 68l293 294l-293 293l68 68l293 -293l293 293l68 -68l-293 -293l294 -293z" />
    </font>
</defs>
</svg>
