<?xml version="1.0" encoding="UTF-8" standalone="no"?>
<svg width="17px" height="23px" viewBox="0 0 17 23" version="1.1" xmlns="http://www.w3.org/2000/svg" xmlns:xlink="http://www.w3.org/1999/xlink">
    <!-- Generator: Sketch 39.1 (31720) - http://www.bohemiancoding.com/sketch -->
    <title>Address Details</title>
    <desc>Created with Sketch.</desc>
    <defs></defs>
    <g id="Phase-1.5---New-Logo" stroke="none" stroke-width="1" fill="none" fill-rule="evenodd">
        <g id="ICONS" transform="translate(-181.000000, -7.000000)" stroke="#000000" fill="#FFFFFF">
            <g id="Address-Details" transform="translate(182.250000, 8.000000)">
                <g id="noun_66472_cc-copy-2">
                    <g id="Group" stroke-width="2">
                        <path d="M7.02935484,0 C3.22767742,0 0.145870968,3.03288889 0.145870968,6.774 C0.145870968,6.85422222 0.148354839,6.936 0.151967742,7.01822222 C0.177709677,7.72977778 0.314096774,8.41333333 0.546,9.05288889 C2.01464516,13.8031111 7.02935484,20 7.02935484,20 C7.02935484,20 12.0433871,13.8035556 13.5122581,9.05311111 C13.7443871,8.41355556 13.8807742,7.72955556 13.9062903,7.018 C13.9105806,6.93577778 13.9126129,6.85422222 13.9126129,6.77377778 C13.9128387,3.03288889 10.8308065,0 7.02935484,0 L7.02935484,0 Z M6.88977419,9.40051755 C5.37447064,9.40051755 4.14587097,8.19141946 4.14587097,6.70016834 C4.14587097,5.20909809 5.37447064,4 6.88977419,4 C8.40526153,4 9.63367742,5.20909809 9.63367742,6.70016834 C9.63367742,8.19141946 8.40526153,9.40051755 6.88977419,9.40051755 L6.88977419,9.40051755 Z" id="Shape"></path>
                    </g>
                </g>
            </g>
        </g>
    </g>
</svg>