<?xml version="1.0" encoding="UTF-8" standalone="no"?>
<svg width="20px" height="22px" viewBox="0 0 20 22" version="1.1" xmlns="http://www.w3.org/2000/svg" xmlns:xlink="http://www.w3.org/1999/xlink">
    <!-- Generator: sketchtool 39.1 (31720) - http://www.bohemiancoding.com/sketch -->
    <title>5E44B4D7-5E06-4F8B-A7E6-35D6E3926640</title>
    <desc>Created with sketchtool.</desc>
    <defs></defs>
    <g id="Style-Guide" stroke="none" stroke-width="1" fill="none" fill-rule="evenodd">
        <g id="App_All_Icons_Black" transform="translate(-31.000000, -408.000000)" fill="#000000">
            <g id="Icon_Account" transform="translate(19.000000, 397.000000)">
                <g transform="translate(12.000000, 11.000000)">
                    <path d="M11.7235909,11.3428919 C12.3109647,10.929332 12.9095221,10.3734762 13.4159522,9.70177182 C17.1864757,11.3097678 19.8778,15.4541072 19.8778,20.3004 L19.8778,21.3584 L-0.0002,21.3584 L-0.0002,20.3004 C-0.0002,15.5178618 2.62077955,11.4189295 6.31340444,9.7665456 C6.75750559,10.4513452 7.29138496,11.0219682 7.8468727,11.4353091 C4.82487819,12.4224553 2.5328868,15.4938705 2.1658,19.2434 L17.7118,19.2434 C17.3323754,15.3678488 14.8964796,12.2167607 11.7235909,11.3428919 L11.7235909,11.3428919 Z" id="path-1"></path>
                    <path d="M9.9387,2.1146 C8.9567,2.1146 7.9747,2.5816 7.2437,3.3946 C6.4837,4.2396 6.1147,5.3516 6.2317,6.4426 C6.4127,8.3146 7.4427,9.7566 8.3467,10.4856 C8.9827,10.9976 9.5237,11.1406 9.8157,11.1086 C10.7877,10.9706 13.3737,9.1606 13.6447,6.4506 L13.6457,6.4426 C13.7627,5.3516 13.3937,4.2396 12.6337,3.3946 C11.9027,2.5816 10.9207,2.1146 9.9387,2.1146 M9.7367,13.2266 C8.8487,13.2266 7.9037,12.8446 7.0187,12.1316 C5.4157,10.8386 4.3347,8.7916 4.1287,6.6576 C3.9487,4.9806 4.5107,3.2716 5.6707,1.9806 C6.8027,0.7226 8.3577,-0.0004 9.9387,-0.0004 C11.5197,-0.0004 13.0747,0.7226 14.2067,1.9806 C15.3667,3.2716 15.9277,4.9786 15.7487,6.6656 C15.3907,10.2166 12.1577,12.9106 10.0877,13.2056 C9.9727,13.2196 9.8547,13.2266 9.7367,13.2266" id="Fill-8"></path>
                </g>
            </g>
        </g>
    </g>
</svg>