<?xml version="1.0" encoding="UTF-8" standalone="no"?>
<svg width="26px" height="20px" viewBox="0 0 26 20" version="1.1" xmlns="http://www.w3.org/2000/svg" xmlns:xlink="http://www.w3.org/1999/xlink">
    <!-- Generator: Sketch 39.1 (31720) - http://www.bohemiancoding.com/sketch -->
    <title>Email Preferences</title>
    <desc>Created with Sketch.</desc>
    <defs></defs>
    <g id="Phase-1.5---New-Logo" stroke="none" stroke-width="1" fill="none" fill-rule="evenodd">
        <g id="ICONS" transform="translate(-251.000000, -7.000000)">
            <g id="Email-Preferences" transform="translate(251.875000, 7.000000)">
                <g id="Page-1">
                    <path d="M16.1288,9.3035 L9.9998,14.2305 L1.9998,7.7995 L1.9998,17.2585 L17.9998,17.2585 L17.9998,11.0785 C17.4338,10.5245 16.7408,9.8585 16.1288,9.3035" id="Fill-1" fill="#FFFFFF"></path>
                    <path d="M14.7775,8.0609 C14.2585,7.5279 13.7865,6.9329 13.4435,6.2579 L4.0575,6.2579 L10.5775,11.3109 L14.7775,8.0609 Z" id="Fill-3" fill="#FFFFFF"></path>
                    <path d="M23.1172,3.9639 C23.1172,3.0679 22.8412,1.9999 21.5232,1.9999 C20.8112,1.9999 20.0592,2.8959 19.8972,3.1349 L18.9642,4.5139 L18.1852,3.0419 C18.1662,3.0079 17.5942,1.9999 16.4762,1.9999 C16.0822,1.9999 14.8832,1.9999 14.8832,3.9639 C14.8832,5.1309 15.5322,6.1569 17.1242,7.5079 C18.1082,8.3769 18.6672,8.9069 19.0842,9.3199 C19.5502,8.8739 20.1112,8.3259 20.7892,7.5919 C20.9872,7.3859 21.1762,7.1989 21.3622,7.0149 C22.3432,6.0459 23.1172,5.2809 23.1172,3.9639" id="Fill-5" fill="#FFFFFF"></path>
                    <path d="M2,17.2583 L2,7.7993 L10,14.2303 L16.129,9.3033 C16.74,9.8583 17.434,10.5243 18,11.0783 L18,17.2583 L2,17.2583 Z M4.057,6.2583 L13.443,6.2583 C13.786,6.9333 14.258,7.5273 14.778,8.0613 L10.578,11.3113 L10,11.7583 L3.5,6.2583 L4.057,6.2583 Z M20.789,7.5913 C20.111,8.3263 19.55,8.8743 19.084,9.3203 C18.667,8.9073 18.108,8.3773 17.124,7.5083 C15.532,6.1573 14.883,5.1313 14.883,3.9643 C14.883,2.0003 16.082,2.0003 16.477,2.0003 C17.594,2.0003 18.166,3.0083 18.186,3.0423 L18.964,4.5133 L19.897,3.1343 C20.06,2.8953 20.812,2.0003 21.523,2.0003 C22.841,2.0003 23.117,3.0683 23.117,3.9643 C23.117,5.2813 22.343,6.0463 21.362,7.0143 C21.176,7.1993 20.987,7.3853 20.789,7.5913 L20.789,7.5913 Z M21.523,0.0003 C20.516,0.0003 19.679,0.5283 19.101,1.0463 C18.529,0.5213 17.663,0.0003 16.477,0.0003 C14.293,0.0003 12.883,1.5553 12.883,3.9643 C12.883,4.0663 12.901,4.1593 12.907,4.2583 L0,4.2583 L0,19.2583 L20,19.2583 L20,11.2073 C21.057,10.1483 22.652,8.5523 22.769,8.4373 C23.869,7.3493 25.117,6.1173 25.117,3.9643 C25.117,1.0383 23.182,0.0003 21.523,0.0003 L21.523,0.0003 Z" id="Fill-7" fill="#000000"></path>
                </g>
            </g>
        </g>
    </g>
</svg>