<?xml version="1.0" encoding="UTF-8" standalone="no"?>
<svg width="22px" height="22px" viewBox="0 0 22 22" version="1.1" xmlns="http://www.w3.org/2000/svg" xmlns:xlink="http://www.w3.org/1999/xlink">
    <!-- Generator: Sketch 39.1 (31720) - http://www.bohemiancoding.com/sketch -->
    <title>Page 1</title>
    <desc>Created with Sketch.</desc>
    <defs></defs>
    <g id="Phase-1.5---New-Logo" stroke="none" stroke-width="1" fill="none" fill-rule="evenodd">
        <g id="ICONS" transform="translate(-581.000000, -5.000000)" stroke-width="2" stroke="#000000">
            <g id="Page-1" transform="translate(582.000000, 6.000000)">
                <polygon id="Stroke-1" points="0 19.372 20 19.372 20 5.872 0 5.872"></polygon>
                <path d="M10,18.8799 L10,5.8799" id="Stroke-3"></path>
                <path d="M10.0159,5.8668 C10.0159,5.8668 9.4399,0.5358 13.0939,0.0358 C16.0599,-0.3702 16.2179,2.8138 15.6659,3.6008 C15.1149,4.3878 15.1149,5.8538 10.0159,5.8668 L10.0159,5.8668 Z" id="Stroke-4"></path>
                <path d="M9.8835,5.8668 C9.8835,5.8668 10.4595,0.5358 6.8055,0.0358 C3.8395,-0.3702 3.6815,2.8138 4.2335,3.6008 C4.7845,4.3878 4.7845,5.8538 9.8835,5.8668 L9.8835,5.8668 Z" id="Stroke-5"></path>
            </g>
        </g>
    </g>
</svg>