<?xml version="1.0" encoding="UTF-8" standalone="no"?>
<svg width="24px" height="19px" viewBox="0 0 24 19" version="1.1" xmlns="http://www.w3.org/2000/svg" xmlns:xlink="http://www.w3.org/1999/xlink">
    <!-- Generator: Sketch 39.1 (31720) - http://www.bohemiancoding.com/sketch -->
    <title>Group 2</title>
    <desc>Created with Sketch.</desc>
    <defs></defs>
    <g id="Style-Guide" stroke="none" stroke-width="1" fill="none" fill-rule="evenodd">
        <g id="MyAccount_Icons" transform="translate(-28.000000, -731.000000)">
            <g id="Icon_Livechat_2" transform="translate(18.000000, 718.000000)">
                <g id="Group-2" transform="translate(10.000000, 13.000000)">
                    <g id="Icon_Livechat_white" transform="translate(8.000000, 7.500000) scale(-1, 1) translate(-8.000000, -7.500000) ">
                        <g>
                            <g id="Rectangle">
                                <polygon id="Path-2" fill="#FFFFFF" transform="translate(8.099496, 7.166182) scale(-1, 1) translate(-8.099496, -7.166182) " points="0.640062049 10.3525391 3.65506096 10.3525391 3.6358522 13.5527344 9.18562661 10.3525393 9.18562661 5.82147198 15.5589567 5.82147198 15.5589567 4.81317139 15.5589565 0.779629039 0.640036214 0.779629039"></polygon>
                                <path d="M0,5.88818359 L0,0 L16,0 L16,11.0150203 L12.9090909,11.0150203 L12.9090909,15 L7.74181818,11.0150203 L7,11.0150203 L7,9.63278658 L8.25745455,9.63278658 L11.4545455,12.0973093 L11.4545455,9.63278658 L14.5454545,9.63278658 L14.5454545,1.38223369 L1.45454545,1.38223369 L1.45454545,5.88818359 L1.33226763e-15,5.88818359 Z" id="Combined-Shape" fill="#000000"></path>
                            </g>
                            <polygon id="Fill-4" fill="#000000" points="3 3.85714289 13.1818182 3.85714289 13.1818182 3 3 3"></polygon>
                            <polygon id="Fill-6" fill="#000000" points="3 5.85714289 13.1818182 5.85714289 13.1818182 5 3 5"></polygon>
                            <polygon id="Fill-8" fill="#000000" points="8 7.85714289 13.0909091 7.85714289 13.0909091 7 8 7"></polygon>
                        </g>
                    </g>
                    <g id="Icon_Livechat_black" transform="translate(17.000000, 13.000000) scale(-1, 1) translate(-17.000000, -13.000000) translate(10.000000, 7.000000)">
                        <g transform="translate(7.000000, 6.000000) scale(-1, 1) translate(-7.000000, -6.000000) ">
                            <g>
                                <polygon id="Fill-2" fill="#000000" points="0 0 0 8.81201622 6.77409091 8.81201622 11.2954545 12 11.2954545 8.81201622 14 8.81201622 14 0"></polygon>
                                <polygon id="Fill-4" fill="#FFFFFF" points="2 2.85714289 12 2.85714289 12 2 2 2"></polygon>
                                <polygon id="Fill-6" fill="#FFFFFF" points="2 4.85714289 12 4.85714289 12 4 2 4"></polygon>
                                <polygon id="Fill-8" fill="#FFFFFF" points="6 6.85714289 12 6.85714289 12 6 6 6"></polygon>
                            </g>
                        </g>
                    </g>
                </g>
            </g>
        </g>
    </g>
</svg>