<?xml version="1.0" encoding="utf-8"?>
<!-- Generator: Adobe Illustrator 19.1.0, SVG Export Plug-In . SVG Version: 6.00 Build 0)  -->
<svg version="1.1" id="Layer_1" xmlns:sketch="http://www.bohemiancoding.com/sketch/ns"
	 xmlns="http://www.w3.org/2000/svg" xmlns:xlink="http://www.w3.org/1999/xlink" x="0px" y="0px" viewBox="-469 269 20 23"
	 style="enable-background:new -469 269 20 23;" xml:space="preserve">
<style type="text/css">
	.st0{display:none;fill:none;}
	.st1{fill:#B7B7B7;}
</style>
<title>Icon /account</title>
<desc>Created with Sketch.</desc>
<g id="Assets" sketch:type="MSPage">
	<g id="TON-tool-kit" transform="translate(-1716.000000, -812.000000)" sketch:type="MSArtboardGroup">
		<g>
			<path class="st0" d="M1257,1092c-1.1,0-2,0.9-2,2c0,0.7,0.4,1.4,1,1.7v3.3h2v-3.3c0.6-0.3,1-1,1-1.7
				C1259,1092.9,1258.1,1092,1257,1092z"/>
			<path class="st0" d="M1260.5,1083.5h-7c-1.1,0-2,0.9-2,2v2.5h11v-2.5C1262.5,1084.4,1261.6,1083.5,1260.5,1083.5z"/>
			<path class="st1" d="M1264.5,1088v-2.5c0-2.2-1.8-4-4-4h-7c-2.2,0-4,1.8-4,4v2.5h-2.5v12c0,2.2,1.8,4,4,4h12c2.2,0,4-1.8,4-4v-12
				H1264.5z M1258,1095.7v3.3h-2v-3.3c-0.6-0.3-1-1-1-1.7c0-1.1,0.9-2,2-2s2,0.9,2,2C1259,1094.7,1258.6,1095.4,1258,1095.7z
				 M1262.5,1088h-11v-2.5c0-1.1,0.9-2,2-2h7c1.1,0,2,0.9,2,2V1088z"/>
		</g>
	</g>
</g>
</svg>
