<?xml version="1.0" encoding="UTF-8" standalone="no"?>
<svg width="27px" height="24px" viewBox="0 0 27 24" version="1.1" xmlns="http://www.w3.org/2000/svg" xmlns:xlink="http://www.w3.org/1999/xlink">
    <!-- Generator: Sketch 39.1 (31720) - http://www.bohemiancoding.com/sketch -->
    <title>Icon_orders</title>
    <desc>Created with Sketch.</desc>
    <defs></defs>
    <g id="Style-Guide" stroke="none" stroke-width="1" fill="none" fill-rule="evenodd">
        <g id="App_Tab" transform="translate(-27.000000, -464.000000)">
            <g id="orders" transform="translate(18.000000, 457.000000)">
                <g id="Icon_orders" transform="translate(9.000000, 7.000000)">
                    <polygon id="Fill-1" fill="#FEFEFE" points="2.2926 7.619 21.6676 7.619 22.9596 20.286 1.1256 20.286"></polygon>
                    <polygon id="Fill-2" fill="#1D1C1B" points="23.6259 9.4047 24.9169 22.1897 3.1709 22.1897 2.9929 23.9997 26.9429 23.9997 25.5039 9.4047"></polygon>
                    <polygon id="Clip-4" points="-3.55271368e-15 21.2581 -3.55271368e-15 24 26.943 24 26.943 0.953 -3.55271368e-15 0.953 -3.55271368e-15 21.2581 23.9509 21.2581 23.9509 0.9531 -0.0001 0.9531 -0.0001 21.2581"></polygon>
                    <path d="M9.6309,6.6621 L14.3079,6.6621 C12.9889,2.8001 12.2219,2.4161 11.9699,2.4161 C11.7179,2.4161 10.9499,2.8001 9.6309,6.6621 L9.6309,6.6621 Z M20.8449,8.4731 L16.4189,8.4731 C16.6709,9.3361 16.9349,10.2841 17.1989,11.3151 L15.7839,11.6751 C15.4719,10.4521 15.1719,9.3961 14.8959,8.4731 L9.0429,8.4731 C8.7679,9.3961 8.4669,10.4521 8.1559,11.6751 L6.7399,11.3151 C7.0049,10.2841 7.2679,9.3361 7.5199,8.4731 L3.1069,8.4731 L2.0269,19.4471 L21.9239,19.4471 L20.8449,8.4731 Z M1.4399,6.6621 L8.0839,6.6621 C9.4149,2.6201 10.5899,0.9531 11.9699,0.9531 C13.3489,0.9531 14.5249,2.6201 15.8559,6.6621 L22.5119,6.6621 L23.9509,21.2581 L-0.0001,21.2581 L1.4399,6.6621 Z" id="Fill-3" fill="#1D1C1B"></path>
                </g>
            </g>
        </g>
    </g>
</svg>