<?xml version="1.0" encoding="UTF-8" standalone="no"?>
<svg width="32px" height="22px" viewBox="0 0 32 22" version="1.1" xmlns="http://www.w3.org/2000/svg" xmlns:xlink="http://www.w3.org/1999/xlink">
    <!-- Generator: Sketch 39.1 (31720) - http://www.bohemiancoding.com/sketch -->
    <title>Group 5</title>
    <desc>Created with Sketch.</desc>
    <defs></defs>
    <g id="Style-Guide" stroke="none" stroke-width="1" fill="none" fill-rule="evenodd">
        <g id="MyAccount_Icons" transform="translate(-24.000000, -863.000000)">
            <g id="PersonalAssistant" transform="translate(18.000000, 852.000000)">
                <g id="Group-5" transform="translate(6.000000, 11.000000)">
                    <g id="Icon_PersonalAssistant" transform="translate(0.000000, 1.000000)" fill="#000000">
                        <path d="M0,20.2164 L17.6,20.2164 C17.6,16.3164 15.8,12.9164 13.2,11.1164 C11.8,12.7164 10,13.7164 8.8,13.8164 C7.5,13.9164 5.7,12.9164 4.3,11.2164 C1.7,13.0164 0,16.4164 0,20.2164" id="Fill-9"></path>
                        <path d="M8.8,0.8164 C7.6,0.8164 6.3,1.4164 5.4,2.4164 C4.5,3.4164 4.1,4.7164 4.2,6.1164 C4.6,9.6164 7.4,11.8164 8.5,11.8164 C9.6,11.7164 12.9,9.5164 13.3,6.1164 C13.5,4.7164 13,3.4164 12.1,2.4164 C11.3,1.4164 10,0.8164 8.8,0.8164" id="Fill-11"></path>
                    </g>
                    <g id="Icon_PersonalAssistant_bubble" transform="translate(24.000000, 7.500000) scale(-1, 1) translate(-24.000000, -7.500000) translate(16.000000, 0.000000)">
                        <polygon id="Fill-1" fill="#FFFFFF" points="15.2727273 9.81162014 12.1818182 9.81162014 12.1818182 12.8571429 8 9.81162014 0.727272727 9.81162014 0.727272727 0.714214286 15.2727273 0.714214286"></polygon>
                        <path d="M0,0 L0,11.0150203 L7.74181818,11.0150203 L12.9090909,15 L12.9090909,11.0150203 L16,11.0150203 L16,0 L0,0 Z M1.45454545,1.38223369 L14.5454545,1.38223369 L14.5454545,9.63278658 L11.4545455,9.63278658 L11.4545455,12.0973093 L8.25745455,9.63278658 L1.45454545,9.63278658 L1.45454545,1.38223369 Z" id="Fill-2" fill="#000000"></path>
                        <polygon id="Fill-4" fill="#000000" points="3 3.85714289 13.1818182 3.85714289 13.1818182 3 3 3"></polygon>
                        <polygon id="Fill-6" fill="#000000" points="3 5.85714289 13.1818182 5.85714289 13.1818182 5 3 5"></polygon>
                        <polygon id="Fill-8" fill="#000000" points="8 7.85714289 13.0909091 7.85714289 13.0909091 7 8 7"></polygon>
                    </g>
                </g>
            </g>
        </g>
    </g>
</svg>