<?xml version="1.0" encoding="UTF-8" standalone="no"?>
<svg width="20px" height="20px" viewBox="0 0 20 20" version="1.1" xmlns="http://www.w3.org/2000/svg" xmlns:xlink="http://www.w3.org/1999/xlink">
    <!-- Generator: Sketch 39.1 (31720) - http://www.bohemiancoding.com/sketch -->
    <title>Icon /phone</title>
    <desc>Created with Sketch.</desc>
    <defs></defs>
    <g id="Product-Page" stroke="none" stroke-width="1" fill="none" fill-rule="evenodd">
        <g id="Delivery_Returns_Closed-Copy" transform="translate(-71.000000, -1528.000000)" fill="#000000">
            <g id="Contact-Us" transform="translate(1.000000, 1498.000000)">
                <g id="call-customer-care-copy" transform="translate(0.000000, 3.000000)">
                    <g id="Icon-/phone" transform="translate(70.000000, 27.000000)">
                        <path d="M6.35856384,14.5005232 C5.06131384,13.2035232 4.26156384,12.0737732 1.40231384,14.3717732 C-1.45718616,16.6707732 0.739063845,18.2025232 1.99556384,19.4595232 C3.44556384,20.9092732 8.85081384,19.5357732 14.1935638,14.1937732 C19.5355638,8.85077324 20.9100638,3.44577324 19.4590638,1.99527324 C18.2023138,0.738523235 16.6705638,-1.45697676 14.3725638,1.40252324 C12.0740638,4.26102324 13.2033138,5.06102324 14.5008138,6.35827324 C15.4065638,7.26402324 13.5148138,9.55577324 11.5355638,11.5352732 C9.55631384,13.5145232 7.26431384,15.4065232 6.35856384,14.5005232 Z" id="Shape" transform="translate(10.000000, 10.000000) scale(-1, 1) translate(-10.000000, -10.000000) "></path>
                    </g>
                </g>
            </g>
        </g>
    </g>
</svg>