<?xml version="1.0" encoding="UTF-8" standalone="no"?>
<svg width="44px" height="44px" viewBox="0 0 44 44" version="1.1" xmlns="http://www.w3.org/2000/svg" xmlns:xlink="http://www.w3.org/1999/xlink">
    <!-- Generator: Sketch 39.1 (31720) - http://www.bohemiancoding.com/sketch -->
    <title>Icon_Reserved_Items</title>
    <desc>Created with Sketch.</desc>
    <defs>
        <polygon id="path-1" points="9.8281 0.19 0.6981 0.19 0.6981 8.1069 9.8281 8.1069 9.8281 0.19"></polygon>
        <polygon id="path-3" points="0 23.8101 20 23.8101 20 1.0001 0 1.0001"></polygon>
    </defs>
    <g id="Style-Guide" stroke="none" stroke-width="1" fill="none" fill-rule="evenodd">
        <g id="MyAccount_Icons" transform="translate(-18.000000, -81.000000)">
            <g id="ReservedItems" transform="translate(18.000000, 81.000000)">
                <g id="Group-45" transform="translate(12.000000, 10.000000)">
                    <g id="Page-1">
                        <g id="Group-3" transform="translate(5.000000, 0.810100)">
                            <mask id="mask-2" fill="white">
                                <use xlink:href="#path-1"></use>
                            </mask>
                            <g id="Clip-2"></g>
                            <path d="M9.8281,8.1069 L7.8281,8.1069 L7.8261,4.9449 C7.8261,3.1939 6.7961,2.1899 5.0001,2.1899 C3.3731,2.1899 2.6981,3.3719 2.6981,4.0039 L2.6981,5.0039 L0.6981,5.0039 L0.6981,4.0039 C0.6981,2.1699 2.3431,0.1899 5.0001,0.1899 C7.8871,0.1899 9.8261,2.1009 9.8261,4.9449 L9.8281,8.1069 Z" id="Fill-1" fill="#000000" mask="url(#mask-2)"></path>
                        </g>
                        <mask id="mask-4" fill="white">
                            <use xlink:href="#path-3"></use>
                        </mask>
                        <g id="Clip-7"></g>
                        <path d="M2,21.8101 L18,21.8101 L18,10.3101 L2,10.3101 L2,21.8101 Z M0,23.8101 L20,23.8101 L20,8.3101 L0,8.3101 L0,23.8101 Z" id="Fill-6" fill="#000000" mask="url(#mask-4)"></path>
                    </g>
                    <path d="M10.8200692,16.6978085 L10.8200692,18.1349481 C10.8200692,18.6101499 10.4302191,19 9.9550173,19 C9.47866205,19 9.0899654,18.6101499 9.0899654,18.1349481 L9.0899654,16.6978085 C8.44636678,16.378316 8,15.7208766 8,14.9538639 C8,13.8742791 8.87543253,13 9.9550173,13 C11.0334487,13 11.9088812,13.8742791 11.9088812,14.9538639 C11.9088812,15.7208766 11.4625144,16.378316 10.8200692,16.6978085 L10.8200692,16.6978085 Z" id="Path" stroke="#000000" fill="#000000"></path>
                </g>
            </g>
        </g>
    </g>
</svg>