<?xml version="1.0" encoding="UTF-8" standalone="no"?>
<svg width="23px" height="15px" viewBox="0 0 23 15" version="1.1" xmlns="http://www.w3.org/2000/svg" xmlns:xlink="http://www.w3.org/1999/xlink">
    <!-- Generator: Sketch 39.1 (31720) - http://www.bohemiancoding.com/sketch -->
    <title>Size Preferences</title>
    <desc>Created with Sketch.</desc>
    <defs></defs>
    <g id="Phase-1.5---New-Logo" stroke="none" stroke-width="1" fill="none" fill-rule="evenodd">
        <g id="ICONS" transform="translate(-333.000000, -11.000000)" fill="#000000">
            <g id="Size-Preferences" transform="translate(333.500000, 11.000000)">
                <g id="Page-1">
                    <polygon id="Fill-1" points="19.9998 -0.0003 19.9998 11.0007 11.9998 11.0007 11.9998 2.0007 9.9998 2.0007 9.9998 11.0007 1.9998 11.0007 1.9998 -0.0003 -0.0002 -0.0003 -0.0002 11.0007 -0.0002 13.9997 -0.0002 14.9997 21.9998 14.9997 21.9998 -0.0003"></polygon>
                    <polygon id="Fill-2" points="14 9 15 9 15 2.001 14 2.001"></polygon>
                    <polygon id="Fill-3" points="17 9 18 9 18 2.001 17 2.001"></polygon>
                    <polygon id="Fill-4" points="4 9 5.001 9 5.001 2.001 4 2.001"></polygon>
                    <polygon id="Fill-5" points="7 9 8 9 8 2.001 7 2.001"></polygon>
                </g>
            </g>
        </g>
    </g>
</svg>