<?xml version="1.0" encoding="UTF-8" standalone="no"?>
<svg width="37px" height="26px" viewBox="0 0 37 26" version="1.1" xmlns="http://www.w3.org/2000/svg" xmlns:xlink="http://www.w3.org/1999/xlink">
    <!-- Generator: Sketch 39.1 (31720) - http://www.bohemiancoding.com/sketch -->
    <title>Password&amp;LogIn</title>
    <desc>Created with Sketch.</desc>
    <defs></defs>
    <g id="Style-Guide" stroke="none" stroke-width="1" fill="none" fill-rule="evenodd">
        <g id="App_Tab" transform="translate(-22.000000, -527.000000)">
            <g id="Password&amp;LogIn" transform="translate(15.000000, 516.000000)">
                <g transform="translate(7.000000, 11.000000)" id="Page-1">
                    <g>
                        <g id="lock">
                            <path d="M7,4.7562 C7,2.2172 8.858,1.8382 9.955,1.8382 C11.902,1.8382 12.898,2.7352 12.898,4.6342 L12.909,6.9332 L7,6.9332 L7,4.7562 L7,4.7562 Z M14.714,6.9332 L14.712,4.6342 C14.712,1.1922 12.149,0.0002 9.857,0.0002 C7.669,0.0002 5,1.2702 5,4.7562 L5,6.9332 L0,6.9332 L0,21.9332 L20,21.9332 L20,6.9332 L14.714,6.9332 L14.714,6.9332 Z" id="Fill-1" fill="#000000"></path>
                            <path d="M10.8200692,14.6978085 L10.8200692,16.1349481 C10.8200692,16.6101499 10.4302191,17 9.9550173,17 C9.47866205,17 9.0899654,16.6101499 9.0899654,16.1349481 L9.0899654,14.6978085 C8.44636678,14.378316 8,13.7208766 8,12.9538639 C8,11.8742791 8.87543253,11 9.9550173,11 C11.0334487,11 11.9088812,11.8742791 11.9088812,12.9538639 C11.9088812,13.7208766 11.4625144,14.378316 10.8200692,14.6978085 L10.8200692,14.6978085 Z" id="Path" stroke="#FFFFFF" fill="#FFFFFF"></path>
                        </g>
                        <g id="square" transform="translate(14.000000, 15.000000)">
                            <polygon id="Fill-5" fill="#FFFFFF" points="0 10 22 10 22 0 0 0"></polygon>
                            <polygon id="Stroke-7" stroke="#000000" stroke-width="2" points="0 10 22 10 22 0 0 0"></polygon>
                        </g>
                        <polygon fill="#000000" points="18.7407877 17.9998449 18.7407877 19.5145851 17.2393445 19.0093023 17 19.7805233 18.4881464 20.2858061 17.5584704 21.534608 18.2222081 21.985595 19.1396952 20.7367931 20.082668 22 20.7209199 21.534608 19.7901359 20.2725092 21.2915792 19.7805233 21.0533428 19.0093023 19.5386026 19.5145851 19.5386026 17.9998449"></polygon>
                        <polygon id="Page-1-Copy" fill="#000000" points="24.7407877 17.9998449 24.7407877 19.5145851 23.2393445 19.0093023 23 19.7805233 24.4881464 20.2858061 23.5584704 21.534608 24.2222081 21.985595 25.1396952 20.7367931 26.082668 22 26.7209199 21.534608 25.7901359 20.2725092 27.2915792 19.7805233 27.0533428 19.0093023 25.5386026 19.5145851 25.5386026 17.9998449"></polygon>
                        <polygon id="Page-1-Copy-3" fill="#000000" points="30.7407877 17.9998449 30.7407877 19.5145851 29.2393445 19.0093023 29 19.7805233 30.4881464 20.2858061 29.5584704 21.534608 30.2222081 21.985595 31.1396952 20.7367931 32.082668 22 32.7209199 21.534608 31.7901359 20.2725092 33.2915792 19.7805233 33.0533428 19.0093023 31.5386026 19.5145851 31.5386026 17.9998449"></polygon>
                    </g>
                </g>
            </g>
        </g>
    </g>
</svg>