<?xml version="1.0" encoding="UTF-8" standalone="no"?>
<svg width="19px" height="18px" viewBox="0 0 19 18" version="1.1" xmlns="http://www.w3.org/2000/svg" xmlns:xlink="http://www.w3.org/1999/xlink">
    <!-- Generator: Sketch 39.1 (31720) - http://www.bohemiancoding.com/sketch -->
    <title>Wishlist</title>
    <desc>Created with Sketch.</desc>
    <defs></defs>
    <g id="Phase-1.5---New-Logo" stroke="none" stroke-width="1" fill="none" fill-rule="evenodd">
        <g id="ICONS" transform="translate(-108.000000, -10.000000)" fill="#000000">
            <g id="Wishlist" transform="translate(108.625000, 10.000000)">
                <g id="Icon_Heart_OL">
                    <g id="Layer_1">
                        <path d="M4.41,13.5 C2.34,11.61 0,9.27 0,5.94 C0,2.43 1.98,0.18 5.04,0.18 C7.02,0.18 8.28,1.26 9.09,2.16 C9.9,1.35 11.25,0.18 12.87,0.18 C15.12,0.18 18,1.71 18,5.94 C18,9.09 16.11,10.89 14.4,12.6 C14.13,12.87 13.86,13.14 13.59,13.5 C12.33,14.85 11.25,15.84 10.53,16.65 C10.08,17.19 9.18,17.91 9.18,17.91 C9.18,17.91 5.67,14.58 4.41,13.5 L4.41,13.5 Z M11.52,12.69 C13.05,11.16 16.02,8.28 16.02,5.94 C16.02,2.79 14.04,2.25 12.96,2.25 C11.34,2.25 9.99,4.23 9.99,4.32 C9.72,4.68 9.27,5.67 9.27,5.67 C9.27,5.67 8.64,4.59 8.46,4.14 C8.28,3.78 7.29,2.25 5.22,2.25 C2.7,2.25 2.16,4.23 2.16,5.94 C2.16,7.92 3.24,9.72 5.85,11.97 C7.65,13.59 8.55,14.49 9.27,15.21 L9.27,15.12 C9.18,15.12 10.53,13.68 11.52,12.69 L11.52,12.69 Z" id="Shape"></path>
                    </g>
                </g>
            </g>
        </g>
    </g>
</svg>