<?xml version="1.0" encoding="UTF-8" standalone="no"?><svg width="290" height="10" viewBox="0 0 290 10" xmlns="http://www.w3.org/2000/svg" xmlns:xlink="http://www.w3.org/1999/xlink"><svg width="10" height="10" viewBox="0 0 44 44" version="1.1" id="about-us-black">
    <!-- Generator: sketchtool 39.1 (31720) - http://www.bohemiancoding.com/sketch -->
    <title>91EF90A6-005C-48EE-9EF0-C90AA6EAD9CD</title>
    <desc>Created with sketchtool.</desc>
    <defs/>
    <g id="aaStyle-Guide" stroke="none" stroke-width="1" fill="none" fill-rule="evenodd">
        <g id="aaApp_All_Icons_Black" transform="translate(-18.000000, -1071.000000)">
            <g id="aaIcon-_About_Us" transform="translate(18.000000, 1071.000000)">
                <g id="aaIcon/Info" transform="translate(10.000000, 10.000000)">
                    <path d="M24,12 C24,18.626782 18.6281842,24 12,24 C5.37321804,24 0,18.626782 0,12 C0,5.37321804 5.37321804,0 12,0 C18.6281842,0 24,5.37321804 24,12 L24,12 Z" id="aaStroke-8" stroke="#000000" stroke-width="2"/>
                    <text id="aai" font-family="THEOUTNET-Bold, THE OUTNET" font-size="16" font-weight="bold" letter-spacing="0.571428657" fill="#000000">
                        <tspan x="10.2214888" y="16">i</tspan>
                    </text>
                </g>
            </g>
        </g>
    </g>
</svg><svg width="10" height="10" viewBox="0 0 44 44" version="1.1" id="about-us-grey" x="10">
    <!-- Generator: sketchtool 39.1 (31720) - http://www.bohemiancoding.com/sketch -->
    <title>69883D3F-CF14-4919-98B5-23B7C537AA31</title>
    <desc>Created with sketchtool.</desc>
    <defs/>
    <g id="abStyle-Guide" stroke="none" stroke-width="1" fill="none" fill-rule="evenodd">
        <g id="abApp_All_Icons_Grey" transform="translate(-18.000000, -1031.000000)">
            <g id="abIcon-_About_Us" transform="translate(18.000000, 1031.000000)">
                <g id="abIcon/About_Us" transform="translate(10.000000, 10.000000)">
                    <path d="M12,24 C5.37321804,24 0,18.626782 0,12 C0,5.37321804 5.37321804,0 12,0 C18.6281842,0 24,5.37321804 24,12 C24,18.626782 18.6281842,24 12,24 Z" id="abStroke-8" stroke="#B7B7B7" stroke-width="2"/>
                    <text id="abi" font-family="THEOUTNET-Bold, THE OUTNET" font-size="16" font-weight="bold" letter-spacing="0.571428657" fill="#B7B7B7">
                        <tspan x="10.2214888" y="16">i</tspan>
                    </text>
                </g>
            </g>
        </g>
    </g>
</svg><svg width="10" height="10" viewBox="0 0 30 18" version="1.1" id="arrow-down-black" x="20">
    <!-- Generator: Sketch 3.7.2 (28276) - http://www.bohemiancoding.com/sketch -->
    <title>Arrow down_Black</title>
    <desc>Created with Sketch.</desc>
    <defs/>
    <g id="acStyle-Guide" stroke="none" stroke-width="1" fill="none" fill-rule="evenodd">
        <g id="acIcons" transform="translate(-362.000000, -162.000000)" fill="#000000">
            <g id="acArrow-down_Black" transform="translate(355.000000, 149.000000)">
                <polygon id="acArrow-down" transform="translate(22.000000, 21.625000) rotate(-180.000000) translate(-22.000000, -21.625000) " points="37 27.25 22 13 7 27.25 10 30.25 22 18.8526786 34 30.25"/>
            </g>
        </g>
    </g>
</svg><svg width="10" height="10" viewBox="0 0 30 18" version="1.1" id="arrow-down-grey" x="30">
    <!-- Generator: Sketch 3.7.2 (28276) - http://www.bohemiancoding.com/sketch -->
    <title>Arrow down_Grey</title>
    <desc>Created with Sketch.</desc>
    <defs/>
    <g id="adStyle-Guide" stroke="none" stroke-width="1" fill="none" fill-rule="evenodd">
        <g id="adIcons" transform="translate(-362.000000, -237.000000)" fill="#B7B7B7">
            <g id="adArrow-down_Grey" transform="translate(355.000000, 224.000000)">
                <polygon id="adArrow-down" transform="translate(22.000000, 21.625000) rotate(-180.000000) translate(-22.000000, -21.625000) " points="37 27.25 22 13 7 27.25 10 30.25 22 18.8526786 34 30.25"/>
            </g>
        </g>
    </g>
</svg><svg width="10" height="10" viewBox="0 0 30 18" version="1.1" id="arrow-down-white" x="40">
    <!-- Generator: Sketch 3.7.2 (28276) - http://www.bohemiancoding.com/sketch -->
    <title>Arrow down_White</title>
    <desc>Created with Sketch.</desc>
    <defs/>
    <g id="aeStyle-Guide" stroke="none" stroke-width="1" fill="none" fill-rule="evenodd">
        <g id="aeIcons" transform="translate(-362.000000, -337.000000)" fill="#FFFFFF">
            <g id="aeArrow-down_White" transform="translate(355.000000, 324.000000)">
                <polygon id="aeArrow-down" transform="translate(22.000000, 21.625000) rotate(-180.000000) translate(-22.000000, -21.625000) " points="37 27.25 22 13 7 27.25 10 30.25 22 18.8526786 34 30.25"/>
            </g>
        </g>
    </g>
</svg><svg width="10" height="10" viewBox="0 0 18 31" version="1.1" id="arrow-left-black" x="50">
    <!-- Generator: Sketch 3.7.2 (28276) - http://www.bohemiancoding.com/sketch -->
    <title>Arrow left_Black</title>
    <desc>Created with Sketch.</desc>
    <defs/>
    <g id="afStyle-Guide" stroke="none" stroke-width="1" fill="none" fill-rule="evenodd">
        <g id="afIcons" transform="translate(-245.000000, -155.000000)" fill="#000000">
            <g id="afArrow-left_Black" transform="translate(232.000000, 149.000000)">
                <polygon id="afArrow-left" transform="translate(22.000000, 21.625000) rotate(-90.000000) translate(-22.000000, -21.625000) " points="37 27.25 22 13 7 27.25 10 30.25 22 18.8526786 34 30.25"/>
            </g>
        </g>
    </g>
</svg><svg width="10" height="10" viewBox="0 0 18 31" version="1.1" id="arrow-left-grey" x="60">
    <!-- Generator: Sketch 3.7.2 (28276) - http://www.bohemiancoding.com/sketch -->
    <title>Arrow left_Grey</title>
    <desc>Created with Sketch.</desc>
    <defs/>
    <g id="agStyle-Guide" stroke="none" stroke-width="1" fill="none" fill-rule="evenodd">
        <g id="agIcons" transform="translate(-245.000000, -230.000000)" fill="#B7B7B7">
            <g id="agArrow-left_Grey" transform="translate(232.000000, 224.000000)">
                <polygon id="agArrow-left" transform="translate(22.000000, 21.625000) rotate(-90.000000) translate(-22.000000, -21.625000) " points="37 27.25 22 13 7 27.25 10 30.25 22 18.8526786 34 30.25"/>
            </g>
        </g>
    </g>
</svg><svg width="10" height="10" viewBox="0 0 18 31" version="1.1" id="arrow-left-white" x="70">
    <!-- Generator: Sketch 3.7.2 (28276) - http://www.bohemiancoding.com/sketch -->
    <title>Arrow left_White</title>
    <desc>Created with Sketch.</desc>
    <defs/>
    <g id="ahStyle-Guide" stroke="none" stroke-width="1" fill="none" fill-rule="evenodd">
        <g id="ahIcons" transform="translate(-245.000000, -330.000000)" fill="#FFFFFF">
            <g id="ahArrow-left_White" transform="translate(232.000000, 324.000000)">
                <polygon id="ahArrow-left" transform="translate(22.000000, 21.625000) rotate(-90.000000) translate(-22.000000, -21.625000) " points="37 27.25 22 13 7 27.25 10 30.25 22 18.8526786 34 30.25"/>
            </g>
        </g>
    </g>
</svg><svg width="10" height="10" viewBox="0 0 18 31" version="1.1" id="arrow-right-black" x="80">
    <!-- Generator: Sketch 3.7.2 (28276) - http://www.bohemiancoding.com/sketch -->
    <title>Arrow right_Black</title>
    <desc>Created with Sketch.</desc>
    <defs/>
    <g id="aiStyle-Guide" stroke="none" stroke-width="1" fill="none" fill-rule="evenodd">
        <g id="aiIcons" transform="translate(-183.000000, -155.000000)" fill="#000000">
            <g id="aiArrow-right_Black" transform="translate(170.000000, 149.000000)">
                <polygon id="aiArrow-right" transform="translate(22.000000, 21.625000) rotate(-270.000000) translate(-22.000000, -21.625000) " points="37 27.25 22 13 7 27.25 10 30.25 22 18.8526786 34 30.25"/>
            </g>
        </g>
    </g>
</svg><svg width="10" height="10" viewBox="0 0 18 31" version="1.1" id="arrow-right-grey" x="90">
    <!-- Generator: Sketch 3.7.2 (28276) - http://www.bohemiancoding.com/sketch -->
    <title>Arrow right_Grey</title>
    <desc>Created with Sketch.</desc>
    <defs/>
    <g id="ajStyle-Guide" stroke="none" stroke-width="1" fill="none" fill-rule="evenodd">
        <g id="ajIcons" transform="translate(-183.000000, -230.000000)" fill="#B7B7B7">
            <g id="ajArrow-right_Grey" transform="translate(170.000000, 224.000000)">
                <polygon id="ajArrow-right" transform="translate(22.000000, 21.625000) rotate(-270.000000) translate(-22.000000, -21.625000) " points="37 27.25 22 13 7 27.25 10 30.25 22 18.8526786 34 30.25"/>
            </g>
        </g>
    </g>
</svg><svg width="10" height="10" viewBox="0 0 18 31" version="1.1" id="arrow-right-white" x="100">
    <!-- Generator: Sketch 3.7.2 (28276) - http://www.bohemiancoding.com/sketch -->
    <title>Arrow right_White</title>
    <desc>Created with Sketch.</desc>
    <defs/>
    <g id="akStyle-Guide" stroke="none" stroke-width="1" fill="none" fill-rule="evenodd">
        <g id="akIcons" transform="translate(-183.000000, -330.000000)" fill="#FFFFFF">
            <g id="akArrow-right_White" transform="translate(170.000000, 324.000000)">
                <polygon id="akArrow-right" transform="translate(22.000000, 21.625000) rotate(-270.000000) translate(-22.000000, -21.625000) " points="37 27.25 22 13 7 27.25 10 30.25 22 18.8526786 34 30.25"/>
            </g>
        </g>
    </g>
</svg><svg width="10" height="10" viewBox="0 0 30 18" version="1.1" id="arrow-up-black" x="110">
    <!-- Generator: Sketch 3.7.2 (28276) - http://www.bohemiancoding.com/sketch -->
    <title>Arrow up_Black</title>
    <desc>Created with Sketch.</desc>
    <defs/>
    <g id="alStyle-Guide" stroke="none" stroke-width="1" fill="none" fill-rule="evenodd">
        <g id="alIcons" transform="translate(-300.000000, -162.000000)" fill="#000000">
            <g id="alArrow-up_Black" transform="translate(293.000000, 149.000000)">
                <polygon id="alArrow-up" points="37 27.25 22 13 7 27.25 10 30.25 22 18.8526786 34 30.25"/>
            </g>
        </g>
    </g>
</svg><svg width="10" height="10" viewBox="0 0 30 18" version="1.1" id="arrow-up-grey" x="120">
    <!-- Generator: Sketch 3.7.2 (28276) - http://www.bohemiancoding.com/sketch -->
    <title>Arrow up_Grey</title>
    <desc>Created with Sketch.</desc>
    <defs/>
    <g id="amStyle-Guide" stroke="none" stroke-width="1" fill="none" fill-rule="evenodd">
        <g id="amIcons" transform="translate(-300.000000, -237.000000)" fill="#B7B7B7">
            <g id="amArrow-up_Grey" transform="translate(293.000000, 224.000000)">
                <polygon id="amArrow-up" points="37 27.25 22 13 7 27.25 10 30.25 22 18.8526786 34 30.25"/>
            </g>
        </g>
    </g>
</svg><svg width="10" height="10" viewBox="0 0 30 18" version="1.1" id="arrow-up-white" x="130">
    <!-- Generator: Sketch 3.7.2 (28276) - http://www.bohemiancoding.com/sketch -->
    <title>Arrow up_White</title>
    <desc>Created with Sketch.</desc>
    <defs/>
    <g id="anStyle-Guide" stroke="none" stroke-width="1" fill="none" fill-rule="evenodd">
        <g id="anIcons" transform="translate(-300.000000, -337.000000)" fill="#FFFFFF">
            <g id="anArrow-up_White" transform="translate(293.000000, 324.000000)">
                <polygon id="anArrow-up" points="37 27.25 22 13 7 27.25 10 30.25 22 18.8526786 34 30.25"/>
            </g>
        </g>
    </g>
</svg><svg width="10" height="10" viewBox="0 0 24 24" version="1.1" id="cross-black" x="140">
    <!-- Generator: Sketch 3.7.2 (28276) - http://www.bohemiancoding.com/sketch -->
    <title>Cross_Black</title>
    <desc>Created with Sketch.</desc>
    <defs/>
    <g id="aoStyle-Guide" stroke="none" stroke-width="1" fill="none" fill-rule="evenodd">
        <g id="aoIcons" transform="translate(-426.000000, -159.000000)" fill="#000000">
            <g id="aoCross_Black" transform="translate(416.000000, 149.000000)">
                <polygon id="aoCross" transform="translate(22.000000, 22.000000) rotate(-315.000000) translate(-22.000000, -22.000000) " points="37 20.2 23.8 20.2 23.8 7 20.2 7 20.2 20.2 7 20.2 7 23.8 20.2 23.8 20.2 37 23.8 37 23.8 23.8 37 23.8"/>
            </g>
        </g>
    </g>
</svg><svg width="10" height="10" viewBox="0 0 24 24" version="1.1" id="cross-grey" x="150">
    <!-- Generator: Sketch 3.7.2 (28276) - http://www.bohemiancoding.com/sketch -->
    <title>Cross_Grey</title>
    <desc>Created with Sketch.</desc>
    <defs/>
    <g id="apStyle-Guide" stroke="none" stroke-width="1" fill="none" fill-rule="evenodd">
        <g id="apIcons" transform="translate(-426.000000, -234.000000)" fill="#B7B7B7">
            <g id="apCross_Grey" transform="translate(416.000000, 224.000000)">
                <polygon id="apCross" transform="translate(22.000000, 22.000000) rotate(-315.000000) translate(-22.000000, -22.000000) " points="37 20.2 23.8 20.2 23.8 7 20.2 7 20.2 20.2 7 20.2 7 23.8 20.2 23.8 20.2 37 23.8 37 23.8 23.8 37 23.8"/>
            </g>
        </g>
    </g>
</svg><svg width="10" height="10" viewBox="0 0 24 24" version="1.1" id="cross-white" x="160">
    <!-- Generator: Sketch 3.7.2 (28276) - http://www.bohemiancoding.com/sketch -->
    <title>Cross_White</title>
    <desc>Created with Sketch.</desc>
    <defs/>
    <g id="aqStyle-Guide" stroke="none" stroke-width="1" fill="none" fill-rule="evenodd">
        <g id="aqIcons" transform="translate(-426.000000, -334.000000)" fill="#FFFFFF">
            <g id="aqCross_White" transform="translate(416.000000, 324.000000)">
                <polygon id="aqCross" transform="translate(22.000000, 22.000000) rotate(-315.000000) translate(-22.000000, -22.000000) " points="37 20.2 23.8 20.2 23.8 7 20.2 7 20.2 20.2 7 20.2 7 23.8 20.2 23.8 20.2 37 23.8 37 23.8 23.8 37 23.8"/>
            </g>
        </g>
    </g>
</svg><svg version="1.1" id="lock-black" xmlns:sketch="http://www.bohemiancoding.com/sketch/ns" x="170" viewBox="-469 269 20 23" style="enable-background:new -469 269 20 23;" xml:space="preserve" width="10" height="10">
<style type="text/css">.arst0{fill:none}</style>
<title>Icon /account</title>
<desc>Created with Sketch.</desc>
<g id="arAssets" sketch:type="MSPage">
	<g id="arTON-tool-kit" transform="translate(-1716.000000, -812.000000)" sketch:type="MSArtboardGroup">
		<g>
			<path class="arst0" d="M1257,1092c-1.1,0-2,0.9-2,2c0,0.7,0.4,1.4,1,1.7v3.3h2v-3.3c0.6-0.3,1-1,1-1.7
				C1259,1092.9,1258.1,1092,1257,1092z"/>
			<path class="arst0" d="M1260.5,1083.5h-7c-1.1,0-2,0.9-2,2v2.5h11v-2.5C1262.5,1084.4,1261.6,1083.5,1260.5,1083.5z"/>
			<path d="M1264.5,1088v-2.5c0-2.2-1.8-4-4-4h-7c-2.2,0-4,1.8-4,4v2.5h-2.5v12c0,2.2,1.8,4,4,4h12c2.2,0,4-1.8,4-4v-12H1264.5z
				 M1258,1095.7v3.3h-2v-3.3c-0.6-0.3-1-1-1-1.7c0-1.1,0.9-2,2-2s2,0.9,2,2C1259,1094.7,1258.6,1095.4,1258,1095.7z M1262.5,1088
				h-11v-2.5c0-1.1,0.9-2,2-2h7c1.1,0,2,0.9,2,2V1088z"/>
		</g>
	</g>
</g>
</svg><svg version="1.1" id="lock-grey" xmlns:sketch="http://www.bohemiancoding.com/sketch/ns" x="180" viewBox="-469 269 20 23" style="enable-background:new -469 269 20 23;" xml:space="preserve" width="10" height="10">
<style type="text/css">.asst0{display:none;fill:none}.asst1{fill:#b7b7b7}</style>
<title>Icon /account</title>
<desc>Created with Sketch.</desc>
<g id="asAssets" sketch:type="MSPage">
	<g id="asTON-tool-kit" transform="translate(-1716.000000, -812.000000)" sketch:type="MSArtboardGroup">
		<g>
			<path class="asst0" d="M1257,1092c-1.1,0-2,0.9-2,2c0,0.7,0.4,1.4,1,1.7v3.3h2v-3.3c0.6-0.3,1-1,1-1.7
				C1259,1092.9,1258.1,1092,1257,1092z"/>
			<path class="asst0" d="M1260.5,1083.5h-7c-1.1,0-2,0.9-2,2v2.5h11v-2.5C1262.5,1084.4,1261.6,1083.5,1260.5,1083.5z"/>
			<path class="asst1" d="M1264.5,1088v-2.5c0-2.2-1.8-4-4-4h-7c-2.2,0-4,1.8-4,4v2.5h-2.5v12c0,2.2,1.8,4,4,4h12c2.2,0,4-1.8,4-4v-12
				H1264.5z M1258,1095.7v3.3h-2v-3.3c-0.6-0.3-1-1-1-1.7c0-1.1,0.9-2,2-2s2,0.9,2,2C1259,1094.7,1258.6,1095.4,1258,1095.7z
				 M1262.5,1088h-11v-2.5c0-1.1,0.9-2,2-2h7c1.1,0,2,0.9,2,2V1088z"/>
		</g>
	</g>
</g>
</svg><svg version="1.1" id="lock-white" xmlns:sketch="http://www.bohemiancoding.com/sketch/ns" x="190" viewBox="-469 269 20 23" style="enable-background:new -469 269 20 23;" xml:space="preserve" width="10" height="10">
<style type="text/css">.atst0{display:none;fill:#fff}.atst1{fill:#fff}</style>
<title>Icon /account</title>
<desc>Created with Sketch.</desc>
<g id="atAssets" sketch:type="MSPage">
	<g id="atTON-tool-kit" transform="translate(-1716.000000, -812.000000)" sketch:type="MSArtboardGroup">
		<g>
			<path class="atst0" d="M1260.5,1083.2h-7c-1.1,0-2,0.9-2,2v2.5h11v-2.5C1262.5,1084.2,1261.6,1083.2,1260.5,1083.2z"/>
			<path class="atst1" d="M1264.5,1087.8v-2.5c0-2.2-1.8-4-4-4h-7c-2.2,0-4,1.8-4,4v2.5h-2.5v12c0,2.2,1.8,4,4,4h12c2.2,0,4-1.8,4-4
				v-12H1264.5z M1258,1095.4v3.3h-2v-3.3c-0.6-0.3-1-1-1-1.7c0-1.1,0.9-2,2-2s2,0.9,2,2C1259,1094.4,1258.6,1095.2,1258,1095.4z
				 M1262.5,1087.8h-11v-2.5c0-1.1,0.9-2,2-2h7c1.1,0,2,0.9,2,2V1087.8z"/>
			<path class="atst0" d="M1257,1091.8c-1.1,0-2,0.9-2,2c0,0.7,0.4,1.4,1,1.7v3.3h2v-3.3c0.6-0.3,1-1,1-1.7
				C1259,1092.7,1258.1,1091.8,1257,1091.8z"/>
		</g>
	</g>
</g>
</svg><svg width="10" height="10" viewBox="0 0 30 4" version="1.1" id="minus-black" x="200">
    <!-- Generator: Sketch 3.7.2 (28276) - http://www.bohemiancoding.com/sketch -->
    <title>Minus_Black</title>
    <desc>Created with Sketch.</desc>
    <defs/>
    <g id="auStyle-Guide" stroke="none" stroke-width="1" fill="none" fill-rule="evenodd">
        <g id="auIcons" transform="translate(-546.000000, -169.000000)" fill="#000000">
            <g id="auMinus_Black" transform="translate(539.000000, 149.000000)">
                <rect id="auMinus" x="7" y="20" width="30" height="3.6"/>
            </g>
        </g>
    </g>
</svg><svg width="10" height="10" viewBox="0 0 30 4" version="1.1" id="minus-grey" x="210">
    <!-- Generator: Sketch 3.7.2 (28276) - http://www.bohemiancoding.com/sketch -->
    <title>Minus_Grey</title>
    <desc>Created with Sketch.</desc>
    <defs/>
    <g id="avStyle-Guide" stroke="none" stroke-width="1" fill="none" fill-rule="evenodd">
        <g id="avIcons" transform="translate(-546.000000, -244.000000)" fill="#B7B7B7">
            <g id="avMinus_Grey" transform="translate(539.000000, 224.000000)">
                <rect id="avMinus" x="7" y="20" width="30" height="3.6"/>
            </g>
        </g>
    </g>
</svg><svg width="10" height="10" viewBox="0 0 30 4" version="1.1" id="minus-white" x="220">
    <!-- Generator: Sketch 3.7.2 (28276) - http://www.bohemiancoding.com/sketch -->
    <title>Minus_White</title>
    <desc>Created with Sketch.</desc>
    <defs/>
    <g id="awStyle-Guide" stroke="none" stroke-width="1" fill="none" fill-rule="evenodd">
        <g id="awIcons" transform="translate(-546.000000, -344.000000)" fill="#FFFFFF">
            <g id="awMinus_White" transform="translate(539.000000, 324.000000)">
                <rect id="awMinus" x="7" y="20" width="30" height="3.6"/>
            </g>
        </g>
    </g>
</svg><svg width="10" height="10" viewBox="0 0 30 30" version="1.1" id="plus-black" x="230">
    <!-- Generator: Sketch 3.7.2 (28276) - http://www.bohemiancoding.com/sketch -->
    <title>Plus _Black</title>
    <desc>Created with Sketch.</desc>
    <defs/>
    <g id="axStyle-Guide" stroke="none" stroke-width="1" fill="none" fill-rule="evenodd">
        <g id="axIcons" transform="translate(-485.000000, -156.000000)" fill="#000000">
            <g id="axPlus-_Black" transform="translate(478.000000, 149.000000)">
                <polygon id="axPlus-" points="37 20.2 23.8 20.2 23.8 7 20.2 7 20.2 20.2 7 20.2 7 23.8 20.2 23.8 20.2 37 23.8 37 23.8 23.8 37 23.8"/>
            </g>
        </g>
    </g>
</svg><svg width="10" height="10" viewBox="0 0 30 30" version="1.1" id="plus-grey" x="240">
    <!-- Generator: Sketch 3.7.2 (28276) - http://www.bohemiancoding.com/sketch -->
    <title>Plus_Grey</title>
    <desc>Created with Sketch.</desc>
    <defs/>
    <g id="ayStyle-Guide" stroke="none" stroke-width="1" fill="none" fill-rule="evenodd">
        <g id="ayIcons" transform="translate(-485.000000, -231.000000)" fill="#B7B7B7">
            <g id="ayPlus_Grey" transform="translate(478.000000, 224.000000)">
                <polygon id="ayPlus-" points="37 20.2 23.8 20.2 23.8 7 20.2 7 20.2 20.2 7 20.2 7 23.8 20.2 23.8 20.2 37 23.8 37 23.8 23.8 37 23.8"/>
            </g>
        </g>
    </g>
</svg><svg width="10" height="10" viewBox="0 0 30 30" version="1.1" id="plus-white" x="250">
    <!-- Generator: Sketch 3.7.2 (28276) - http://www.bohemiancoding.com/sketch -->
    <title>Plus_White</title>
    <desc>Created with Sketch.</desc>
    <defs/>
    <g id="azStyle-Guide" stroke="none" stroke-width="1" fill="none" fill-rule="evenodd">
        <g id="azIcons" transform="translate(-485.000000, -331.000000)" fill="#FFFFFF">
            <g id="azPlus_White" transform="translate(478.000000, 324.000000)">
                <polygon id="azPlus-" points="37 20.2 23.8 20.2 23.8 7 20.2 7 20.2 20.2 7 20.2 7 23.8 20.2 23.8 20.2 37 23.8 37 23.8 23.8 37 23.8"/>
            </g>
        </g>
    </g>
</svg><svg width="10" height="10" viewBox="0 0 30 31" version="1.1" id="search-black" x="260">
    <!-- Generator: Sketch 3.7.2 (28276) - http://www.bohemiancoding.com/sketch -->
    <title>Search_Black</title>
    <desc>Created with Sketch.</desc>
    <defs/>
    <g id="baStyle-Guide" stroke="none" stroke-width="1" fill="none" fill-rule="evenodd">
        <g id="baIcons" transform="translate(-608.000000, -156.000000)" fill="#000000">
            <g id="baSearch_Black" transform="translate(601.000000, 149.000000)">
                <path d="M37,34.8493687 L26.8948696,24.7442382 C27.2288024,24.3177832 27.5252814,23.8542451 27.7850481,23.390707 C28.6748558,21.7775944 29.1383939,19.923442 29.1383939,18.0692897 C29.1383939,11.9691284 24.169451,7 18.0692897,7 C11.9691284,7 7,11.9691284 7,18.0692897 C7,24.169451 11.9691284,29.1385793 18.0692897,29.1385793 C20.0903158,29.1385793 22.0742588,28.5823336 23.7984351,27.5440083 C23.9284112,27.4698422 24.0582018,27.3771346 24.1879925,27.3029685 L34.3858306,37.5008066 L37,34.8493687 M18.0876458,25.4117331 C14.0270521,25.4117331 10.7266609,22.1113419 10.7266609,18.0507482 C10.7266609,13.9901545 14.0270521,10.6897632 18.0876458,10.6897632 C22.1482395,10.6897632 25.4486307,13.9901545 25.4486307,18.0507482 C25.4486307,19.2930302 25.1334248,20.5167708 24.540096,21.5921792 C23.9096842,22.7232121 23.0011496,23.6873714 21.8886581,24.3548662 C20.7390837,25.0409026 19.4226355,25.4117331 18.0876458,25.4117331 L18.0876458,25.4117331" id="baSearch"/>
            </g>
        </g>
    </g>
</svg><svg width="10" height="10" viewBox="0 0 30 31" version="1.1" id="search-grey" x="270">
    <!-- Generator: Sketch 3.7.2 (28276) - http://www.bohemiancoding.com/sketch -->
    <title>Search_Grey</title>
    <desc>Created with Sketch.</desc>
    <defs/>
    <g id="bbStyle-Guide" stroke="none" stroke-width="1" fill="none" fill-rule="evenodd">
        <g id="bbIcons" transform="translate(-608.000000, -231.000000)" fill="#B7B7B7">
            <g id="bbSearch_Grey" transform="translate(601.000000, 224.000000)">
                <path d="M37,34.8493687 L26.8948696,24.7442382 C27.2288024,24.3177832 27.5252814,23.8542451 27.7850481,23.390707 C28.6748558,21.7775944 29.1383939,19.923442 29.1383939,18.0692897 C29.1383939,11.9691284 24.169451,7 18.0692897,7 C11.9691284,7 7,11.9691284 7,18.0692897 C7,24.169451 11.9691284,29.1385793 18.0692897,29.1385793 C20.0903158,29.1385793 22.0742588,28.5823336 23.7984351,27.5440083 C23.9284112,27.4698422 24.0582018,27.3771346 24.1879925,27.3029685 L34.3858306,37.5008066 L37,34.8493687 M18.0876458,25.4117331 C14.0270521,25.4117331 10.7266609,22.1113419 10.7266609,18.0507482 C10.7266609,13.9901545 14.0270521,10.6897632 18.0876458,10.6897632 C22.1482395,10.6897632 25.4486307,13.9901545 25.4486307,18.0507482 C25.4486307,19.2930302 25.1334248,20.5167708 24.540096,21.5921792 C23.9096842,22.7232121 23.0011496,23.6873714 21.8886581,24.3548662 C20.7390837,25.0409026 19.4226355,25.4117331 18.0876458,25.4117331 L18.0876458,25.4117331" id="bbSearch"/>
            </g>
        </g>
    </g>
</svg><svg width="10" height="10" viewBox="0 0 30 31" version="1.1" id="search-white" x="280">
    <!-- Generator: Sketch 3.7.2 (28276) - http://www.bohemiancoding.com/sketch -->
    <title>Search_White</title>
    <desc>Created with Sketch.</desc>
    <defs/>
    <g id="bcStyle-Guide" stroke="none" stroke-width="1" fill="none" fill-rule="evenodd">
        <g id="bcIcons" transform="translate(-608.000000, -331.000000)" fill="#FFFFFF">
            <g id="bcSearch_White" transform="translate(601.000000, 324.000000)">
                <path d="M37,34.8493687 L26.8948696,24.7442382 C27.2288024,24.3177832 27.5252814,23.8542451 27.7850481,23.390707 C28.6748558,21.7775944 29.1383939,19.923442 29.1383939,18.0692897 C29.1383939,11.9691284 24.169451,7 18.0692897,7 C11.9691284,7 7,11.9691284 7,18.0692897 C7,24.169451 11.9691284,29.1385793 18.0692897,29.1385793 C20.0903158,29.1385793 22.0742588,28.5823336 23.7984351,27.5440083 C23.9284112,27.4698422 24.0582018,27.3771346 24.1879925,27.3029685 L34.3858306,37.5008066 L37,34.8493687 M18.0876458,25.4117331 C14.0270521,25.4117331 10.7266609,22.1113419 10.7266609,18.0507482 C10.7266609,13.9901545 14.0270521,10.6897632 18.0876458,10.6897632 C22.1482395,10.6897632 25.4486307,13.9901545 25.4486307,18.0507482 C25.4486307,19.2930302 25.1334248,20.5167708 24.540096,21.5921792 C23.9096842,22.7232121 23.0011496,23.6873714 21.8886581,24.3548662 C20.7390837,25.0409026 19.4226355,25.4117331 18.0876458,25.4117331 L18.0876458,25.4117331" id="bcSearch"/>
            </g>
        </g>
    </g>
</svg></svg>