<?xml version="1.0" encoding="UTF-8" standalone="no"?><svg width="260" height="20" viewBox="0 0 260 20" xmlns="http://www.w3.org/2000/svg" xmlns:xlink="http://www.w3.org/1999/xlink"><svg width="20" height="20" viewBox="0 0 17 23" version="1.1" id="account-address">
    <!-- Generator: Sketch 39.1 (31720) - http://www.bohemiancoding.com/sketch -->
    <title>Address Details</title>
    <desc>Created with Sketch.</desc>
    <defs/>
    <g id="aaPhase-1.5---New-Logo" stroke="none" stroke-width="1" fill="none" fill-rule="evenodd">
        <g id="aaICONS" transform="translate(-181.000000, -7.000000)" stroke="#000000" fill="#FFFFFF">
            <g id="aaAddress-Details" transform="translate(182.250000, 8.000000)">
                <g id="aanoun_66472_cc-copy-2">
                    <g id="aaGroup" stroke-width="2">
                        <path d="M7.02935484,0 C3.22767742,0 0.145870968,3.03288889 0.145870968,6.774 C0.145870968,6.85422222 0.148354839,6.936 0.151967742,7.01822222 C0.177709677,7.72977778 0.314096774,8.41333333 0.546,9.05288889 C2.01464516,13.8031111 7.02935484,20 7.02935484,20 C7.02935484,20 12.0433871,13.8035556 13.5122581,9.05311111 C13.7443871,8.41355556 13.8807742,7.72955556 13.9062903,7.018 C13.9105806,6.93577778 13.9126129,6.85422222 13.9126129,6.77377778 C13.9128387,3.03288889 10.8308065,0 7.02935484,0 L7.02935484,0 Z M6.88977419,9.40051755 C5.37447064,9.40051755 4.14587097,8.19141946 4.14587097,6.70016834 C4.14587097,5.20909809 5.37447064,4 6.88977419,4 C8.40526153,4 9.63367742,5.20909809 9.63367742,6.70016834 C9.63367742,8.19141946 8.40526153,9.40051755 6.88977419,9.40051755 L6.88977419,9.40051755 Z" id="aaShape"/>
                    </g>
                </g>
            </g>
        </g>
    </g>
</svg><svg width="20" height="20" viewBox="0 0 22 16" version="1.1" id="email" x="20">
    <!-- Generator: Sketch 39.1 (31720) - http://www.bohemiancoding.com/sketch -->
    <title>Page 1</title>
    <desc>Created with Sketch.</desc>
    <defs/>
    <g id="abPhase-1.5---V5" stroke="none" stroke-width="1" fill="none" fill-rule="evenodd">
        <g id="ab1.5_MyAccount_Desktop-_07_OrdersB_Reserved" transform="translate(-71.000000, -1235.000000)">
            <g id="abPage-1" transform="translate(71.000000, 1235.000000)">
                <polygon id="abFill-1" fill="#FFFFFF" points="11 9.637 2 2.989 2 14 20 14 20 2.989"/>
                <polygon id="abFill-2" fill="#FFFFFF" points="18.625 2 3.562 2 11 7.484"/>
                <path d="M0,16 L22,16 L22,0 L0,0 L0,16 Z M3.562,2 L18.625,2 L11,7.484 L3.562,2 Z M20,2.989 L20,14 L2,14 L2,2.989 L11.048,9.637 L20,2.989 Z" id="abFill-3" fill="#000000"/>
            </g>
        </g>
    </g>
</svg><svg width="20" height="20" viewBox="0 0 26 20" version="1.1" id="email-pref" x="40">
    <!-- Generator: Sketch 39.1 (31720) - http://www.bohemiancoding.com/sketch -->
    <title>Email Preferences</title>
    <desc>Created with Sketch.</desc>
    <defs/>
    <g id="acPhase-1.5---New-Logo" stroke="none" stroke-width="1" fill="none" fill-rule="evenodd">
        <g id="acICONS" transform="translate(-251.000000, -7.000000)">
            <g id="acEmail-Preferences" transform="translate(251.875000, 7.000000)">
                <g id="acPage-1">
                    <path d="M16.1288,9.3035 L9.9998,14.2305 L1.9998,7.7995 L1.9998,17.2585 L17.9998,17.2585 L17.9998,11.0785 C17.4338,10.5245 16.7408,9.8585 16.1288,9.3035" id="acFill-1" fill="#FFFFFF"/>
                    <path d="M14.7775,8.0609 C14.2585,7.5279 13.7865,6.9329 13.4435,6.2579 L4.0575,6.2579 L10.5775,11.3109 L14.7775,8.0609 Z" id="acFill-3" fill="#FFFFFF"/>
                    <path d="M23.1172,3.9639 C23.1172,3.0679 22.8412,1.9999 21.5232,1.9999 C20.8112,1.9999 20.0592,2.8959 19.8972,3.1349 L18.9642,4.5139 L18.1852,3.0419 C18.1662,3.0079 17.5942,1.9999 16.4762,1.9999 C16.0822,1.9999 14.8832,1.9999 14.8832,3.9639 C14.8832,5.1309 15.5322,6.1569 17.1242,7.5079 C18.1082,8.3769 18.6672,8.9069 19.0842,9.3199 C19.5502,8.8739 20.1112,8.3259 20.7892,7.5919 C20.9872,7.3859 21.1762,7.1989 21.3622,7.0149 C22.3432,6.0459 23.1172,5.2809 23.1172,3.9639" id="acFill-5" fill="#FFFFFF"/>
                    <path d="M2,17.2583 L2,7.7993 L10,14.2303 L16.129,9.3033 C16.74,9.8583 17.434,10.5243 18,11.0783 L18,17.2583 L2,17.2583 Z M4.057,6.2583 L13.443,6.2583 C13.786,6.9333 14.258,7.5273 14.778,8.0613 L10.578,11.3113 L10,11.7583 L3.5,6.2583 L4.057,6.2583 Z M20.789,7.5913 C20.111,8.3263 19.55,8.8743 19.084,9.3203 C18.667,8.9073 18.108,8.3773 17.124,7.5083 C15.532,6.1573 14.883,5.1313 14.883,3.9643 C14.883,2.0003 16.082,2.0003 16.477,2.0003 C17.594,2.0003 18.166,3.0083 18.186,3.0423 L18.964,4.5133 L19.897,3.1343 C20.06,2.8953 20.812,2.0003 21.523,2.0003 C22.841,2.0003 23.117,3.0683 23.117,3.9643 C23.117,5.2813 22.343,6.0463 21.362,7.0143 C21.176,7.1993 20.987,7.3853 20.789,7.5913 L20.789,7.5913 Z M21.523,0.0003 C20.516,0.0003 19.679,0.5283 19.101,1.0463 C18.529,0.5213 17.663,0.0003 16.477,0.0003 C14.293,0.0003 12.883,1.5553 12.883,3.9643 C12.883,4.0663 12.901,4.1593 12.907,4.2583 L0,4.2583 L0,19.2583 L20,19.2583 L20,11.2073 C21.057,10.1483 22.652,8.5523 22.769,8.4373 C23.869,7.3493 25.117,6.1173 25.117,3.9643 C25.117,1.0383 23.182,0.0003 21.523,0.0003 L21.523,0.0003 Z" id="acFill-7" fill="#000000"/>
                </g>
            </g>
        </g>
    </g>
</svg><svg width="20" height="20" viewBox="0 0 22 22" version="1.1" id="gift-credit" x="60">
    <!-- Generator: Sketch 39.1 (31720) - http://www.bohemiancoding.com/sketch -->
    <title>Page 1</title>
    <desc>Created with Sketch.</desc>
    <defs/>
    <g id="adPhase-1.5---New-Logo" stroke="none" stroke-width="1" fill="none" fill-rule="evenodd">
        <g id="adICONS" transform="translate(-581.000000, -5.000000)" stroke-width="2" stroke="#000000">
            <g id="adPage-1" transform="translate(582.000000, 6.000000)">
                <polygon id="adStroke-1" points="0 19.372 20 19.372 20 5.872 0 5.872"/>
                <path d="M10,18.8799 L10,5.8799" id="adStroke-3"/>
                <path d="M10.0159,5.8668 C10.0159,5.8668 9.4399,0.5358 13.0939,0.0358 C16.0599,-0.3702 16.2179,2.8138 15.6659,3.6008 C15.1149,4.3878 15.1149,5.8538 10.0159,5.8668 L10.0159,5.8668 Z" id="adStroke-4"/>
                <path d="M9.8835,5.8668 C9.8835,5.8668 10.4595,0.5358 6.8055,0.0358 C3.8395,-0.3702 3.6815,2.8138 4.2335,3.6008 C4.7845,4.3878 4.7845,5.8538 9.8835,5.8668 L9.8835,5.8668 Z" id="adStroke-5"/>
            </g>
        </g>
    </g>
</svg><svg width="20" height="20" viewBox="0 0 24 19" version="1.1" id="livechat" x="80">
    <!-- Generator: Sketch 39.1 (31720) - http://www.bohemiancoding.com/sketch -->
    <title>Group 2</title>
    <desc>Created with Sketch.</desc>
    <defs/>
    <g id="aeStyle-Guide" stroke="none" stroke-width="1" fill="none" fill-rule="evenodd">
        <g id="aeMyAccount_Icons" transform="translate(-28.000000, -731.000000)">
            <g id="aeIcon_Livechat_2" transform="translate(18.000000, 718.000000)">
                <g id="aeGroup-2" transform="translate(10.000000, 13.000000)">
                    <g id="aeIcon_Livechat_white" transform="translate(8.000000, 7.500000) scale(-1, 1) translate(-8.000000, -7.500000) ">
                        <g>
                            <g id="aeRectangle">
                                <polygon id="aePath-2" fill="#FFFFFF" transform="translate(8.099496, 7.166182) scale(-1, 1) translate(-8.099496, -7.166182) " points="0.640062049 10.3525391 3.65506096 10.3525391 3.6358522 13.5527344 9.18562661 10.3525393 9.18562661 5.82147198 15.5589567 5.82147198 15.5589567 4.81317139 15.5589565 0.779629039 0.640036214 0.779629039"/>
                                <path d="M0,5.88818359 L0,0 L16,0 L16,11.0150203 L12.9090909,11.0150203 L12.9090909,15 L7.74181818,11.0150203 L7,11.0150203 L7,9.63278658 L8.25745455,9.63278658 L11.4545455,12.0973093 L11.4545455,9.63278658 L14.5454545,9.63278658 L14.5454545,1.38223369 L1.45454545,1.38223369 L1.45454545,5.88818359 L1.33226763e-15,5.88818359 Z" id="aeCombined-Shape" fill="#000000"/>
                            </g>
                            <polygon id="aeFill-4" fill="#000000" points="3 3.85714289 13.1818182 3.85714289 13.1818182 3 3 3"/>
                            <polygon id="aeFill-6" fill="#000000" points="3 5.85714289 13.1818182 5.85714289 13.1818182 5 3 5"/>
                            <polygon id="aeFill-8" fill="#000000" points="8 7.85714289 13.0909091 7.85714289 13.0909091 7 8 7"/>
                        </g>
                    </g>
                    <g id="aeIcon_Livechat_black" transform="translate(17.000000, 13.000000) scale(-1, 1) translate(-17.000000, -13.000000) translate(10.000000, 7.000000)">
                        <g transform="translate(7.000000, 6.000000) scale(-1, 1) translate(-7.000000, -6.000000) ">
                            <g>
                                <polygon id="aeFill-2" fill="#000000" points="0 0 0 8.81201622 6.77409091 8.81201622 11.2954545 12 11.2954545 8.81201622 14 8.81201622 14 0"/>
                                <polygon id="aeFill-4" fill="#FFFFFF" points="2 2.85714289 12 2.85714289 12 2 2 2"/>
                                <polygon id="aeFill-6" fill="#FFFFFF" points="2 4.85714289 12 4.85714289 12 4 2 4"/>
                                <polygon id="aeFill-8" fill="#FFFFFF" points="6 6.85714289 12 6.85714289 12 6 6 6"/>
                            </g>
                        </g>
                    </g>
                </g>
            </g>
        </g>
    </g>
</svg><svg width="20" height="20" viewBox="0 0 27 24" version="1.1" id="orders" x="100">
    <!-- Generator: Sketch 39.1 (31720) - http://www.bohemiancoding.com/sketch -->
    <title>Icon_orders</title>
    <desc>Created with Sketch.</desc>
    <defs/>
    <g id="afStyle-Guide" stroke="none" stroke-width="1" fill="none" fill-rule="evenodd">
        <g id="afApp_Tab" transform="translate(-27.000000, -464.000000)">
            <g id="aforders" transform="translate(18.000000, 457.000000)">
                <g id="afIcon_orders" transform="translate(9.000000, 7.000000)">
                    <polygon id="afFill-1" fill="#FEFEFE" points="2.2926 7.619 21.6676 7.619 22.9596 20.286 1.1256 20.286"/>
                    <polygon id="afFill-2" fill="#1D1C1B" points="23.6259 9.4047 24.9169 22.1897 3.1709 22.1897 2.9929 23.9997 26.9429 23.9997 25.5039 9.4047"/>
                    <polygon id="afClip-4" points="-3.55271368e-15 21.2581 -3.55271368e-15 24 26.943 24 26.943 0.953 -3.55271368e-15 0.953 -3.55271368e-15 21.2581 23.9509 21.2581 23.9509 0.9531 -0.0001 0.9531 -0.0001 21.2581"/>
                    <path d="M9.6309,6.6621 L14.3079,6.6621 C12.9889,2.8001 12.2219,2.4161 11.9699,2.4161 C11.7179,2.4161 10.9499,2.8001 9.6309,6.6621 L9.6309,6.6621 Z M20.8449,8.4731 L16.4189,8.4731 C16.6709,9.3361 16.9349,10.2841 17.1989,11.3151 L15.7839,11.6751 C15.4719,10.4521 15.1719,9.3961 14.8959,8.4731 L9.0429,8.4731 C8.7679,9.3961 8.4669,10.4521 8.1559,11.6751 L6.7399,11.3151 C7.0049,10.2841 7.2679,9.3361 7.5199,8.4731 L3.1069,8.4731 L2.0269,19.4471 L21.9239,19.4471 L20.8449,8.4731 Z M1.4399,6.6621 L8.0839,6.6621 C9.4149,2.6201 10.5899,0.9531 11.9699,0.9531 C13.3489,0.9531 14.5249,2.6201 15.8559,6.6621 L22.5119,6.6621 L23.9509,21.2581 L-0.0001,21.2581 L1.4399,6.6621 Z" id="afFill-3" fill="#1D1C1B"/>
                </g>
            </g>
        </g>
    </g>
</svg><svg width="20" height="20" viewBox="0 0 32 22" version="1.1" id="personal-assistant" x="120">
    <!-- Generator: Sketch 39.1 (31720) - http://www.bohemiancoding.com/sketch -->
    <title>Group 5</title>
    <desc>Created with Sketch.</desc>
    <defs/>
    <g id="agStyle-Guide" stroke="none" stroke-width="1" fill="none" fill-rule="evenodd">
        <g id="agMyAccount_Icons" transform="translate(-24.000000, -863.000000)">
            <g id="agPersonalAssistant" transform="translate(18.000000, 852.000000)">
                <g id="agGroup-5" transform="translate(6.000000, 11.000000)">
                    <g id="agIcon_PersonalAssistant" transform="translate(0.000000, 1.000000)" fill="#000000">
                        <path d="M0,20.2164 L17.6,20.2164 C17.6,16.3164 15.8,12.9164 13.2,11.1164 C11.8,12.7164 10,13.7164 8.8,13.8164 C7.5,13.9164 5.7,12.9164 4.3,11.2164 C1.7,13.0164 0,16.4164 0,20.2164" id="agFill-9"/>
                        <path d="M8.8,0.8164 C7.6,0.8164 6.3,1.4164 5.4,2.4164 C4.5,3.4164 4.1,4.7164 4.2,6.1164 C4.6,9.6164 7.4,11.8164 8.5,11.8164 C9.6,11.7164 12.9,9.5164 13.3,6.1164 C13.5,4.7164 13,3.4164 12.1,2.4164 C11.3,1.4164 10,0.8164 8.8,0.8164" id="agFill-11"/>
                    </g>
                    <g id="agIcon_PersonalAssistant_bubble" transform="translate(24.000000, 7.500000) scale(-1, 1) translate(-24.000000, -7.500000) translate(16.000000, 0.000000)">
                        <polygon id="agFill-1" fill="#FFFFFF" points="15.2727273 9.81162014 12.1818182 9.81162014 12.1818182 12.8571429 8 9.81162014 0.727272727 9.81162014 0.727272727 0.714214286 15.2727273 0.714214286"/>
                        <path d="M0,0 L0,11.0150203 L7.74181818,11.0150203 L12.9090909,15 L12.9090909,11.0150203 L16,11.0150203 L16,0 L0,0 Z M1.45454545,1.38223369 L14.5454545,1.38223369 L14.5454545,9.63278658 L11.4545455,9.63278658 L11.4545455,12.0973093 L8.25745455,9.63278658 L1.45454545,9.63278658 L1.45454545,1.38223369 Z" id="agFill-2" fill="#000000"/>
                        <polygon id="agFill-4" fill="#000000" points="3 3.85714289 13.1818182 3.85714289 13.1818182 3 3 3"/>
                        <polygon id="agFill-6" fill="#000000" points="3 5.85714289 13.1818182 5.85714289 13.1818182 5 3 5"/>
                        <polygon id="agFill-8" fill="#000000" points="8 7.85714289 13.0909091 7.85714289 13.0909091 7 8 7"/>
                    </g>
                </g>
            </g>
        </g>
    </g>
</svg><svg width="20" height="20" viewBox="0 0 20 20" version="1.1" id="phone" x="140">
    <!-- Generator: Sketch 39.1 (31720) - http://www.bohemiancoding.com/sketch -->
    <title>Icon /phone</title>
    <desc>Created with Sketch.</desc>
    <defs/>
    <g id="ahProduct-Page" stroke="none" stroke-width="1" fill="none" fill-rule="evenodd">
        <g id="ahDelivery_Returns_Closed-Copy" transform="translate(-71.000000, -1528.000000)" fill="#000000">
            <g id="ahContact-Us" transform="translate(1.000000, 1498.000000)">
                <g id="ahcall-customer-care-copy" transform="translate(0.000000, 3.000000)">
                    <g id="ahIcon-/phone" transform="translate(70.000000, 27.000000)">
                        <path d="M6.35856384,14.5005232 C5.06131384,13.2035232 4.26156384,12.0737732 1.40231384,14.3717732 C-1.45718616,16.6707732 0.739063845,18.2025232 1.99556384,19.4595232 C3.44556384,20.9092732 8.85081384,19.5357732 14.1935638,14.1937732 C19.5355638,8.85077324 20.9100638,3.44577324 19.4590638,1.99527324 C18.2023138,0.738523235 16.6705638,-1.45697676 14.3725638,1.40252324 C12.0740638,4.26102324 13.2033138,5.06102324 14.5008138,6.35827324 C15.4065638,7.26402324 13.5148138,9.55577324 11.5355638,11.5352732 C9.55631384,13.5145232 7.26431384,15.4065232 6.35856384,14.5005232 Z" id="ahShape" transform="translate(10.000000, 10.000000) scale(-1, 1) translate(-10.000000, -10.000000) "/>
                    </g>
                </g>
            </g>
        </g>
    </g>
</svg><svg width="20" height="20" viewBox="0 0 23 18" version="1.1" id="save-payment" x="160">
    <!-- Generator: Sketch 39.1 (31720) - http://www.bohemiancoding.com/sketch -->
    <title>Payment Details</title>
    <desc>Created with Sketch.</desc>
    <defs>
        <rect id="aipath-1" x="4" y="9" width="5" height="5"/>
        <mask id="aimask-2" maskContentUnits="userSpaceOnUse" maskUnits="objectBoundingBox" x="0" y="0" width="5" height="5" fill="white">
            <use xlink:href="#aipath-1"/>
        </mask>
    </defs>
    <g id="aiPhase-1.5---New-Logo" stroke="none" stroke-width="1" fill="none" fill-rule="evenodd">
        <g id="aiICONS" transform="translate(-411.000000, -8.000000)">
            <g id="aiPayment-Details" transform="translate(411.125000, 8.000000)">
                <g id="aiGroup-6">
                    <use id="aiRectangle-150" stroke="#000000" mask="url(#aimask-2)" stroke-width="3" xlink:href="#aipath-1"/>
                    <g id="aiPage-1" fill="#000000">
                        <path d="M0,18 L22,18 L22,0 L0,0 L0,18 Z M2,4 L20,4 L20,2 L2,2 L2,4 Z M2,16 L20,16 L20,6 L2,6 L2,16 Z" id="aiFill-1"/>
                    </g>
                </g>
            </g>
        </g>
    </g>
</svg><svg width="20" height="20" viewBox="0 0 23 15" version="1.1" id="size-pref" x="180">
    <!-- Generator: Sketch 39.1 (31720) - http://www.bohemiancoding.com/sketch -->
    <title>Size Preferences</title>
    <desc>Created with Sketch.</desc>
    <defs/>
    <g id="ajPhase-1.5---New-Logo" stroke="none" stroke-width="1" fill="none" fill-rule="evenodd">
        <g id="ajICONS" transform="translate(-333.000000, -11.000000)" fill="#000000">
            <g id="ajSize-Preferences" transform="translate(333.500000, 11.000000)">
                <g id="ajPage-1">
                    <polygon id="ajFill-1" points="19.9998 -0.0003 19.9998 11.0007 11.9998 11.0007 11.9998 2.0007 9.9998 2.0007 9.9998 11.0007 1.9998 11.0007 1.9998 -0.0003 -0.0002 -0.0003 -0.0002 11.0007 -0.0002 13.9997 -0.0002 14.9997 21.9998 14.9997 21.9998 -0.0003"/>
                    <polygon id="ajFill-2" points="14 9 15 9 15 2.001 14 2.001"/>
                    <polygon id="ajFill-3" points="17 9 18 9 18 2.001 17 2.001"/>
                    <polygon id="ajFill-4" points="4 9 5.001 9 5.001 2.001 4 2.001"/>
                    <polygon id="ajFill-5" points="7 9 8 9 8 2.001 7 2.001"/>
                </g>
            </g>
        </g>
    </g>
</svg><svg width="20" height="20" viewBox="0 0 26 17" version="1.1" id="store-credit" x="200">
    <!-- Generator: Sketch 39.1 (31720) - http://www.bohemiancoding.com/sketch -->
    <title>Store Credit</title>
    <desc>Created with Sketch.</desc>
    <defs>
        <polygon id="akpath-1" points="0 0 0 14 22.9997 14 22.9997 0 11.49985 0"/>
    </defs>
    <g id="akPhase-1.5---New-Logo" stroke="none" stroke-width="1" fill="none" fill-rule="evenodd">
        <g id="akICONS" transform="translate(-660.000000, -9.000000)">
            <g id="akStore-Credit" transform="translate(660.000000, 9.000000)">
                <g id="akGroup-4">
                    <g id="akPage-1-Copy-3">
                        <polygon id="akFill-3" fill="#000000" points="26 17 2 17 2 15 24 15 24 2 26 2"/>
                        <g id="akGroup-7">
                            <mask id="akmask-2" fill="white">
                                <use xlink:href="#akpath-1"/>
                            </mask>
                            <g id="akClip-6"/>
                            <path d="M19.6637,11.5 C19.6637,10.313 20.2257,9.75 21.3567,9.75 L21.3567,11.5 L19.6637,11.5 Z M1.8567,9.594 C2.9597,9.593 3.5107,10.188 3.5107,11.5 L1.8567,11.5 L1.8567,9.594 Z M3.6427,1.5 C3.6427,2.562 3.1047,3.381 1.8567,3.381 L1.8567,1.5 L3.6427,1.5 Z M21.3567,3.381 C20.1677,3.381 19.4957,2.566 19.5147,1.5 L21.3567,1.5 L21.3567,3.381 Z M18.2527,12 L4.6427,12 C4.6427,10 3.9997,8.125 1.9997,8.156 L1.9997,4.772 C3.9997,4.781 4.7877,3 4.7877,2 L18.1027,2 C18.4297,4 19.9997,4.781 20.9997,4.813 L20.9997,8.25 C18.9997,8.281 18.1647,9 18.2527,12 L18.2527,12 Z M-0.0003,14 L22.9997,14 L22.9997,0 L-0.0003,0 L-0.0003,14 Z" id="akFill-5" fill="#000000" mask="url(#akmask-2)"/>
                        </g>
                    </g>
                    <circle id="akOval-20" fill="#000000" cx="11.578125" cy="6.5" r="2.5"/>
                </g>
            </g>
        </g>
    </g>
</svg><svg width="20" height="20" viewBox="0 0 37 26" version="1.1" id="update-password" x="220">
    <!-- Generator: Sketch 39.1 (31720) - http://www.bohemiancoding.com/sketch -->
    <title>Password&amp;LogIn</title>
    <desc>Created with Sketch.</desc>
    <defs/>
    <g id="alStyle-Guide" stroke="none" stroke-width="1" fill="none" fill-rule="evenodd">
        <g id="alApp_Tab" transform="translate(-22.000000, -527.000000)">
            <g id="alPassword&amp;LogIn" transform="translate(15.000000, 516.000000)">
                <g transform="translate(7.000000, 11.000000)" id="alPage-1">
                    <g>
                        <g id="allock">
                            <path d="M7,4.7562 C7,2.2172 8.858,1.8382 9.955,1.8382 C11.902,1.8382 12.898,2.7352 12.898,4.6342 L12.909,6.9332 L7,6.9332 L7,4.7562 L7,4.7562 Z M14.714,6.9332 L14.712,4.6342 C14.712,1.1922 12.149,0.0002 9.857,0.0002 C7.669,0.0002 5,1.2702 5,4.7562 L5,6.9332 L0,6.9332 L0,21.9332 L20,21.9332 L20,6.9332 L14.714,6.9332 L14.714,6.9332 Z" id="alFill-1" fill="#000000"/>
                            <path d="M10.8200692,14.6978085 L10.8200692,16.1349481 C10.8200692,16.6101499 10.4302191,17 9.9550173,17 C9.47866205,17 9.0899654,16.6101499 9.0899654,16.1349481 L9.0899654,14.6978085 C8.44636678,14.378316 8,13.7208766 8,12.9538639 C8,11.8742791 8.87543253,11 9.9550173,11 C11.0334487,11 11.9088812,11.8742791 11.9088812,12.9538639 C11.9088812,13.7208766 11.4625144,14.378316 10.8200692,14.6978085 L10.8200692,14.6978085 Z" id="alPath" stroke="#FFFFFF" fill="#FFFFFF"/>
                        </g>
                        <g id="alsquare" transform="translate(14.000000, 15.000000)">
                            <polygon id="alFill-5" fill="#FFFFFF" points="0 10 22 10 22 0 0 0"/>
                            <polygon id="alStroke-7" stroke="#000000" stroke-width="2" points="0 10 22 10 22 0 0 0"/>
                        </g>
                        <polygon fill="#000000" points="18.7407877 17.9998449 18.7407877 19.5145851 17.2393445 19.0093023 17 19.7805233 18.4881464 20.2858061 17.5584704 21.534608 18.2222081 21.985595 19.1396952 20.7367931 20.082668 22 20.7209199 21.534608 19.7901359 20.2725092 21.2915792 19.7805233 21.0533428 19.0093023 19.5386026 19.5145851 19.5386026 17.9998449"/>
                        <polygon id="alPage-1-Copy" fill="#000000" points="24.7407877 17.9998449 24.7407877 19.5145851 23.2393445 19.0093023 23 19.7805233 24.4881464 20.2858061 23.5584704 21.534608 24.2222081 21.985595 25.1396952 20.7367931 26.082668 22 26.7209199 21.534608 25.7901359 20.2725092 27.2915792 19.7805233 27.0533428 19.0093023 25.5386026 19.5145851 25.5386026 17.9998449"/>
                        <polygon id="alPage-1-Copy-3" fill="#000000" points="30.7407877 17.9998449 30.7407877 19.5145851 29.2393445 19.0093023 29 19.7805233 30.4881464 20.2858061 29.5584704 21.534608 30.2222081 21.985595 31.1396952 20.7367931 32.082668 22 32.7209199 21.534608 31.7901359 20.2725092 33.2915792 19.7805233 33.0533428 19.0093023 31.5386026 19.5145851 31.5386026 17.9998449"/>
                    </g>
                </g>
            </g>
        </g>
    </g>
</svg><svg width="20" height="20" viewBox="0 0 19 18" version="1.1" id="wishlist" x="240">
    <!-- Generator: Sketch 39.1 (31720) - http://www.bohemiancoding.com/sketch -->
    <title>Wishlist</title>
    <desc>Created with Sketch.</desc>
    <defs/>
    <g id="amPhase-1.5---New-Logo" stroke="none" stroke-width="1" fill="none" fill-rule="evenodd">
        <g id="amICONS" transform="translate(-108.000000, -10.000000)" fill="#000000">
            <g id="amWishlist" transform="translate(108.625000, 10.000000)">
                <g id="amIcon_Heart_OL">
                    <g id="amLayer_1">
                        <path d="M4.41,13.5 C2.34,11.61 0,9.27 0,5.94 C0,2.43 1.98,0.18 5.04,0.18 C7.02,0.18 8.28,1.26 9.09,2.16 C9.9,1.35 11.25,0.18 12.87,0.18 C15.12,0.18 18,1.71 18,5.94 C18,9.09 16.11,10.89 14.4,12.6 C14.13,12.87 13.86,13.14 13.59,13.5 C12.33,14.85 11.25,15.84 10.53,16.65 C10.08,17.19 9.18,17.91 9.18,17.91 C9.18,17.91 5.67,14.58 4.41,13.5 L4.41,13.5 Z M11.52,12.69 C13.05,11.16 16.02,8.28 16.02,5.94 C16.02,2.79 14.04,2.25 12.96,2.25 C11.34,2.25 9.99,4.23 9.99,4.32 C9.72,4.68 9.27,5.67 9.27,5.67 C9.27,5.67 8.64,4.59 8.46,4.14 C8.28,3.78 7.29,2.25 5.22,2.25 C2.7,2.25 2.16,4.23 2.16,5.94 C2.16,7.92 3.24,9.72 5.85,11.97 C7.65,13.59 8.55,14.49 9.27,15.21 L9.27,15.12 C9.18,15.12 10.53,13.68 11.52,12.69 L11.52,12.69 Z" id="amShape"/>
                    </g>
                </g>
            </g>
        </g>
    </g>
</svg></svg>