<?xml version="1.0" encoding="UTF-8" standalone="no"?><svg width="40" height="20" viewBox="0 0 40 20" xmlns="http://www.w3.org/2000/svg" xmlns:xlink="http://www.w3.org/1999/xlink"><svg width="20" height="20" viewBox="0 0 44 44" version="1.1" id="about-us-black">
    <!-- Generator: sketchtool 39.1 (31720) - http://www.bohemiancoding.com/sketch -->
    <title>91EF90A6-005C-48EE-9EF0-C90AA6EAD9CD</title>
    <desc>Created with sketchtool.</desc>
    <defs/>
    <g id="aStyle-Guide" stroke="none" stroke-width="1" fill="none" fill-rule="evenodd">
        <g id="aApp_All_Icons_Black" transform="translate(-18.000000, -1071.000000)">
            <g id="aIcon-_About_Us" transform="translate(18.000000, 1071.000000)">
                <g id="aIcon/Info" transform="translate(10.000000, 10.000000)">
                    <path d="M24,12 C24,18.626782 18.6281842,24 12,24 C5.37321804,24 0,18.626782 0,12 C0,5.37321804 5.37321804,0 12,0 C18.6281842,0 24,5.37321804 24,12 L24,12 Z" id="aStroke-8" stroke="#000000" stroke-width="2"/>
                    <text id="ai" font-family="THEOUTNET-Bold, THE OUTNET" font-size="16" font-weight="bold" letter-spacing="0.571428657" fill="#000000">
                        <tspan x="10.2214888" y="16">i</tspan>
                    </text>
                </g>
            </g>
        </g>
    </g>
</svg><svg width="20" height="20" viewBox="0 0 44 44" version="1.1" id="about-us-grey" x="20">
    <!-- Generator: sketchtool 39.1 (31720) - http://www.bohemiancoding.com/sketch -->
    <title>69883D3F-CF14-4919-98B5-23B7C537AA31</title>
    <desc>Created with sketchtool.</desc>
    <defs/>
    <g id="bStyle-Guide" stroke="none" stroke-width="1" fill="none" fill-rule="evenodd">
        <g id="bApp_All_Icons_Grey" transform="translate(-18.000000, -1031.000000)">
            <g id="bIcon-_About_Us" transform="translate(18.000000, 1031.000000)">
                <g id="bIcon/About_Us" transform="translate(10.000000, 10.000000)">
                    <path d="M12,24 C5.37321804,24 0,18.626782 0,12 C0,5.37321804 5.37321804,0 12,0 C18.6281842,0 24,5.37321804 24,12 C24,18.626782 18.6281842,24 12,24 Z" id="bStroke-8" stroke="#B7B7B7" stroke-width="2"/>
                    <text id="bi" font-family="THEOUTNET-Bold, THE OUTNET" font-size="16" font-weight="bold" letter-spacing="0.571428657" fill="#B7B7B7">
                        <tspan x="10.2214888" y="16">i</tspan>
                    </text>
                </g>
            </g>
        </g>
    </g>
</svg></svg>