<?xml version="1.0" encoding="utf-8"?><!DOCTYPE svg PUBLIC "-//W3C//DTD SVG 1.1//EN" "http://www.w3.org/Graphics/SVG/1.1/DTD/svg11.dtd"><svg width="288" height="24" viewBox="0 0 288 24" xmlns="http://www.w3.org/2000/svg" xmlns:xlink="http://www.w3.org/1999/xlink"><svg version="1.1" id="social-logo-Email-white" width="24" height="24" viewBox="-299 221 40 40" style="enable-background:new -299 221 40 40;" xml:space="preserve">
<style type="text/css">.aast0{fill:none}.aast1{fill:#fff}</style>
<g>
	<polygon class="aast0" points="-279,243.2 -293,233 -293,250 -265,250 -265,233 	"/>
	<polygon class="aast0" points="-267.4,232 -290.5,232 -279.1,240.4 	"/>
	<path class="aast1" d="M-296,228v25h34v-25H-296z M-293,250v-17l14.1,10.2L-265,233v17H-293z M-267.4,232l-11.7,8.4l-11.4-8.4H-267.4
		z"/>
</g>
</svg><svg version="1.1" id="social-logo-Facebook-black" x="24" width="24" height="24" viewBox="0 0 40 40" enable-background="new 0 0 40 40" xml:space="preserve">
<path id="abFacebook" d="M15.928,37.121V21.055h-4.249v-5.786h4.249c0,0,0-2.371,0-4.941c0-3.882,2.509-7.448,8.291-7.448
	c2.342,0,4.073,0.225,4.073,0.225l-0.138,5.402c0,0-1.766-0.017-3.691-0.017c-2.086,0-2.42,0.961-2.42,2.556
	c0,1.261,0-2.688,0,4.224h6.277l-0.271,5.787h-6.006v16.065L15.928,37.121L15.928,37.121z"/>
</svg><svg version="1.1" id="social-logo-Facebook-white" x="48" width="24" height="24" viewBox="-299 221 40 40" style="enable-background:new -299 221 40 40;" xml:space="preserve">
<style type="text/css">.acst0{fill:#fff}</style>
<path id="acFacebook" class="acst0" d="M-283.1,258.1v-16.1h-4.2v-5.8h4.2c0,0,0-2.4,0-4.9c0-3.9,2.5-7.4,8.3-7.4c2.3,0,4.1,0.2,4.1,0.2
	l-0.1,5.4c0,0-1.8,0-3.7,0c-2.1,0-2.4,1-2.4,2.6c0,1.3,0-2.7,0,4.2h6.3l-0.3,5.8h-6v16.1L-283.1,258.1L-283.1,258.1z"/>
</svg><svg version="1.1" id="social-logo-GooglePlus" x="72" width="24" height="24" viewBox="0 0 40 40" enable-background="new 0 0 40 40" xml:space="preserve">
<g id="adGoogle__x2B_">
	<polygon fill="#12100B" points="38,11.104 31.878,11.104 31.878,5.248 30.547,5.248 30.547,11.104 24.691,11.104 24.691,12.701 
		30.547,12.701 30.547,18.556 31.878,18.556 31.878,12.701 38,12.701 	"/>
	<path fill="#12100B" d="M12.335,33.292c-3.507,0-6.04-2.22-6.04-4.888c0-2.612,3.142-4.788,6.648-4.75
		c0.818,0.009,1.581,0.141,2.273,0.363c1.904,1.324,3.269,2.072,3.654,3.582c0.073,0.305,0.112,0.619,0.112,0.94
		C18.983,31.208,17.266,33.292,12.335,33.292L12.335,33.292z M13.257,17.653c-2.354-0.07-4.591-2.633-4.998-5.724
		c-0.406-3.091,1.172-5.458,3.526-5.387c2.353,0.071,4.591,2.551,4.998,5.642C17.188,15.275,15.61,17.723,13.257,17.653
		L13.257,17.653z M18.138,22.23c-0.826-0.586-2.405-2.006-2.405-2.842c0-0.979,0.279-1.462,1.753-2.614
		c1.511-1.181,2.581-2.781,2.581-4.712c0-2.298-1.023-4.686-2.945-5.218h2.897l2.045-1.597c0,0-6.854,0-9.138,0
		c-4.097,0-7.952,3.103-7.952,6.698c0,3.673,2.792,6.638,6.96,6.638c0.29,0,0.571-0.005,0.847-0.025
		c-0.271,0.518-0.464,1.101-0.464,1.707c0,1.021,0.549,1.848,1.244,2.524c-0.524,0-1.031,0.016-1.584,0.016
		c-5.074,0-8.979,3.231-8.979,6.582c0,3.301,4.281,5.364,9.355,5.364c5.784,0,8.979-3.282,8.979-6.582
		C21.333,25.521,20.552,23.938,18.138,22.23L18.138,22.23z"/>
</g>
</svg><svg version="1.1" id="social-logo-GooglePlus-white" x="96" viewBox="0 0 40 40" style="enable-background:new 0 0 40 40;" xml:space="preserve" width="24" height="24">
<style type="text/css">.aest0{fill:#fff}</style>
<g id="aeGoogle__x2B_">
	<polygon class="aest0" points="38,11.1 31.9,11.1 31.9,5.2 30.5,5.2 30.5,11.1 24.7,11.1 24.7,12.7 30.5,12.7 30.5,18.6 31.9,18.6 
		31.9,12.7 38,12.7 	"/>
	<path class="aest0" d="M12.3,33.3c-3.5,0-6-2.2-6-4.9c0-2.6,3.1-4.8,6.6-4.8c0.8,0,1.6,0.1,2.3,0.4c1.9,1.3,3.3,2.1,3.7,3.6
		c0.1,0.3,0.1,0.6,0.1,0.9C19,31.2,17.3,33.3,12.3,33.3L12.3,33.3z M13.3,17.7c-2.4-0.1-4.6-2.6-5-5.7c-0.4-3.1,1.2-5.5,3.5-5.4
		c2.4,0.1,4.6,2.6,5,5.6C17.2,15.3,15.6,17.7,13.3,17.7L13.3,17.7z M18.1,22.2c-0.8-0.6-2.4-2-2.4-2.8c0-1,0.3-1.5,1.8-2.6
		c1.5-1.2,2.6-2.8,2.6-4.7c0-2.3-1-4.7-2.9-5.2H20l2-1.6c0,0-6.9,0-9.1,0c-4.1,0-8,3.1-8,6.7c0,3.7,2.8,6.6,7,6.6c0.3,0,0.6,0,0.8,0
		c-0.3,0.5-0.5,1.1-0.5,1.7c0,1,0.5,1.8,1.2,2.5c-0.5,0-1,0-1.6,0c-5.1,0-9,3.2-9,6.6c0,3.3,4.3,5.4,9.4,5.4c5.8,0,9-3.3,9-6.6
		C21.3,25.5,20.6,23.9,18.1,22.2L18.1,22.2z"/>
</g>
</svg><svg version="1.1" id="social-logo-Instagram" x="120" width="24" height="24" viewBox="0 0 40 40" enable-background="new 0 0 40 40" xml:space="preserve">
<g>
	<path fill="#1D1D1B" d="M23.24,20.341c0-1.699-1.383-3.081-3.08-3.081c-1.699,0-3.081,1.382-3.081,3.081
		c0,1.699,1.382,3.081,3.081,3.081C21.857,23.422,23.24,22.04,23.24,20.341L23.24,20.341z"/>
	<path fill="#1D1D1B" d="M26.562,9.053c0-0.478,0.392-0.868,0.869-0.868h2.682c0.478,0,0.869,0.39,0.869,0.868v2.683
		c0,0.478-0.393,0.868-0.869,0.868h-2.682c-0.479,0-0.869-0.39-0.869-0.868V9.053L26.562,9.053z M20.16,12.92
		c1.6,0,3.081,0.51,4.294,1.374h5.83h5.347v-2.176c0-4.308-3.505-7.812-7.812-7.812H12.182c-4.308,0-7.812,3.504-7.812,7.812v2.176
		h11.496C17.079,13.431,18.561,12.92,20.16,12.92L20.16,12.92z"/>
	<path fill="#1D1D1B" d="M27.581,20.341c0,4.091-3.329,7.42-7.421,7.42c-4.092,0-7.421-3.329-7.421-7.42
		c0-1.127,0.253-2.195,0.705-3.153H4.37v10.693c0,4.309,3.505,7.812,7.812,7.812h15.636c4.308,0,7.812-3.506,7.812-7.812V17.188
		h-8.755C27.327,18.146,27.581,19.214,27.581,20.341L27.581,20.341z"/>
</g>
</svg><svg version="1.1" id="social-logo-Instagram-white" x="144" viewBox="0 0 40 40" style="enable-background:new 0 0 40 40;" xml:space="preserve" width="24" height="24">
<style type="text/css">.agst0{fill:#fff}</style>
<g>
	<path class="agst0" d="M23.2,20.3c0-1.7-1.4-3.1-3.1-3.1c-1.7,0-3.1,1.4-3.1,3.1s1.4,3.1,3.1,3.1C21.9,23.4,23.2,22,23.2,20.3
		L23.2,20.3z"/>
	<path class="agst0" d="M26.6,9.1c0-0.5,0.4-0.9,0.9-0.9h2.7c0.5,0,0.9,0.4,0.9,0.9v2.7c0,0.5-0.4,0.9-0.9,0.9h-2.7
		c-0.5,0-0.9-0.4-0.9-0.9V9.1L26.6,9.1z M20.2,12.9c1.6,0,3.1,0.5,4.3,1.4h5.8h5.3v-2.2c0-4.3-3.5-7.8-7.8-7.8H12.2
		c-4.3,0-7.8,3.5-7.8,7.8v2.2h11.5C17.1,13.4,18.6,12.9,20.2,12.9L20.2,12.9z"/>
	<path class="agst0" d="M27.6,20.3c0,4.1-3.3,7.4-7.4,7.4s-7.4-3.3-7.4-7.4c0-1.1,0.3-2.2,0.7-3.2H4.4v10.7c0,4.3,3.5,7.8,7.8,7.8
		h15.6c4.3,0,7.8-3.5,7.8-7.8V17.2h-8.8C27.3,18.1,27.6,19.2,27.6,20.3L27.6,20.3z"/>
</g>
</svg><svg version="1.1" id="social-logo-Pinterest" x="168" width="24" height="24" viewBox="0 0 40 40" enable-background="new 0 0 40 40" xml:space="preserve">
<g id="ahPinterest">
	<g>
		<path fill="#12100B" d="M20.798,2.957c-9.302,0-13.993,6.669-13.993,12.231c0,3.367,1.275,6.363,4.009,7.479
			c0.449,0.185,0.85,0.007,0.98-0.489c0.09-0.344,0.304-1.211,0.4-1.572c0.131-0.49,0.08-0.663-0.282-1.09
			c-0.788-0.93-1.292-2.134-1.292-3.839c0-4.948,3.702-9.377,9.64-9.377c5.258,0,8.146,3.213,8.146,7.503
			c0,5.645-2.498,10.41-6.207,10.41c-2.048,0-3.582-1.694-3.09-3.771c0.588-2.48,1.728-5.157,1.728-6.947
			c0-1.603-0.86-2.939-2.64-2.939c-2.094,0-3.776,2.166-3.776,5.068c0,1.848,0.625,3.098,0.625,3.098s-2.143,9.079-2.519,10.669
			c-0.748,3.166-0.112,7.047-0.059,7.439c0.031,0.232,0.33,0.287,0.465,0.111c0.193-0.252,2.687-3.33,3.535-6.407
			c0.24-0.87,1.377-5.382,1.377-5.382c0.68,1.298,2.668,2.44,4.783,2.44c6.294,0,10.563-5.737,10.563-13.419
			C33.193,8.365,28.273,2.957,20.798,2.957L20.798,2.957z"/>
	</g>
</g>
</svg><svg version="1.1" id="social-logo-Pinterest-white" x="192" width="24" height="24" viewBox="-299 221 40 40" style="enable-background:new -299 221 40 40;" xml:space="preserve">
<style type="text/css">.aist0{fill:#fff}</style>
<g id="aiPinterest">
	<g>
		<path class="aist0" d="M-278.2,224c-9.3,0-14,6.7-14,12.2c0,3.4,1.3,6.4,4,7.5c0.4,0.2,0.9,0,1-0.5c0.1-0.3,0.3-1.2,0.4-1.6
			c0.1-0.5,0.1-0.7-0.3-1.1c-0.8-0.9-1.3-2.1-1.3-3.8c0-4.9,3.7-9.4,9.6-9.4c5.3,0,8.1,3.2,8.1,7.5c0,5.6-2.5,10.4-6.2,10.4
			c-2,0-3.6-1.7-3.1-3.8c0.6-2.5,1.7-5.2,1.7-6.9c0-1.6-0.9-2.9-2.6-2.9c-2.1,0-3.8,2.2-3.8,5.1c0,1.8,0.6,3.1,0.6,3.1
			s-2.1,9.1-2.5,10.7c-0.7,3.2-0.1,7-0.1,7.4c0,0.2,0.3,0.3,0.5,0.1c0.2-0.3,2.7-3.3,3.5-6.4c0.2-0.9,1.4-5.4,1.4-5.4
			c0.7,1.3,2.7,2.4,4.8,2.4c6.3,0,10.6-5.7,10.6-13.4C-265.8,229.4-270.7,224-278.2,224L-278.2,224z"/>
	</g>
</g>
</svg><svg version="1.1" id="social-logo-Twitter" x="216" width="24" height="24" viewBox="0 0 40 40" enable-background="new 0 0 40 40" xml:space="preserve">
<g id="ajTwitter">
	<path fill="#12100B" d="M38.455,8.553c-1.357,0.603-2.818,1.01-4.35,1.193c1.562-0.938,2.764-2.421,3.328-4.189
		c-1.463,0.868-3.084,1.498-4.809,1.837c-1.381-1.472-3.35-2.392-5.527-2.392c-4.182,0-7.573,3.391-7.573,7.573
		c0,0.593,0.067,1.171,0.196,1.726C13.429,13.984,7.85,10.97,4.115,6.388c-0.652,1.119-1.026,2.419-1.026,3.807
		c0,2.627,1.337,4.945,3.369,6.303c-1.242-0.04-2.409-0.38-3.43-0.947c0,0.031,0,0.063,0,0.095c0,3.668,2.61,6.729,6.074,7.424
		c-0.635,0.174-1.304,0.267-1.995,0.267c-0.488,0-0.963-0.048-1.425-0.136c0.963,3.008,3.76,5.197,7.074,5.259
		c-2.592,2.031-5.856,3.242-9.405,3.242c-0.611,0-1.214-0.036-1.806-0.106c3.351,2.148,7.332,3.402,11.607,3.402
		c13.929,0,21.546-11.539,21.546-21.545c0-0.329-0.009-0.655-0.022-0.979C36.154,11.405,37.439,10.071,38.455,8.553L38.455,8.553z"/>
</g>
</svg><svg version="1.1" id="social-logo-Twitter-white" x="240" width="24" height="24" viewBox="-299 221 40 40" style="enable-background:new -299 221 40 40;" xml:space="preserve">
<style type="text/css">.akst0{fill:#fff}</style>
<g id="akTwitter">
	<path class="akst0" d="M-260.5,229.6c-1.4,0.6-2.8,1-4.4,1.2c1.6-0.9,2.8-2.4,3.3-4.2c-1.5,0.9-3.1,1.5-4.8,1.8
		c-1.4-1.5-3.4-2.4-5.5-2.4c-4.2,0-7.6,3.4-7.6,7.6c0,0.6,0.1,1.2,0.2,1.7c-6.3-0.3-11.9-3.3-15.6-7.9c-0.7,1.1-1,2.4-1,3.8
		c0,2.6,1.3,4.9,3.4,6.3c-1.2,0-2.4-0.4-3.4-0.9c0,0,0,0.1,0,0.1c0,3.7,2.6,6.7,6.1,7.4c-0.6,0.2-1.3,0.3-2,0.3c-0.5,0-1,0-1.4-0.1
		c1,3,3.8,5.2,7.1,5.3c-2.6,2-5.9,3.2-9.4,3.2c-0.6,0-1.2,0-1.8-0.1c3.4,2.1,7.3,3.4,11.6,3.4c13.9,0,21.5-11.5,21.5-21.5
		c0-0.3,0-0.7,0-1C-262.8,232.4-261.6,231.1-260.5,229.6L-260.5,229.6z"/>
</g>
</svg><svg version="1.1" id="social-logo-YouTube" x="264" width="24" height="24" viewBox="0 0 40 40" enable-background="new 0 0 40 40" xml:space="preserve">
<g id="alYouTube">
	<path fill="#BDBAB9" d="M24.758,16.089c-0.546,0-0.924-0.222-1.093-0.696c-0.095-0.285-0.151-0.732-0.151-1.394V6.588h1.693v6.901
		c0,0.396,0,0.604,0.021,0.661c0.037,0.262,0.17,0.397,0.397,0.397c0.339,0,0.694-0.263,1.072-0.795V6.588h1.698v9.373h-1.698
		v-1.022C26.021,15.714,25.378,16.089,24.758,16.089 M19.607,8.003c-0.547,0-0.81,0.433-0.81,1.3v3.943
		c0,0.867,0.263,1.301,0.81,1.301s0.811-0.434,0.811-1.301V9.303C20.418,8.437,20.155,8.003,19.607,8.003 M14.818,15.961h-1.884
		v-5.094c-0.17-0.902-0.546-2.224-1.151-3.979c-0.397-1.167-0.81-2.337-1.207-3.504h1.981l1.337,4.939l1.285-4.939h1.904
		l-2.266,7.483L14.818,15.961 M19.607,16.089c-0.846,0-1.507-0.32-1.976-0.959c-0.361-0.469-0.532-1.208-0.532-2.204V9.644
		c0-1.001,0.171-1.734,0.532-2.208c0.469-0.641,1.13-0.96,1.976-0.96c0.851,0,1.513,0.319,1.981,0.96
		c0.355,0.474,0.527,1.207,0.527,2.208v3.282c0,0.997-0.172,1.735-0.527,2.204C21.12,15.769,20.458,16.089,19.607,16.089"/>
	<path fill="#12100B" d="M28.402,15.756V6.384h-1.699v7.163c-0.376,0.533-0.732,0.796-1.072,0.796c-0.229,0-0.359-0.135-0.398-0.398
		c-0.021-0.055-0.021-0.262-0.021-0.661v-6.9H23.52v7.411c0,0.661,0.057,1.11,0.15,1.393c0.169,0.475,0.546,0.697,1.094,0.697
		c0.618,0,1.264-0.376,1.939-1.152v1.023H28.402L28.402,15.756z M20.422,13.042c0,0.867-0.262,1.301-0.81,1.301
		c-0.548,0-0.811-0.434-0.811-1.301V9.099c0-0.867,0.263-1.299,0.811-1.299c0.548,0,0.81,0.432,0.81,1.299V13.042L20.422,13.042z
		 M22.121,12.722V9.439c0-1.002-0.171-1.734-0.527-2.208c-0.47-0.64-1.13-0.961-1.981-0.961c-0.846,0-1.507,0.321-1.977,0.961
		c-0.361,0.474-0.532,1.206-0.532,2.208v3.283c0,0.996,0.171,1.734,0.532,2.205c0.47,0.639,1.131,0.959,1.977,0.959
		c0.851,0,1.511-0.32,1.981-0.959C21.95,14.456,22.121,13.718,22.121,12.722L22.121,12.722z M17.088,3.18h-1.904L13.9,8.118
		L12.562,3.18h-1.981c0.396,1.165,0.81,2.337,1.208,3.504c0.604,1.753,0.98,3.076,1.15,3.979v5.093h1.884v-5.093L17.088,3.18
		L17.088,3.18z"/>
	<path fill="#12100B" d="M29.312,25.271c-0.562,0-0.842,0.43-0.842,1.287v0.857h1.68v-0.857
		C30.15,25.701,29.87,25.271,29.312,25.271L29.312,25.271z"/>
	<g>
		<path fill="#12100B" d="M23.077,25.271c-0.275,0-0.558,0.133-0.837,0.408v5.653c0.279,0.28,0.562,0.413,0.837,0.413
			c0.485,0,0.731-0.413,0.731-1.251v-3.958C23.809,25.701,23.562,25.271,23.077,25.271L23.077,25.271z"/>
		<path fill="#12100B" d="M31.832,28.814h-3.361v1.646c0,0.858,0.281,1.287,0.857,1.287c0.414,0,0.656-0.226,0.752-0.674
			c0.016-0.093,0.036-0.466,0.036-1.14h1.716v0.246c0,0.541-0.021,0.913-0.036,1.082c-0.058,0.372-0.188,0.709-0.394,1.008
			c-0.465,0.672-1.154,1.004-2.031,1.004c-0.88,0-1.549-0.315-2.034-0.948c-0.356-0.464-0.54-1.196-0.54-2.183v-3.248
			c0-0.992,0.162-1.715,0.52-2.186c0.484-0.635,1.154-0.951,2.013-0.951c0.844,0,1.513,0.316,1.983,0.951
			c0.352,0.471,0.521,1.193,0.521,2.186L31.832,28.814L31.832,28.814z M25.488,30.364c0,0.856-0.057,1.475-0.168,1.868
			c-0.227,0.689-0.676,1.041-1.346,1.041c-0.597,0-1.174-0.332-1.734-1.026v0.899h-1.68V20.7h1.681v4.065
			c0.542-0.668,1.118-1.007,1.735-1.007c0.67,0,1.119,0.353,1.344,1.048c0.111,0.373,0.168,0.986,0.168,1.863V30.364L25.488,30.364z
			 M19.105,33.146h-1.682v-1.012c-0.667,0.766-1.302,1.139-1.92,1.139c-0.542,0-0.915-0.219-1.083-0.689
			c-0.092-0.279-0.148-0.723-0.148-1.378v-7.333h1.68v6.828c0,0.393,0,0.599,0.016,0.652c0.04,0.261,0.168,0.394,0.393,0.394
			c0.337,0,0.69-0.261,1.062-0.786v-7.088h1.682V33.146L19.105,33.146z M14.027,22.452h-2.013v10.694h-1.869V22.452H8.168V20.7
			h5.859V22.452L14.027,22.452z M33.422,20.557c-0.34-1.478-1.55-2.567-3.005-2.73c-3.449-0.386-6.938-0.387-10.414-0.386
			c-3.475-0.001-6.965,0-10.413,0.386c-1.456,0.163-2.666,1.253-3.005,2.73c-0.485,2.107-0.49,4.405-0.49,6.574
			c0,2.168,0,4.469,0.484,6.573c0.34,1.479,1.548,2.569,3.005,2.731c3.448,0.385,6.938,0.388,10.413,0.385
			c3.476,0.003,6.965,0,10.413-0.385c1.456-0.162,2.666-1.254,3.005-2.731c0.485-2.104,0.487-4.405,0.487-6.573
			C33.904,24.962,33.906,22.664,33.422,20.557L33.422,20.557z"/>
	</g>
</g>
</svg></svg>