<?xml version="1.0" encoding="utf-8"?>
<!-- Generator: Adobe Illustrator 19.2.1, SVG Export Plug-In . SVG Version: 6.00 Build 0)  -->
<svg version="1.1" id="Layer_1" xmlns="http://www.w3.org/2000/svg" xmlns:xlink="http://www.w3.org/1999/xlink" x="0px" y="0px"
	 viewBox="0 0 40 40" style="enable-background:new 0 0 40 40;" xml:space="preserve">
<style type="text/css">
	.st0{fill:#FFFFFF;}
</style>
<g id="Google__x2B_">
	<polygon class="st0" points="38,11.1 31.9,11.1 31.9,5.2 30.5,5.2 30.5,11.1 24.7,11.1 24.7,12.7 30.5,12.7 30.5,18.6 31.9,18.6 
		31.9,12.7 38,12.7 	"/>
	<path class="st0" d="M12.3,33.3c-3.5,0-6-2.2-6-4.9c0-2.6,3.1-4.8,6.6-4.8c0.8,0,1.6,0.1,2.3,0.4c1.9,1.3,3.3,2.1,3.7,3.6
		c0.1,0.3,0.1,0.6,0.1,0.9C19,31.2,17.3,33.3,12.3,33.3L12.3,33.3z M13.3,17.7c-2.4-0.1-4.6-2.6-5-5.7c-0.4-3.1,1.2-5.5,3.5-5.4
		c2.4,0.1,4.6,2.6,5,5.6C17.2,15.3,15.6,17.7,13.3,17.7L13.3,17.7z M18.1,22.2c-0.8-0.6-2.4-2-2.4-2.8c0-1,0.3-1.5,1.8-2.6
		c1.5-1.2,2.6-2.8,2.6-4.7c0-2.3-1-4.7-2.9-5.2H20l2-1.6c0,0-6.9,0-9.1,0c-4.1,0-8,3.1-8,6.7c0,3.7,2.8,6.6,7,6.6c0.3,0,0.6,0,0.8,0
		c-0.3,0.5-0.5,1.1-0.5,1.7c0,1,0.5,1.8,1.2,2.5c-0.5,0-1,0-1.6,0c-5.1,0-9,3.2-9,6.6c0,3.3,4.3,5.4,9.4,5.4c5.8,0,9-3.3,9-6.6
		C21.3,25.5,20.6,23.9,18.1,22.2L18.1,22.2z"/>
</g>
</svg>
