<?xml version="1.0" encoding="utf-8"?>
<!-- Generator: Adobe Illustrator 19.2.1, SVG Export Plug-In . SVG Version: 6.00 Build 0)  -->
<svg version="1.1" id="Layer_1" xmlns="http://www.w3.org/2000/svg" xmlns:xlink="http://www.w3.org/1999/xlink" x="0px" y="0px"
	 viewBox="0 0 40 40" style="enable-background:new 0 0 40 40;" xml:space="preserve">
<style type="text/css">
	.st0{fill:#FFFFFF;}
</style>
<g>
	<path class="st0" d="M23.2,20.3c0-1.7-1.4-3.1-3.1-3.1c-1.7,0-3.1,1.4-3.1,3.1s1.4,3.1,3.1,3.1C21.9,23.4,23.2,22,23.2,20.3
		L23.2,20.3z"/>
	<path class="st0" d="M26.6,9.1c0-0.5,0.4-0.9,0.9-0.9h2.7c0.5,0,0.9,0.4,0.9,0.9v2.7c0,0.5-0.4,0.9-0.9,0.9h-2.7
		c-0.5,0-0.9-0.4-0.9-0.9V9.1L26.6,9.1z M20.2,12.9c1.6,0,3.1,0.5,4.3,1.4h5.8h5.3v-2.2c0-4.3-3.5-7.8-7.8-7.8H12.2
		c-4.3,0-7.8,3.5-7.8,7.8v2.2h11.5C17.1,13.4,18.6,12.9,20.2,12.9L20.2,12.9z"/>
	<path class="st0" d="M27.6,20.3c0,4.1-3.3,7.4-7.4,7.4s-7.4-3.3-7.4-7.4c0-1.1,0.3-2.2,0.7-3.2H4.4v10.7c0,4.3,3.5,7.8,7.8,7.8
		h15.6c4.3,0,7.8-3.5,7.8-7.8V17.2h-8.8C27.3,18.1,27.6,19.2,27.6,20.3L27.6,20.3z"/>
</g>
</svg>
