<?xml version="1.0" encoding="utf-8"?>
<!-- Generator: Adobe Illustrator 16.0.3, SVG Export Plug-In . SVG Version: 6.00 Build 0)  -->
<!DOCTYPE svg PUBLIC "-//W3C//DTD SVG 1.1//EN" "http://www.w3.org/Graphics/SVG/1.1/DTD/svg11.dtd">
<svg version="1.1" id="Layer_1" xmlns="http://www.w3.org/2000/svg" xmlns:xlink="http://www.w3.org/1999/xlink" x="0px" y="0px"
	 width="40px" height="40px" viewBox="0 0 40 40" enable-background="new 0 0 40 40" xml:space="preserve">
<g id="Twitter">
	<path fill="#12100B" d="M38.455,8.553c-1.357,0.603-2.818,1.01-4.35,1.193c1.562-0.938,2.764-2.421,3.328-4.189
		c-1.463,0.868-3.084,1.498-4.809,1.837c-1.381-1.472-3.35-2.392-5.527-2.392c-4.182,0-7.573,3.391-7.573,7.573
		c0,0.593,0.067,1.171,0.196,1.726C13.429,13.984,7.85,10.97,4.115,6.388c-0.652,1.119-1.026,2.419-1.026,3.807
		c0,2.627,1.337,4.945,3.369,6.303c-1.242-0.04-2.409-0.38-3.43-0.947c0,0.031,0,0.063,0,0.095c0,3.668,2.61,6.729,6.074,7.424
		c-0.635,0.174-1.304,0.267-1.995,0.267c-0.488,0-0.963-0.048-1.425-0.136c0.963,3.008,3.76,5.197,7.074,5.259
		c-2.592,2.031-5.856,3.242-9.405,3.242c-0.611,0-1.214-0.036-1.806-0.106c3.351,2.148,7.332,3.402,11.607,3.402
		c13.929,0,21.546-11.539,21.546-21.545c0-0.329-0.009-0.655-0.022-0.979C36.154,11.405,37.439,10.071,38.455,8.553L38.455,8.553z"
		/>
</g>
</svg>
