<?xml version="1.0" encoding="utf-8"?>
<!-- Generator: Adobe Illustrator 16.0.3, SVG Export Plug-In . SVG Version: 6.00 Build 0)  -->
<!DOCTYPE svg PUBLIC "-//W3C//DTD SVG 1.1//EN" "http://www.w3.org/Graphics/SVG/1.1/DTD/svg11.dtd">
<svg version="1.1" id="Layer_1" xmlns="http://www.w3.org/2000/svg" xmlns:xlink="http://www.w3.org/1999/xlink" x="0px" y="0px"
	 width="40px" height="40px" viewBox="0 0 40 40" enable-background="new 0 0 40 40" xml:space="preserve">
<g id="Google__x2B_">
	<polygon fill="#12100B" points="38,11.104 31.878,11.104 31.878,5.248 30.547,5.248 30.547,11.104 24.691,11.104 24.691,12.701 
		30.547,12.701 30.547,18.556 31.878,18.556 31.878,12.701 38,12.701 	"/>
	<path fill="#12100B" d="M12.335,33.292c-3.507,0-6.04-2.22-6.04-4.888c0-2.612,3.142-4.788,6.648-4.75
		c0.818,0.009,1.581,0.141,2.273,0.363c1.904,1.324,3.269,2.072,3.654,3.582c0.073,0.305,0.112,0.619,0.112,0.94
		C18.983,31.208,17.266,33.292,12.335,33.292L12.335,33.292z M13.257,17.653c-2.354-0.07-4.591-2.633-4.998-5.724
		c-0.406-3.091,1.172-5.458,3.526-5.387c2.353,0.071,4.591,2.551,4.998,5.642C17.188,15.275,15.61,17.723,13.257,17.653
		L13.257,17.653z M18.138,22.23c-0.826-0.586-2.405-2.006-2.405-2.842c0-0.979,0.279-1.462,1.753-2.614
		c1.511-1.181,2.581-2.781,2.581-4.712c0-2.298-1.023-4.686-2.945-5.218h2.897l2.045-1.597c0,0-6.854,0-9.138,0
		c-4.097,0-7.952,3.103-7.952,6.698c0,3.673,2.792,6.638,6.96,6.638c0.29,0,0.571-0.005,0.847-0.025
		c-0.271,0.518-0.464,1.101-0.464,1.707c0,1.021,0.549,1.848,1.244,2.524c-0.524,0-1.031,0.016-1.584,0.016
		c-5.074,0-8.979,3.231-8.979,6.582c0,3.301,4.281,5.364,9.355,5.364c5.784,0,8.979-3.282,8.979-6.582
		C21.333,25.521,20.552,23.938,18.138,22.23L18.138,22.23z"/>
</g>
</svg>
