<?xml version="1.0" encoding="utf-8"?>
<!-- Generator: Adobe Illustrator 16.0.3, SVG Export Plug-In . SVG Version: 6.00 Build 0)  -->
<!DOCTYPE svg PUBLIC "-//W3C//DTD SVG 1.1//EN" "http://www.w3.org/Graphics/SVG/1.1/DTD/svg11.dtd">
<svg version="1.1" id="Layer_1" xmlns="http://www.w3.org/2000/svg" xmlns:xlink="http://www.w3.org/1999/xlink" x="0px" y="0px"
	 width="40px" height="40px" viewBox="0 0 40 40" enable-background="new 0 0 40 40" xml:space="preserve">
<g id="YouTube">
	<path fill="#BDBAB9" d="M24.758,16.089c-0.546,0-0.924-0.222-1.093-0.696c-0.095-0.285-0.151-0.732-0.151-1.394V6.588h1.693v6.901
		c0,0.396,0,0.604,0.021,0.661c0.037,0.262,0.17,0.397,0.397,0.397c0.339,0,0.694-0.263,1.072-0.795V6.588h1.698v9.373h-1.698
		v-1.022C26.021,15.714,25.378,16.089,24.758,16.089 M19.607,8.003c-0.547,0-0.81,0.433-0.81,1.3v3.943
		c0,0.867,0.263,1.301,0.81,1.301s0.811-0.434,0.811-1.301V9.303C20.418,8.437,20.155,8.003,19.607,8.003 M14.818,15.961h-1.884
		v-5.094c-0.17-0.902-0.546-2.224-1.151-3.979c-0.397-1.167-0.81-2.337-1.207-3.504h1.981l1.337,4.939l1.285-4.939h1.904
		l-2.266,7.483L14.818,15.961 M19.607,16.089c-0.846,0-1.507-0.32-1.976-0.959c-0.361-0.469-0.532-1.208-0.532-2.204V9.644
		c0-1.001,0.171-1.734,0.532-2.208c0.469-0.641,1.13-0.96,1.976-0.96c0.851,0,1.513,0.319,1.981,0.96
		c0.355,0.474,0.527,1.207,0.527,2.208v3.282c0,0.997-0.172,1.735-0.527,2.204C21.12,15.769,20.458,16.089,19.607,16.089"/>
	<path fill="#12100B" d="M28.402,15.756V6.384h-1.699v7.163c-0.376,0.533-0.732,0.796-1.072,0.796c-0.229,0-0.359-0.135-0.398-0.398
		c-0.021-0.055-0.021-0.262-0.021-0.661v-6.9H23.52v7.411c0,0.661,0.057,1.11,0.15,1.393c0.169,0.475,0.546,0.697,1.094,0.697
		c0.618,0,1.264-0.376,1.939-1.152v1.023H28.402L28.402,15.756z M20.422,13.042c0,0.867-0.262,1.301-0.81,1.301
		c-0.548,0-0.811-0.434-0.811-1.301V9.099c0-0.867,0.263-1.299,0.811-1.299c0.548,0,0.81,0.432,0.81,1.299V13.042L20.422,13.042z
		 M22.121,12.722V9.439c0-1.002-0.171-1.734-0.527-2.208c-0.47-0.64-1.13-0.961-1.981-0.961c-0.846,0-1.507,0.321-1.977,0.961
		c-0.361,0.474-0.532,1.206-0.532,2.208v3.283c0,0.996,0.171,1.734,0.532,2.205c0.47,0.639,1.131,0.959,1.977,0.959
		c0.851,0,1.511-0.32,1.981-0.959C21.95,14.456,22.121,13.718,22.121,12.722L22.121,12.722z M17.088,3.18h-1.904L13.9,8.118
		L12.562,3.18h-1.981c0.396,1.165,0.81,2.337,1.208,3.504c0.604,1.753,0.98,3.076,1.15,3.979v5.093h1.884v-5.093L17.088,3.18
		L17.088,3.18z"/>
	<path fill="#12100B" d="M29.312,25.271c-0.562,0-0.842,0.43-0.842,1.287v0.857h1.68v-0.857
		C30.15,25.701,29.87,25.271,29.312,25.271L29.312,25.271z"/>
	<g>
		<path fill="#12100B" d="M23.077,25.271c-0.275,0-0.558,0.133-0.837,0.408v5.653c0.279,0.28,0.562,0.413,0.837,0.413
			c0.485,0,0.731-0.413,0.731-1.251v-3.958C23.809,25.701,23.562,25.271,23.077,25.271L23.077,25.271z"/>
		<path fill="#12100B" d="M31.832,28.814h-3.361v1.646c0,0.858,0.281,1.287,0.857,1.287c0.414,0,0.656-0.226,0.752-0.674
			c0.016-0.093,0.036-0.466,0.036-1.14h1.716v0.246c0,0.541-0.021,0.913-0.036,1.082c-0.058,0.372-0.188,0.709-0.394,1.008
			c-0.465,0.672-1.154,1.004-2.031,1.004c-0.88,0-1.549-0.315-2.034-0.948c-0.356-0.464-0.54-1.196-0.54-2.183v-3.248
			c0-0.992,0.162-1.715,0.52-2.186c0.484-0.635,1.154-0.951,2.013-0.951c0.844,0,1.513,0.316,1.983,0.951
			c0.352,0.471,0.521,1.193,0.521,2.186L31.832,28.814L31.832,28.814z M25.488,30.364c0,0.856-0.057,1.475-0.168,1.868
			c-0.227,0.689-0.676,1.041-1.346,1.041c-0.597,0-1.174-0.332-1.734-1.026v0.899h-1.68V20.7h1.681v4.065
			c0.542-0.668,1.118-1.007,1.735-1.007c0.67,0,1.119,0.353,1.344,1.048c0.111,0.373,0.168,0.986,0.168,1.863V30.364L25.488,30.364z
			 M19.105,33.146h-1.682v-1.012c-0.667,0.766-1.302,1.139-1.92,1.139c-0.542,0-0.915-0.219-1.083-0.689
			c-0.092-0.279-0.148-0.723-0.148-1.378v-7.333h1.68v6.828c0,0.393,0,0.599,0.016,0.652c0.04,0.261,0.168,0.394,0.393,0.394
			c0.337,0,0.69-0.261,1.062-0.786v-7.088h1.682V33.146L19.105,33.146z M14.027,22.452h-2.013v10.694h-1.869V22.452H8.168V20.7
			h5.859V22.452L14.027,22.452z M33.422,20.557c-0.34-1.478-1.55-2.567-3.005-2.73c-3.449-0.386-6.938-0.387-10.414-0.386
			c-3.475-0.001-6.965,0-10.413,0.386c-1.456,0.163-2.666,1.253-3.005,2.73c-0.485,2.107-0.49,4.405-0.49,6.574
			c0,2.168,0,4.469,0.484,6.573c0.34,1.479,1.548,2.569,3.005,2.731c3.448,0.385,6.938,0.388,10.413,0.385
			c3.476,0.003,6.965,0,10.413-0.385c1.456-0.162,2.666-1.254,3.005-2.731c0.485-2.104,0.487-4.405,0.487-6.573
			C33.904,24.962,33.906,22.664,33.422,20.557L33.422,20.557z"/>
	</g>
</g>
</svg>
