<?xml version="1.0" encoding="utf-8"?>
<!-- Generator: Adobe Illustrator 16.0.3, SVG Export Plug-In . SVG Version: 6.00 Build 0)  -->
<!DOCTYPE svg PUBLIC "-//W3C//DTD SVG 1.1//EN" "http://www.w3.org/Graphics/SVG/1.1/DTD/svg11.dtd">
<svg version="1.1" id="Layer_1" xmlns="http://www.w3.org/2000/svg" xmlns:xlink="http://www.w3.org/1999/xlink" x="0px" y="0px"
	 width="40px" height="40px" viewBox="0 0 40 40" enable-background="new 0 0 40 40" xml:space="preserve">
<g id="Pinterest">
	<g>
		<path fill="#12100B" d="M20.798,2.957c-9.302,0-13.993,6.669-13.993,12.231c0,3.367,1.275,6.363,4.009,7.479
			c0.449,0.185,0.85,0.007,0.98-0.489c0.09-0.344,0.304-1.211,0.4-1.572c0.131-0.49,0.08-0.663-0.282-1.09
			c-0.788-0.93-1.292-2.134-1.292-3.839c0-4.948,3.702-9.377,9.64-9.377c5.258,0,8.146,3.213,8.146,7.503
			c0,5.645-2.498,10.41-6.207,10.41c-2.048,0-3.582-1.694-3.09-3.771c0.588-2.48,1.728-5.157,1.728-6.947
			c0-1.603-0.86-2.939-2.64-2.939c-2.094,0-3.776,2.166-3.776,5.068c0,1.848,0.625,3.098,0.625,3.098s-2.143,9.079-2.519,10.669
			c-0.748,3.166-0.112,7.047-0.059,7.439c0.031,0.232,0.33,0.287,0.465,0.111c0.193-0.252,2.687-3.33,3.535-6.407
			c0.24-0.87,1.377-5.382,1.377-5.382c0.68,1.298,2.668,2.44,4.783,2.44c6.294,0,10.563-5.737,10.563-13.419
			C33.193,8.365,28.273,2.957,20.798,2.957L20.798,2.957z"/>
	</g>
</g>
</svg>
