<?xml version="1.0" encoding="utf-8"?>
<!-- Generator: Adobe Illustrator 19.1.0, SVG Export Plug-In . SVG Version: 6.00 Build 0)  -->
<svg version="1.1" id="Layer_1" xmlns="http://www.w3.org/2000/svg" xmlns:xlink="http://www.w3.org/1999/xlink" x="0px" y="0px"
	 width="40px" height="40px" viewBox="-299 221 40 40" style="enable-background:new -299 221 40 40;" xml:space="preserve">
<style type="text/css">
	.st0{fill:#FFFFFF;}
</style>
<g id="Pinterest">
	<g>
		<path class="st0" d="M-278.2,224c-9.3,0-14,6.7-14,12.2c0,3.4,1.3,6.4,4,7.5c0.4,0.2,0.9,0,1-0.5c0.1-0.3,0.3-1.2,0.4-1.6
			c0.1-0.5,0.1-0.7-0.3-1.1c-0.8-0.9-1.3-2.1-1.3-3.8c0-4.9,3.7-9.4,9.6-9.4c5.3,0,8.1,3.2,8.1,7.5c0,5.6-2.5,10.4-6.2,10.4
			c-2,0-3.6-1.7-3.1-3.8c0.6-2.5,1.7-5.2,1.7-6.9c0-1.6-0.9-2.9-2.6-2.9c-2.1,0-3.8,2.2-3.8,5.1c0,1.8,0.6,3.1,0.6,3.1
			s-2.1,9.1-2.5,10.7c-0.7,3.2-0.1,7-0.1,7.4c0,0.2,0.3,0.3,0.5,0.1c0.2-0.3,2.7-3.3,3.5-6.4c0.2-0.9,1.4-5.4,1.4-5.4
			c0.7,1.3,2.7,2.4,4.8,2.4c6.3,0,10.6-5.7,10.6-13.4C-265.8,229.4-270.7,224-278.2,224L-278.2,224z"/>
	</g>
</g>
</svg>
